<svg width="143" height="69" viewBox="0 0 143 69" fill="none" xmlns="http://www.w3.org/2000/svg">
<g filter="url(#filter0_ddddii_8415_670)">
<rect x="15.6953" y="15.5444" width="109" height="35" rx="17.5" fill="#00FFA3"/>
<path d="M29.8675 35.7804H30.4795V29.8404H29.8675C29.7635 29.8404 29.6755 29.8084 29.6035 29.7444C29.5315 29.6724 29.4955 29.5844 29.4955 29.4804V28.4484C29.4955 28.3444 29.5315 28.2564 29.6035 28.1844C29.6755 28.1124 29.7635 28.0764 29.8675 28.0764H35.2675C35.3715 28.0764 35.4555 28.1124 35.5195 28.1844C35.5915 28.2564 35.6275 28.3444 35.6275 28.4484V29.1924H36.3715C36.4755 29.1924 36.5635 29.2284 36.6355 29.3004C36.7075 29.3644 36.7435 29.4484 36.7435 29.5524V31.7004C36.7435 31.7964 36.7075 31.8804 36.6355 31.9524C36.5635 32.0244 36.4755 32.0604 36.3715 32.0604H35.7115V32.5164H36.3715C36.4755 32.5164 36.5635 32.5524 36.6355 32.6244C36.7075 32.6964 36.7435 32.7844 36.7435 32.8884V36.1404C36.7435 36.2364 36.7075 36.3204 36.6355 36.3924C36.5635 36.4644 36.4755 36.5004 36.3715 36.5004H35.7115V37.1844C35.7115 37.2804 35.6755 37.3644 35.6035 37.4364C35.5315 37.5084 35.4475 37.5444 35.3515 37.5444H29.8675C29.7635 37.5444 29.6755 37.5084 29.6035 37.4364C29.5315 37.3644 29.4955 37.2804 29.4955 37.1844V36.1404C29.4955 36.0444 29.5315 35.9604 29.6035 35.8884C29.6755 35.8164 29.7635 35.7804 29.8675 35.7804ZM32.4355 35.7084H34.9795V33.1764H32.4355V35.7084ZM32.4355 31.2684H34.9795V29.8404H32.4355V31.2684ZM38.3636 28.0764H39.3356C39.4316 28.0764 39.5156 28.1124 39.5876 28.1844C39.6596 28.2564 39.6956 28.3444 39.6956 28.4484V35.7804H43.4756V28.4484C43.4756 28.3444 43.5116 28.2564 43.5836 28.1844C43.6556 28.1124 43.7436 28.0764 43.8476 28.0764H44.8676C44.9716 28.0764 45.0596 28.1124 45.1316 28.1844C45.2036 28.2564 45.2396 28.3444 45.2396 28.4484V36.1404C45.2396 36.2364 45.2036 36.3204 45.1316 36.3924C45.0596 36.4644 44.9716 36.5004 44.8676 36.5004H44.2076V37.1844C44.2076 37.2804 44.1716 37.3644 44.0996 37.4364C44.0276 37.5084 43.9436 37.5444 43.8476 37.5444H39.4676C39.3636 37.5444 39.2756 37.5084 39.2036 37.4364C39.1396 37.3644 39.1076 37.2804 39.1076 37.1844V36.4404H38.3636C38.2596 36.4404 38.1716 36.4044 38.0996 36.3324C38.0276 36.2604 37.9916 36.1764 37.9916 36.0804V28.4484C37.9916 28.3444 38.0276 28.2564 38.0996 28.1844C38.1716 28.1124 38.2596 28.0764 38.3636 28.0764ZM46.6825 28.0764H47.6665C47.7625 28.0764 47.8465 28.1124 47.9185 28.1844C47.9905 28.2564 48.0265 28.3444 48.0265 28.4484V31.4124H48.7705C48.8665 31.4124 48.9505 31.4484 49.0225 31.5204C49.0945 31.5924 49.1305 31.6764 49.1305 31.7724V32.4564H49.5745V31.7004C49.5745 31.5964 49.6105 31.5124 49.6825 31.4484C49.7545 31.3764 49.8425 31.3404 49.9465 31.3404H50.6905V28.4484C50.6905 28.3444 50.7225 28.2564 50.7865 28.1844C50.8585 28.1124 50.9465 28.0764 51.0505 28.0764H52.0945C52.1905 28.0764 52.2745 28.1124 52.3465 28.1844C52.4185 28.2564 52.4545 28.3444 52.4545 28.4484V31.7004C52.4545 31.7964 52.4185 31.8804 52.3465 31.9524C52.2745 32.0244 52.1905 32.0604 52.0945 32.0604H51.4105V32.8164C51.4105 32.9204 51.3745 33.0084 51.3025 33.0804C51.2305 33.1444 51.1465 33.1764 51.0505 33.1764H50.3065V37.1844C50.3065 37.2804 50.2705 37.3644 50.1985 37.4364C50.1265 37.5084 50.0425 37.5444 49.9465 37.5444H48.9025C48.7985 37.5444 48.7105 37.5084 48.6385 37.4364C48.5745 37.3644 48.5425 37.2804 48.5425 37.1844V33.1044H47.7865C47.6905 33.1044 47.6065 33.0684 47.5345 32.9964C47.4625 32.9244 47.4265 32.8404 47.4265 32.7444V32.0004H46.6825C46.5865 32.0004 46.5025 31.9644 46.4305 31.8924C46.3585 31.8204 46.3225 31.7324 46.3225 31.6284V28.4484C46.3225 28.3444 46.3585 28.2564 46.4305 28.1844C46.5025 28.1124 46.5865 28.0764 46.6825 28.0764ZM57.7229 29.1204H58.3949V28.4484C58.3949 28.3444 58.4309 28.2564 58.5029 28.1844C58.5749 28.1124 58.6589 28.0764 58.7549 28.0764H63.1229C63.2269 28.0764 63.3109 28.1124 63.3749 28.1844C63.4469 28.2564 63.4829 28.3444 63.4829 28.4484V29.1924H64.2269C64.3309 29.1924 64.4189 29.2284 64.4909 29.3004C64.5629 29.3644 64.5989 29.4484 64.5989 29.5524V30.5244C64.5989 30.6284 64.5629 30.7164 64.4909 30.7884C64.4189 30.8524 64.3309 30.8844 64.2269 30.8844H63.2669C63.1709 30.8844 63.0869 30.8524 63.0149 30.7884C62.9429 30.7164 62.9069 30.6284 62.9069 30.5244V29.8404H59.1269V31.4124H63.1229C63.2269 31.4124 63.3109 31.4484 63.3749 31.5204C63.4469 31.5924 63.4829 31.6764 63.4829 31.7724V32.5164H64.2269C64.3309 32.5164 64.4189 32.5524 64.4909 32.6244C64.5629 32.6964 64.5989 32.7844 64.5989 32.8884V36.1404C64.5989 36.2364 64.5629 36.3204 64.4909 36.3924C64.4189 36.4644 64.3309 36.5004 64.2269 36.5004H63.5669V37.1844C63.5669 37.2804 63.5309 37.3644 63.4589 37.4364C63.3869 37.5084 63.3029 37.5444 63.2069 37.5444H58.8269C58.7229 37.5444 58.6349 37.5084 58.5629 37.4364C58.4989 37.3644 58.4669 37.2804 58.4669 37.1844V36.4404H57.7229C57.6189 36.4404 57.5309 36.4044 57.4589 36.3324C57.3869 36.2604 57.3509 36.1764 57.3509 36.0804V35.0964C57.3509 35.0004 57.3869 34.9164 57.4589 34.8444C57.5309 34.7724 57.6189 34.7364 57.7229 34.7364H58.6949C58.7909 34.7364 58.8749 34.7724 58.9469 34.8444C59.0189 34.9164 59.0549 35.0004 59.0549 35.0964V35.7804H62.8349V33.1044H58.8269C58.7229 33.1044 58.6349 33.0684 58.5629 32.9964C58.4989 32.9244 58.4669 32.8404 58.4669 32.7444V32.0004H57.7229C57.6189 32.0004 57.5309 31.9644 57.4589 31.8924C57.3869 31.8204 57.3509 31.7324 57.3509 31.6284V29.4804C57.3509 29.3844 57.3869 29.3004 57.4589 29.2284C57.5309 29.1564 57.6189 29.1204 57.7229 29.1204ZM66.1839 28.0764H67.2159C67.3199 28.0764 67.4079 28.1124 67.4799 28.1844C67.5519 28.2564 67.5879 28.3444 67.5879 28.4484V31.2684H71.2959V28.4484C71.2959 28.3444 71.3319 28.2564 71.4039 28.1844C71.4759 28.1124 71.5639 28.0764 71.6679 28.0764H72.6879C72.7919 28.0764 72.8799 28.1124 72.9519 28.1844C73.0239 28.2564 73.0599 28.3444 73.0599 28.4484V37.1844C73.0599 37.2804 73.0239 37.3644 72.9519 37.4364C72.8799 37.5084 72.7919 37.5444 72.6879 37.5444H71.6679C71.5639 37.5444 71.4759 37.5084 71.4039 37.4364C71.3319 37.3644 71.2959 37.2804 71.2959 37.1844V33.2484H67.5879V37.1844C67.5879 37.2804 67.5519 37.3644 67.4799 37.4364C67.4079 37.5084 67.3199 37.5444 67.2159 37.5444H66.1839C66.0799 37.5444 65.9919 37.5084 65.9199 37.4364C65.8479 37.3644 65.8119 37.2804 65.8119 37.1844V28.4484C65.8119 28.3444 65.8479 28.2564 65.9199 28.1844C65.9919 28.1124 66.0799 28.0764 66.1839 28.0764ZM74.7503 28.0764H75.7823C75.8863 28.0764 75.9743 28.1124 76.0463 28.1844C76.1183 28.2564 76.1543 28.3444 76.1543 28.4484V31.2684H76.5383V30.5964C76.5383 30.4924 76.5703 30.4044 76.6343 30.3324C76.7063 30.2604 76.7943 30.2244 76.8983 30.2244H77.6423V29.4804C77.6423 29.3844 77.6783 29.3004 77.7503 29.2284C77.8223 29.1564 77.9063 29.1204 78.0023 29.1204H78.7463V28.4484C78.7463 28.3444 78.7823 28.2564 78.8543 28.1844C78.9263 28.1124 79.0103 28.0764 79.1063 28.0764H80.1503C80.2543 28.0764 80.3383 28.1124 80.4023 28.1844C80.4743 28.2564 80.5103 28.3444 80.5103 28.4484V29.4804C80.5103 29.5844 80.4743 29.6724 80.4023 29.7444C80.3383 29.8084 80.2543 29.8404 80.1503 29.8404H79.4663V30.5964C79.4663 30.6924 79.4303 30.7764 79.3583 30.8484C79.2943 30.9204 79.2103 30.9564 79.1063 30.9564H78.3623V31.7004C78.3623 31.7964 78.3263 31.8804 78.2543 31.9524C78.1823 32.0244 78.0983 32.0604 78.0023 32.0604H77.2583V32.5164H77.9423C78.0383 32.5164 78.1223 32.5524 78.1943 32.6244C78.2663 32.6964 78.3023 32.7844 78.3023 32.8884V33.6324H79.0463C79.1423 33.6324 79.2263 33.6684 79.2983 33.7404C79.3703 33.8044 79.4063 33.8884 79.4063 33.9924V34.7364H80.1503C80.2543 34.7364 80.3383 34.7724 80.4023 34.8444C80.4743 34.9164 80.5103 35.0004 80.5103 35.0964V35.8404H81.2543C81.3583 35.8404 81.4463 35.8764 81.5183 35.9484C81.5903 36.0204 81.6263 36.1084 81.6263 36.2124V37.1844C81.6263 37.2804 81.5903 37.3644 81.5183 37.4364C81.4463 37.5084 81.3583 37.5444 81.2543 37.5444H80.2943C80.1983 37.5444 80.1143 37.5084 80.0423 37.4364C79.9703 37.3644 79.9343 37.2804 79.9343 37.1844V36.4404H79.1903C79.0863 36.4404 78.9983 36.4044 78.9263 36.3324C78.8623 36.2604 78.8303 36.1764 78.8303 36.0804V35.3244H78.0623C77.9663 35.3244 77.8823 35.2924 77.8103 35.2284C77.7383 35.1564 77.7023 35.0684 77.7023 34.9644V34.2204H76.9583C76.8623 34.2204 76.7783 34.1844 76.7063 34.1124C76.6343 34.0404 76.5983 33.9564 76.5983 33.8604V33.1764H76.1543V37.1844C76.1543 37.2804 76.1183 37.3644 76.0463 37.4364C75.9743 37.5084 75.8863 37.5444 75.7823 37.5444H74.7503C74.6463 37.5444 74.5583 37.5084 74.4863 37.4364C74.4143 37.3644 74.3783 37.2804 74.3783 37.1844V28.4484C74.3783 28.3444 74.4143 28.2564 74.4863 28.1844C74.5583 28.1124 74.6463 28.0764 74.7503 28.0764ZM82.6942 35.7804H84.4222V29.8404H82.6942C82.5982 29.8404 82.5142 29.8084 82.4422 29.7444C82.3702 29.6724 82.3342 29.5844 82.3342 29.4804V28.4484C82.3342 28.3444 82.3702 28.2564 82.4422 28.1844C82.5142 28.1124 82.5982 28.0764 82.6942 28.0764H88.1062C88.2022 28.0764 88.2862 28.1124 88.3582 28.1844C88.4302 28.2564 88.4662 28.3444 88.4662 28.4484V29.4804C88.4662 29.5844 88.4302 29.6724 88.3582 29.7444C88.2862 29.8084 88.2022 29.8404 88.1062 29.8404H86.3902V35.7804H88.1062C88.2022 35.7804 88.2862 35.8164 88.3582 35.8884C88.4302 35.9604 88.4662 36.0444 88.4662 36.1404V37.1844C88.4662 37.2804 88.4302 37.3644 88.3582 37.4364C88.2862 37.5084 88.2022 37.5444 88.1062 37.5444H82.6942C82.5982 37.5444 82.5142 37.5084 82.4422 37.4364C82.3702 37.3644 82.3342 37.2804 82.3342 37.1844V36.1404C82.3342 36.0444 82.3702 35.9604 82.4422 35.8884C82.5142 35.8164 82.5982 35.7804 82.6942 35.7804ZM89.9143 28.0764H95.3143C95.4183 28.0764 95.5023 28.1124 95.5663 28.1844C95.6383 28.2564 95.6743 28.3444 95.6743 28.4484V29.1924H96.4183C96.5223 29.1924 96.6103 29.2284 96.6823 29.3004C96.7543 29.3644 96.7903 29.4484 96.7903 29.5524V32.8164C96.7903 32.9204 96.7543 33.0084 96.6823 33.0804C96.6103 33.1444 96.5223 33.1764 96.4183 33.1764H95.7583V33.9204C95.7583 34.0244 95.7223 34.1124 95.6503 34.1844C95.5783 34.2564 95.4943 34.2924 95.3983 34.2924H91.3183V37.1844C91.3183 37.2804 91.2823 37.3644 91.2103 37.4364C91.1383 37.5084 91.0503 37.5444 90.9463 37.5444H89.9143C89.8103 37.5444 89.7223 37.5084 89.6503 37.4364C89.5783 37.3644 89.5423 37.2804 89.5423 37.1844V28.4484C89.5423 28.3444 89.5783 28.2564 89.6503 28.1844C89.7223 28.1124 89.8103 28.0764 89.9143 28.0764ZM91.3783 32.3844H95.0263V29.8404H91.3783V32.3844ZM98.0706 28.0764H104.575C104.679 28.0764 104.767 28.1124 104.839 28.1844C104.911 28.2564 104.947 28.3444 104.947 28.4484V29.4804C104.947 29.5844 104.911 29.6724 104.839 29.7444C104.767 29.8084 104.679 29.8404 104.575 29.8404H99.5346V31.7004H102.367C102.463 31.7004 102.547 31.7364 102.619 31.8084C102.691 31.8724 102.727 31.9564 102.727 32.0604V33.1764C102.727 33.2804 102.691 33.3684 102.619 33.4404C102.547 33.5044 102.463 33.5364 102.367 33.5364H99.5346V35.7804H104.575C104.679 35.7804 104.767 35.8164 104.839 35.8884C104.911 35.9604 104.947 36.0444 104.947 36.1404V37.1844C104.947 37.2804 104.911 37.3644 104.839 37.4364C104.767 37.5084 104.679 37.5444 104.575 37.5444H98.0706C97.9666 37.5444 97.8786 37.5084 97.8066 37.4364C97.7346 37.3644 97.6986 37.2804 97.6986 37.1844V28.4484C97.6986 28.3444 97.7346 28.2564 97.8066 28.1844C97.8786 28.1124 97.9666 28.0764 98.0706 28.0764ZM106.121 28.0764H111.521C111.625 28.0764 111.709 28.1124 111.773 28.1844C111.845 28.2564 111.881 28.3444 111.881 28.4484V29.1924H112.625C112.729 29.1924 112.817 29.2284 112.889 29.3004C112.961 29.3644 112.997 29.4484 112.997 29.5524V32.8164C112.997 32.9204 112.961 33.0084 112.889 33.0804C112.817 33.1444 112.729 33.1764 112.625 33.1764H111.965V33.9204C111.965 34.0244 111.929 34.1124 111.857 34.1844C111.785 34.2564 111.701 34.2924 111.605 34.2924H110.837V34.7364H111.521C111.625 34.7364 111.709 34.7724 111.773 34.8444C111.845 34.9164 111.881 35.0004 111.881 35.0964V35.8404H112.625C112.729 35.8404 112.817 35.8764 112.889 35.9484C112.961 36.0204 112.997 36.1084 112.997 36.2124V37.1844C112.997 37.2804 112.961 37.3644 112.889 37.4364C112.817 37.5084 112.729 37.5444 112.625 37.5444H111.665C111.569 37.5444 111.485 37.5084 111.413 37.4364C111.341 37.3644 111.305 37.2804 111.305 37.1844V36.4404H110.561C110.457 36.4404 110.369 36.4044 110.297 36.3324C110.233 36.2604 110.201 36.1764 110.201 36.0804V35.3244H109.373C109.277 35.3244 109.193 35.2924 109.121 35.2284C109.049 35.1564 109.013 35.0684 109.013 34.9644V34.3524H107.525V37.1844C107.525 37.2804 107.489 37.3644 107.417 37.4364C107.345 37.5084 107.257 37.5444 107.153 37.5444H106.121C106.017 37.5444 105.929 37.5084 105.857 37.4364C105.785 37.3644 105.749 37.2804 105.749 37.1844V28.4484C105.749 28.3444 105.785 28.2564 105.857 28.1844C105.929 28.1124 106.017 28.0764 106.121 28.0764ZM107.585 32.3844H111.233V29.8404H107.585V32.3844Z" fill="#004D94"/>
</g>
<defs>
<filter id="filter0_ddddii_8415_670" x="0.695312" y="0.544434" width="142" height="68" filterUnits="userSpaceOnUse" color-interpolation-filters="sRGB">
<feFlood flood-opacity="0" result="BackgroundImageFix"/>
<feColorMatrix in="SourceAlpha" type="matrix" values="0 0 0 0 0 0 0 0 0 0 0 0 0 0 0 0 0 0 127 0" result="hardAlpha"/>
<feOffset dx="5" dy="5"/>
<feGaussianBlur stdDeviation="6.5"/>
<feColorMatrix type="matrix" values="0 0 0 0 0 0 0 0 0 0.678431 0 0 0 0 0.435294 0 0 0 0.9 0"/>
<feBlend mode="normal" in2="BackgroundImageFix" result="effect1_dropShadow_8415_670"/>
<feColorMatrix in="SourceAlpha" type="matrix" values="0 0 0 0 0 0 0 0 0 0 0 0 0 0 0 0 0 0 127 0" result="hardAlpha"/>
<feOffset dx="-5" dy="-5"/>
<feGaussianBlur stdDeviation="5"/>
<feColorMatrix type="matrix" values="0 0 0 0 0 0 0 0 0 1 0 0 0 0 0.843137 0 0 0 0.9 0"/>
<feBlend mode="normal" in2="effect1_dropShadow_8415_670" result="effect2_dropShadow_8415_670"/>
<feColorMatrix in="SourceAlpha" type="matrix" values="0 0 0 0 0 0 0 0 0 0 0 0 0 0 0 0 0 0 127 0" result="hardAlpha"/>
<feOffset dx="5" dy="-5"/>
<feGaussianBlur stdDeviation="5"/>
<feColorMatrix type="matrix" values="0 0 0 0 0 0 0 0 0 0.678431 0 0 0 0 0.435294 0 0 0 0.2 0"/>
<feBlend mode="normal" in2="effect2_dropShadow_8415_670" result="effect3_dropShadow_8415_670"/>
<feColorMatrix in="SourceAlpha" type="matrix" values="0 0 0 0 0 0 0 0 0 0 0 0 0 0 0 0 0 0 127 0" result="hardAlpha"/>
<feOffset dx="-5" dy="5"/>
<feGaussianBlur stdDeviation="5"/>
<feColorMatrix type="matrix" values="0 0 0 0 0 0 0 0 0 0.678431 0 0 0 0 0.435294 0 0 0 0.2 0"/>
<feBlend mode="normal" in2="effect3_dropShadow_8415_670" result="effect4_dropShadow_8415_670"/>
<feBlend mode="normal" in="SourceGraphic" in2="effect4_dropShadow_8415_670" result="shape"/>
<feColorMatrix in="SourceAlpha" type="matrix" values="0 0 0 0 0 0 0 0 0 0 0 0 0 0 0 0 0 0 127 0" result="hardAlpha"/>
<feOffset dx="-1" dy="-1"/>
<feGaussianBlur stdDeviation="1"/>
<feComposite in2="hardAlpha" operator="arithmetic" k2="-1" k3="1"/>
<feColorMatrix type="matrix" values="0 0 0 0 0 0 0 0 0 0.678431 0 0 0 0 0.435294 0 0 0 0.5 0"/>
<feBlend mode="normal" in2="shape" result="effect5_innerShadow_8415_670"/>
<feColorMatrix in="SourceAlpha" type="matrix" values="0 0 0 0 0 0 0 0 0 0 0 0 0 0 0 0 0 0 127 0" result="hardAlpha"/>
<feOffset dx="1" dy="1"/>
<feGaussianBlur stdDeviation="1"/>
<feComposite in2="hardAlpha" operator="arithmetic" k2="-1" k3="1"/>
<feColorMatrix type="matrix" values="0 0 0 0 0 0 0 0 0 1 0 0 0 0 0.843137 0 0 0 0.3 0"/>
<feBlend mode="normal" in2="effect5_innerShadow_8415_670" result="effect6_innerShadow_8415_670"/>
</filter>
</defs>
</svg>
