<svg width="177" height="69" viewBox="0 0 177 69" fill="none" xmlns="http://www.w3.org/2000/svg">
<g filter="url(#filter0_ddddii_7_815)">
<rect x="15" y="15.8071" width="144" height="35" rx="17.5" fill="white"/>
<path d="M63.512 29.3831H64.184V28.7111C64.184 28.6071 64.22 28.5191 64.292 28.4471C64.364 28.3751 64.448 28.3391 64.544 28.3391H68.912C69.016 28.3391 69.1 28.3751 69.164 28.4471C69.236 28.5191 69.272 28.6071 69.272 28.7111V29.4551H70.016C70.12 29.4551 70.208 29.4911 70.28 29.5631C70.352 29.6271 70.388 29.7111 70.388 29.8151V30.7871C70.388 30.8911 70.352 30.9791 70.28 31.0511C70.208 31.1151 70.12 31.1471 70.016 31.1471H69.056C68.96 31.1471 68.876 31.1151 68.804 31.0511C68.732 30.9791 68.696 30.8911 68.696 30.7871V30.1031H64.916V36.0431H68.624V35.3591C68.624 35.2631 68.66 35.1791 68.732 35.1071C68.804 35.0351 68.892 34.9991 68.996 34.9991H70.016C70.12 34.9991 70.208 35.0351 70.28 35.1071C70.352 35.1791 70.388 35.2631 70.388 35.3591V36.4031C70.388 36.4991 70.352 36.5831 70.28 36.6551C70.208 36.7271 70.12 36.7631 70.016 36.7631H69.356V37.4471C69.356 37.5431 69.32 37.6271 69.248 37.6991C69.176 37.7711 69.092 37.8071 68.996 37.8071H64.616C64.512 37.8071 64.424 37.7711 64.352 37.6991C64.288 37.6271 64.256 37.5431 64.256 37.4471V36.7031H63.512C63.408 36.7031 63.32 36.6671 63.248 36.5951C63.176 36.5231 63.14 36.4391 63.14 36.3431V29.7431C63.14 29.6471 63.176 29.5631 63.248 29.4911C63.32 29.4191 63.408 29.3831 63.512 29.3831ZM71.5862 29.3831H72.2582V28.7111C72.2582 28.6071 72.2942 28.5191 72.3662 28.4471C72.4382 28.3751 72.5222 28.3391 72.6182 28.3391H76.9862C77.0902 28.3391 77.1742 28.3751 77.2382 28.4471C77.3102 28.5191 77.3462 28.6071 77.3462 28.7111V29.4551H78.0902C78.1942 29.4551 78.2822 29.4911 78.3542 29.5631C78.4262 29.6271 78.4622 29.7111 78.4622 29.8151V37.4471C78.4622 37.5431 78.4262 37.6271 78.3542 37.6991C78.2822 37.7711 78.1942 37.8071 78.0902 37.8071H77.0702C76.9662 37.8071 76.8782 37.7711 76.8062 37.6991C76.7342 37.6271 76.6982 37.5431 76.6982 37.4471V34.6151H72.9902V37.4471C72.9902 37.5431 72.9542 37.6271 72.8822 37.6991C72.8102 37.7711 72.7222 37.8071 72.6182 37.8071H71.5862C71.4822 37.8071 71.3942 37.7711 71.3222 37.6991C71.2502 37.6271 71.2142 37.5431 71.2142 37.4471V29.7431C71.2142 29.6471 71.2502 29.5631 71.3222 29.4911C71.3942 29.4191 71.4822 29.3831 71.5862 29.3831ZM73.0502 32.6471H76.6982V30.1031H73.0502V32.6471ZM85.2412 34.5551H84.5692C84.4652 34.5551 84.3772 34.5191 84.3052 34.4471C84.2412 34.3751 84.2092 34.2871 84.2092 34.1831V33.3671H83.4412C83.3452 33.3671 83.2612 33.3311 83.1892 33.2591C83.1172 33.1871 83.0812 33.1031 83.0812 33.0071V32.2631H82.3372C82.2412 32.2631 82.1572 32.2271 82.0852 32.1551C82.0132 32.0831 81.9772 31.9951 81.9772 31.8911V31.2191H81.5332V37.4471C81.5332 37.5431 81.4972 37.6271 81.4252 37.6991C81.3532 37.7711 81.2652 37.8071 81.1612 37.8071H80.1292C80.0252 37.8071 79.9372 37.7711 79.8652 37.6991C79.7932 37.6271 79.7572 37.5431 79.7572 37.4471V28.7111C79.7572 28.6071 79.7932 28.5191 79.8652 28.4471C79.9372 28.3751 80.0252 28.3391 80.1292 28.3391H81.1612C81.2652 28.3391 81.3532 28.3751 81.4252 28.4471C81.4972 28.5191 81.5332 28.6071 81.5332 28.7111V29.3831H82.2052C82.3092 29.3831 82.3932 29.4191 82.4572 29.4911C82.5292 29.5631 82.5652 29.6471 82.5652 29.7431V30.5711H83.3212C83.4172 30.5711 83.5012 30.6071 83.5732 30.6791C83.6452 30.7511 83.6812 30.8351 83.6812 30.9311V31.6751H84.4252C84.5212 31.6751 84.6052 31.7111 84.6772 31.7831C84.7492 31.8551 84.7852 31.9391 84.7852 32.0351V32.7191H85.2412V28.7111C85.2412 28.6071 85.2772 28.5191 85.3492 28.4471C85.4212 28.3751 85.5092 28.3391 85.6132 28.3391H86.6332C86.7372 28.3391 86.8252 28.3751 86.8972 28.4471C86.9692 28.5191 87.0052 28.6071 87.0052 28.7111V37.4471C87.0052 37.5431 86.9692 37.6271 86.8972 37.6991C86.8252 37.7711 86.7372 37.8071 86.6332 37.8071H85.6132C85.5092 37.8071 85.4212 37.7711 85.3492 37.6991C85.2772 37.6271 85.2412 37.5431 85.2412 37.4471V34.5551ZM88.6487 29.3831H89.3207V28.7111C89.3207 28.6071 89.3567 28.5191 89.4287 28.4471C89.5007 28.3751 89.5847 28.3391 89.6807 28.3391H94.0487C94.1527 28.3391 94.2367 28.3751 94.3007 28.4471C94.3727 28.5191 94.4087 28.6071 94.4087 28.7111V29.4551H95.1527C95.2567 29.4551 95.3447 29.4911 95.4167 29.5631C95.4887 29.6271 95.5247 29.7111 95.5247 29.8151V30.7871C95.5247 30.8911 95.4887 30.9791 95.4167 31.0511C95.3447 31.1151 95.2567 31.1471 95.1527 31.1471H94.1927C94.0967 31.1471 94.0127 31.1151 93.9407 31.0511C93.8687 30.9791 93.8327 30.8911 93.8327 30.7871V30.1031H90.0527V36.0431H93.7607V35.3591C93.7607 35.2631 93.7967 35.1791 93.8687 35.1071C93.9407 35.0351 94.0287 34.9991 94.1327 34.9991H95.1527C95.2567 34.9991 95.3447 35.0351 95.4167 35.1071C95.4887 35.1791 95.5247 35.2631 95.5247 35.3591V36.4031C95.5247 36.4991 95.4887 36.5831 95.4167 36.6551C95.3447 36.7271 95.2567 36.7631 95.1527 36.7631H94.4927V37.4471C94.4927 37.5431 94.4567 37.6271 94.3847 37.6991C94.3127 37.7711 94.2287 37.8071 94.1327 37.8071H89.7527C89.6487 37.8071 89.5607 37.7711 89.4887 37.6991C89.4247 37.6271 89.3927 37.5431 89.3927 37.4471V36.7031H88.6487C88.5447 36.7031 88.4567 36.6671 88.3847 36.5951C88.3127 36.5231 88.2767 36.4391 88.2767 36.3431V29.7431C88.2767 29.6471 88.3127 29.5631 88.3847 29.4911C88.4567 29.4191 88.5447 29.3831 88.6487 29.3831ZM96.7464 28.3391H103.25C103.354 28.3391 103.442 28.3751 103.514 28.4471C103.586 28.5191 103.622 28.6071 103.622 28.7111V29.7431C103.622 29.8471 103.586 29.9351 103.514 30.0071C103.442 30.0711 103.354 30.1031 103.25 30.1031H98.2104V31.9631H101.042C101.138 31.9631 101.222 31.9991 101.294 32.0711C101.366 32.1351 101.402 32.2191 101.402 32.3231V33.4391C101.402 33.5431 101.366 33.6311 101.294 33.7031C101.222 33.7671 101.138 33.7991 101.042 33.7991H98.2104V36.0431H103.25C103.354 36.0431 103.442 36.0791 103.514 36.1511C103.586 36.2231 103.622 36.3071 103.622 36.4031V37.4471C103.622 37.5431 103.586 37.6271 103.514 37.6991C103.442 37.7711 103.354 37.8071 103.25 37.8071H96.7464C96.6424 37.8071 96.5544 37.7711 96.4824 37.6991C96.4104 37.6271 96.3744 37.5431 96.3744 37.4471V28.7111C96.3744 28.6071 96.4104 28.5191 96.4824 28.4471C96.5544 28.3751 96.6424 28.3391 96.7464 28.3391ZM104.784 28.3391H105.828C105.924 28.3391 106.008 28.3751 106.08 28.4471C106.152 28.5191 106.188 28.6071 106.188 28.7111V36.0431H110.196C110.292 36.0431 110.376 36.0791 110.448 36.1511C110.52 36.2231 110.556 36.3071 110.556 36.4031V37.4471C110.556 37.5431 110.52 37.6271 110.448 37.6991C110.376 37.7711 110.292 37.8071 110.196 37.8071H104.784C104.688 37.8071 104.604 37.7711 104.532 37.6991C104.46 37.6271 104.424 37.5431 104.424 37.4471V28.7111C104.424 28.6071 104.46 28.5191 104.532 28.4471C104.604 28.3751 104.688 28.3391 104.784 28.3391Z" fill="#004D94"/>
</g>
<defs>
<filter id="filter0_ddddii_7_815" x="0" y="0.807129" width="177" height="68" filterUnits="userSpaceOnUse" color-interpolation-filters="sRGB">
<feFlood flood-opacity="0" result="BackgroundImageFix"/>
<feColorMatrix in="SourceAlpha" type="matrix" values="0 0 0 0 0 0 0 0 0 0 0 0 0 0 0 0 0 0 127 0" result="hardAlpha"/>
<feOffset dx="5" dy="5"/>
<feGaussianBlur stdDeviation="6.5"/>
<feColorMatrix type="matrix" values="0 0 0 0 0.337255 0 0 0 0 0.760784 0 0 0 0 0.901961 0 0 0 0.9 0"/>
<feBlend mode="normal" in2="BackgroundImageFix" result="effect1_dropShadow_7_815"/>
<feColorMatrix in="SourceAlpha" type="matrix" values="0 0 0 0 0 0 0 0 0 0 0 0 0 0 0 0 0 0 127 0" result="hardAlpha"/>
<feOffset dx="-5" dy="-5"/>
<feGaussianBlur stdDeviation="5"/>
<feColorMatrix type="matrix" values="0 0 0 0 0.415686 0 0 0 0 0.929412 0 0 0 0 1 0 0 0 0.9 0"/>
<feBlend mode="normal" in2="effect1_dropShadow_7_815" result="effect2_dropShadow_7_815"/>
<feColorMatrix in="SourceAlpha" type="matrix" values="0 0 0 0 0 0 0 0 0 0 0 0 0 0 0 0 0 0 127 0" result="hardAlpha"/>
<feOffset dx="5" dy="-5"/>
<feGaussianBlur stdDeviation="5"/>
<feColorMatrix type="matrix" values="0 0 0 0 0.337255 0 0 0 0 0.760784 0 0 0 0 0.901961 0 0 0 0.2 0"/>
<feBlend mode="normal" in2="effect2_dropShadow_7_815" result="effect3_dropShadow_7_815"/>
<feColorMatrix in="SourceAlpha" type="matrix" values="0 0 0 0 0 0 0 0 0 0 0 0 0 0 0 0 0 0 127 0" result="hardAlpha"/>
<feOffset dx="-5" dy="5"/>
<feGaussianBlur stdDeviation="5"/>
<feColorMatrix type="matrix" values="0 0 0 0 0.337255 0 0 0 0 0.760784 0 0 0 0 0.901961 0 0 0 0.2 0"/>
<feBlend mode="normal" in2="effect3_dropShadow_7_815" result="effect4_dropShadow_7_815"/>
<feBlend mode="normal" in="SourceGraphic" in2="effect4_dropShadow_7_815" result="shape"/>
<feColorMatrix in="SourceAlpha" type="matrix" values="0 0 0 0 0 0 0 0 0 0 0 0 0 0 0 0 0 0 127 0" result="hardAlpha"/>
<feOffset dx="-1" dy="-1"/>
<feGaussianBlur stdDeviation="1"/>
<feComposite in2="hardAlpha" operator="arithmetic" k2="-1" k3="1"/>
<feColorMatrix type="matrix" values="0 0 0 0 0.337255 0 0 0 0 0.760784 0 0 0 0 0.901961 0 0 0 0.5 0"/>
<feBlend mode="normal" in2="shape" result="effect5_innerShadow_7_815"/>
<feColorMatrix in="SourceAlpha" type="matrix" values="0 0 0 0 0 0 0 0 0 0 0 0 0 0 0 0 0 0 127 0" result="hardAlpha"/>
<feOffset dx="1" dy="1"/>
<feGaussianBlur stdDeviation="1"/>
<feComposite in2="hardAlpha" operator="arithmetic" k2="-1" k3="1"/>
<feColorMatrix type="matrix" values="0 0 0 0 0.415686 0 0 0 0 0.929412 0 0 0 0 1 0 0 0 0.3 0"/>
<feBlend mode="normal" in2="effect5_innerShadow_7_815" result="effect6_innerShadow_7_815"/>
</filter>
</defs>
</svg>
