<svg width="150" height="69" viewBox="0 0 150 69" fill="none" xmlns="http://www.w3.org/2000/svg">
<g filter="url(#filter0_ddddii_8432_1732)">
<rect x="15.1953" y="15.5864" width="116" height="35" rx="17.5" fill="#00FFA3"/>
<path d="M54.7073 29.1624H55.3793V28.4904C55.3793 28.3864 55.4153 28.2984 55.4873 28.2264C55.5593 28.1544 55.6433 28.1184 55.7393 28.1184H60.1073C60.2113 28.1184 60.2953 28.1544 60.3593 28.2264C60.4313 28.2984 60.4673 28.3864 60.4673 28.4904V29.2344H61.2113C61.3153 29.2344 61.4033 29.2704 61.4753 29.3424C61.5473 29.4064 61.5833 29.4904 61.5833 29.5944V30.5664C61.5833 30.6704 61.5473 30.7584 61.4753 30.8304C61.4033 30.8944 61.3153 30.9264 61.2113 30.9264H60.2513C60.1553 30.9264 60.0713 30.8944 59.9993 30.8304C59.9273 30.7584 59.8913 30.6704 59.8913 30.5664V29.8824H56.1113V35.8224H59.8193V35.1384C59.8193 35.0424 59.8553 34.9584 59.9273 34.8864C59.9993 34.8144 60.0873 34.7784 60.1913 34.7784H61.2113C61.3153 34.7784 61.4033 34.8144 61.4753 34.8864C61.5473 34.9584 61.5833 35.0424 61.5833 35.1384V36.1824C61.5833 36.2784 61.5473 36.3624 61.4753 36.4344C61.4033 36.5064 61.3153 36.5424 61.2113 36.5424H60.5513V37.2264C60.5513 37.3224 60.5153 37.4064 60.4433 37.4784C60.3713 37.5504 60.2873 37.5864 60.1913 37.5864H55.8113C55.7073 37.5864 55.6193 37.5504 55.5473 37.4784C55.4833 37.4064 55.4513 37.3224 55.4513 37.2264V36.4824H54.7073C54.6033 36.4824 54.5153 36.4464 54.4433 36.3744C54.3713 36.3024 54.3353 36.2184 54.3353 36.1224V29.5224C54.3353 29.4264 54.3713 29.3424 54.4433 29.2704C54.5153 29.1984 54.6033 29.1624 54.7073 29.1624ZM62.7918 28.1184H63.8358C63.9318 28.1184 64.0158 28.1544 64.0878 28.2264C64.1598 28.2984 64.1958 28.3864 64.1958 28.4904V35.8224H68.2038C68.2998 35.8224 68.3838 35.8584 68.4558 35.9304C68.5278 36.0024 68.5638 36.0864 68.5638 36.1824V37.2264C68.5638 37.3224 68.5278 37.4064 68.4558 37.4784C68.3838 37.5504 68.2998 37.5864 68.2038 37.5864H62.7918C62.6958 37.5864 62.6118 37.5504 62.5398 37.4784C62.4678 37.4064 62.4318 37.3224 62.4318 37.2264V28.4904C62.4318 28.3864 62.4678 28.2984 62.5398 28.2264C62.6118 28.1544 62.6958 28.1184 62.7918 28.1184ZM69.5433 29.1624H70.2153V28.4904C70.2153 28.3864 70.2513 28.2984 70.3233 28.2264C70.3953 28.1544 70.4793 28.1184 70.5753 28.1184H74.9433C75.0473 28.1184 75.1313 28.1544 75.1953 28.2264C75.2673 28.2984 75.3033 28.3864 75.3033 28.4904V29.2344H76.0473C76.1513 29.2344 76.2393 29.2704 76.3113 29.3424C76.3833 29.4064 76.4193 29.4904 76.4193 29.5944V37.2264C76.4193 37.3224 76.3833 37.4064 76.3113 37.4784C76.2393 37.5504 76.1513 37.5864 76.0473 37.5864H75.0273C74.9233 37.5864 74.8353 37.5504 74.7633 37.4784C74.6913 37.4064 74.6553 37.3224 74.6553 37.2264V34.3944H70.9473V37.2264C70.9473 37.3224 70.9113 37.4064 70.8393 37.4784C70.7673 37.5504 70.6793 37.5864 70.5753 37.5864H69.5433C69.4393 37.5864 69.3513 37.5504 69.2793 37.4784C69.2073 37.4064 69.1713 37.3224 69.1713 37.2264V29.5224C69.1713 29.4264 69.2073 29.3424 69.2793 29.2704C69.3513 29.1984 69.4393 29.1624 69.5433 29.1624ZM71.0073 32.4264H74.6553V29.8824H71.0073V32.4264ZM77.827 35.8224H79.555V29.8824H77.827C77.731 29.8824 77.647 29.8504 77.575 29.7864C77.503 29.7144 77.467 29.6264 77.467 29.5224V28.4904C77.467 28.3864 77.503 28.2984 77.575 28.2264C77.647 28.1544 77.731 28.1184 77.827 28.1184H83.239C83.335 28.1184 83.419 28.1544 83.491 28.2264C83.563 28.2984 83.599 28.3864 83.599 28.4904V29.5224C83.599 29.6264 83.563 29.7144 83.491 29.7864C83.419 29.8504 83.335 29.8824 83.239 29.8824H81.523V35.8224H83.239C83.335 35.8224 83.419 35.8584 83.491 35.9304C83.563 36.0024 83.599 36.0864 83.599 36.1824V37.2264C83.599 37.3224 83.563 37.4064 83.491 37.4784C83.419 37.5504 83.335 37.5864 83.239 37.5864H77.827C77.731 37.5864 77.647 37.5504 77.575 37.4784C77.503 37.4064 77.467 37.3224 77.467 37.2264V36.1824C77.467 36.0864 77.503 36.0024 77.575 35.9304C77.647 35.8584 77.731 35.8224 77.827 35.8224ZM90.1592 31.0704H89.7632V31.6704C89.7632 31.7744 89.7272 31.8624 89.6552 31.9344C89.5912 32.0064 89.5072 32.0424 89.4032 32.0424H87.2552C87.1592 32.0424 87.0752 32.0064 87.0032 31.9344C86.9312 31.8624 86.8952 31.7744 86.8952 31.6704V30.9984H86.4512V37.2264C86.4512 37.3224 86.4152 37.4064 86.3432 37.4784C86.2712 37.5504 86.1832 37.5864 86.0792 37.5864H85.0472C84.9432 37.5864 84.8552 37.5504 84.7832 37.4784C84.7112 37.4064 84.6752 37.3224 84.6752 37.2264V28.4904C84.6752 28.3864 84.7112 28.2984 84.7832 28.2264C84.8552 28.1544 84.9432 28.1184 85.0472 28.1184H86.0792C86.1832 28.1184 86.2712 28.1544 86.3432 28.2264C86.4152 28.2984 86.4512 28.3864 86.4512 28.4904V29.1624H87.1232C87.2272 29.1624 87.3112 29.1984 87.3752 29.2704C87.4472 29.3424 87.4832 29.4264 87.4832 29.5224V30.2664H89.0432V29.5224C89.0432 29.4264 89.0792 29.3424 89.1512 29.2704C89.2232 29.1984 89.3072 29.1624 89.4032 29.1624H90.1592V28.4904C90.1592 28.3864 90.1952 28.2984 90.2672 28.2264C90.3392 28.1544 90.4272 28.1184 90.5312 28.1184H91.5512C91.6552 28.1184 91.7432 28.1544 91.8152 28.2264C91.8872 28.2984 91.9232 28.3864 91.9232 28.4904V37.2264C91.9232 37.3224 91.8872 37.4064 91.8152 37.4784C91.7432 37.5504 91.6552 37.5864 91.5512 37.5864H90.5312C90.4272 37.5864 90.3392 37.5504 90.2672 37.4784C90.1952 37.4064 90.1592 37.3224 90.1592 37.2264V31.0704Z" fill="#004D94"/>
</g>
<defs>
<filter id="filter0_ddddii_8432_1732" x="0.195312" y="0.586426" width="149" height="68" filterUnits="userSpaceOnUse" color-interpolation-filters="sRGB">
<feFlood flood-opacity="0" result="BackgroundImageFix"/>
<feColorMatrix in="SourceAlpha" type="matrix" values="0 0 0 0 0 0 0 0 0 0 0 0 0 0 0 0 0 0 127 0" result="hardAlpha"/>
<feOffset dx="5" dy="5"/>
<feGaussianBlur stdDeviation="6.5"/>
<feColorMatrix type="matrix" values="0 0 0 0 0 0 0 0 0 0.678431 0 0 0 0 0.435294 0 0 0 0.9 0"/>
<feBlend mode="normal" in2="BackgroundImageFix" result="effect1_dropShadow_8432_1732"/>
<feColorMatrix in="SourceAlpha" type="matrix" values="0 0 0 0 0 0 0 0 0 0 0 0 0 0 0 0 0 0 127 0" result="hardAlpha"/>
<feOffset dx="-5" dy="-5"/>
<feGaussianBlur stdDeviation="5"/>
<feColorMatrix type="matrix" values="0 0 0 0 0 0 0 0 0 1 0 0 0 0 0.843137 0 0 0 0.9 0"/>
<feBlend mode="normal" in2="effect1_dropShadow_8432_1732" result="effect2_dropShadow_8432_1732"/>
<feColorMatrix in="SourceAlpha" type="matrix" values="0 0 0 0 0 0 0 0 0 0 0 0 0 0 0 0 0 0 127 0" result="hardAlpha"/>
<feOffset dx="5" dy="-5"/>
<feGaussianBlur stdDeviation="5"/>
<feColorMatrix type="matrix" values="0 0 0 0 0 0 0 0 0 0.678431 0 0 0 0 0.435294 0 0 0 0.2 0"/>
<feBlend mode="normal" in2="effect2_dropShadow_8432_1732" result="effect3_dropShadow_8432_1732"/>
<feColorMatrix in="SourceAlpha" type="matrix" values="0 0 0 0 0 0 0 0 0 0 0 0 0 0 0 0 0 0 127 0" result="hardAlpha"/>
<feOffset dx="-5" dy="5"/>
<feGaussianBlur stdDeviation="5"/>
<feColorMatrix type="matrix" values="0 0 0 0 0 0 0 0 0 0.678431 0 0 0 0 0.435294 0 0 0 0.2 0"/>
<feBlend mode="normal" in2="effect3_dropShadow_8432_1732" result="effect4_dropShadow_8432_1732"/>
<feBlend mode="normal" in="SourceGraphic" in2="effect4_dropShadow_8432_1732" result="shape"/>
<feColorMatrix in="SourceAlpha" type="matrix" values="0 0 0 0 0 0 0 0 0 0 0 0 0 0 0 0 0 0 127 0" result="hardAlpha"/>
<feOffset dx="-1" dy="-1"/>
<feGaussianBlur stdDeviation="1"/>
<feComposite in2="hardAlpha" operator="arithmetic" k2="-1" k3="1"/>
<feColorMatrix type="matrix" values="0 0 0 0 0 0 0 0 0 0.678431 0 0 0 0 0.435294 0 0 0 0.5 0"/>
<feBlend mode="normal" in2="shape" result="effect5_innerShadow_8432_1732"/>
<feColorMatrix in="SourceAlpha" type="matrix" values="0 0 0 0 0 0 0 0 0 0 0 0 0 0 0 0 0 0 127 0" result="hardAlpha"/>
<feOffset dx="1" dy="1"/>
<feGaussianBlur stdDeviation="1"/>
<feComposite in2="hardAlpha" operator="arithmetic" k2="-1" k3="1"/>
<feColorMatrix type="matrix" values="0 0 0 0 0 0 0 0 0 1 0 0 0 0 0.843137 0 0 0 0.3 0"/>
<feBlend mode="normal" in2="effect5_innerShadow_8432_1732" result="effect6_innerShadow_8432_1732"/>
</filter>
</defs>
</svg>
