<svg width="380" height="165" viewBox="0 0 380 165" fill="none" xmlns="http://www.w3.org/2000/svg">
<g opacity="0.4" filter="url(#filter0_ddddii_8424_342)">
<path d="M10 47C10 35.799 10 30.1984 12.1799 25.9202C14.0973 22.1569 17.1569 19.0973 20.9202 17.1799C25.1984 15 30.799 15 42 15H338C349.201 15 354.802 15 359.08 17.1799C362.843 19.0973 365.903 22.1569 367.82 25.9202C370 30.1984 370 35.799 370 47V115C370 126.201 370 131.802 367.82 136.08C365.903 139.843 362.843 142.903 359.08 144.82C354.802 147 349.201 147 338 147H42C30.7989 147 25.1984 147 20.9202 144.82C17.1569 142.903 14.0973 139.843 12.1799 136.08C10 131.802 10 126.201 10 115V47Z" fill="#CBF9FF"/>
</g>
<defs>
<filter id="filter0_ddddii_8424_342" x="-5" y="0" width="393" height="165" filterUnits="userSpaceOnUse" color-interpolation-filters="sRGB">
<feFlood flood-opacity="0" result="BackgroundImageFix"/>
<feColorMatrix in="SourceAlpha" type="matrix" values="0 0 0 0 0 0 0 0 0 0 0 0 0 0 0 0 0 0 127 0" result="hardAlpha"/>
<feOffset dx="5" dy="5"/>
<feGaussianBlur stdDeviation="6.5"/>
<feColorMatrix type="matrix" values="0 0 0 0 0.337255 0 0 0 0 0.760784 0 0 0 0 0.901961 0 0 0 0.9 0"/>
<feBlend mode="normal" in2="BackgroundImageFix" result="effect1_dropShadow_8424_342"/>
<feColorMatrix in="SourceAlpha" type="matrix" values="0 0 0 0 0 0 0 0 0 0 0 0 0 0 0 0 0 0 127 0" result="hardAlpha"/>
<feOffset dx="-5" dy="-5"/>
<feGaussianBlur stdDeviation="5"/>
<feColorMatrix type="matrix" values="0 0 0 0 0.415686 0 0 0 0 0.929412 0 0 0 0 1 0 0 0 0.9 0"/>
<feBlend mode="normal" in2="effect1_dropShadow_8424_342" result="effect2_dropShadow_8424_342"/>
<feColorMatrix in="SourceAlpha" type="matrix" values="0 0 0 0 0 0 0 0 0 0 0 0 0 0 0 0 0 0 127 0" result="hardAlpha"/>
<feOffset dx="5" dy="-5"/>
<feGaussianBlur stdDeviation="5"/>
<feColorMatrix type="matrix" values="0 0 0 0 0.337255 0 0 0 0 0.760784 0 0 0 0 0.901961 0 0 0 0.2 0"/>
<feBlend mode="normal" in2="effect2_dropShadow_8424_342" result="effect3_dropShadow_8424_342"/>
<feColorMatrix in="SourceAlpha" type="matrix" values="0 0 0 0 0 0 0 0 0 0 0 0 0 0 0 0 0 0 127 0" result="hardAlpha"/>
<feOffset dx="-5" dy="5"/>
<feGaussianBlur stdDeviation="5"/>
<feColorMatrix type="matrix" values="0 0 0 0 0.337255 0 0 0 0 0.760784 0 0 0 0 0.901961 0 0 0 0.2 0"/>
<feBlend mode="normal" in2="effect3_dropShadow_8424_342" result="effect4_dropShadow_8424_342"/>
<feBlend mode="normal" in="SourceGraphic" in2="effect4_dropShadow_8424_342" result="shape"/>
<feColorMatrix in="SourceAlpha" type="matrix" values="0 0 0 0 0 0 0 0 0 0 0 0 0 0 0 0 0 0 127 0" result="hardAlpha"/>
<feOffset dx="-1" dy="-1"/>
<feGaussianBlur stdDeviation="1"/>
<feComposite in2="hardAlpha" operator="arithmetic" k2="-1" k3="1"/>
<feColorMatrix type="matrix" values="0 0 0 0 0.337255 0 0 0 0 0.760784 0 0 0 0 0.901961 0 0 0 0.5 0"/>
<feBlend mode="normal" in2="shape" result="effect5_innerShadow_8424_342"/>
<feColorMatrix in="SourceAlpha" type="matrix" values="0 0 0 0 0 0 0 0 0 0 0 0 0 0 0 0 0 0 127 0" result="hardAlpha"/>
<feOffset dx="1" dy="1"/>
<feGaussianBlur stdDeviation="1"/>
<feComposite in2="hardAlpha" operator="arithmetic" k2="-1" k3="1"/>
<feColorMatrix type="matrix" values="0 0 0 0 0.415686 0 0 0 0 0.929412 0 0 0 0 1 0 0 0 0.3 0"/>
<feBlend mode="normal" in2="effect5_innerShadow_8424_342" result="effect6_innerShadow_8424_342"/>
</filter>
</defs>
</svg>
