<svg width="105" height="24" viewBox="0 0 105 24" fill="none" xmlns="http://www.w3.org/2000/svg">
<path d="M10.165 4.77922L10.6669 5.13443C11.0567 5.41029 11.5225 5.55844 12 5.55844C12.4776 5.55844 12.9434 5.41029 13.3332 5.13441L13.8351 4.77922C14.5514 4.27225 15.4074 4 16.2849 4H16.8974C17.3016 4 17.7099 4.02549 18.0908 4.16059C20.4735 5.00566 22.1125 8.09503 21.994 15.1026C21.9701 16.5145 21.6397 18.075 20.3658 18.6842C19.9688 18.8741 19.5033 19 18.9733 19C18.3373 19 17.8322 18.8187 17.4424 18.5632C16.5285 17.9642 15.8588 16.9639 14.8888 16.4609C14.3048 16.1581 13.6566 16 12.9989 16H11.0011C10.3434 16 9.69519 16.1581 9.11125 16.4609C8.14122 16.9639 7.47153 17.9642 6.55763 18.5632C6.1678 18.8187 5.66273 19 5.02671 19C4.49667 19 4.03121 18.8741 3.63423 18.6842C2.3603 18.075 2.02992 16.5145 2.00604 15.1026C1.88749 8.09504 3.52645 5.00566 5.90915 4.16059C6.29009 4.02549 6.69838 4 7.10257 4H7.71504C8.59264 4 9.44862 4.27225 10.165 4.77922Z" stroke="white" stroke-width="1.5" stroke-linecap="round"/>
<path opacity="0.5" d="M12 22V19" stroke="white" stroke-width="1.5" stroke-linecap="round"/>
<path d="M10.5 16.5V18C10.5 18.5523 10.9477 19 11.5 19H12.5C13.0523 19 13.5 18.5523 13.5 18V16.5" stroke="white" stroke-width="1.5" stroke-linecap="round"/>
<path opacity="0.5" d="M7.5 9V12M6 10.5L9 10.5" stroke="white" stroke-width="1.5" stroke-linecap="round"/>
<g opacity="0.5">
<path d="M19 10.25C19 10.6642 18.6642 11 18.25 11C17.8358 11 17.5 10.6642 17.5 10.25C17.5 9.83579 17.8358 9.5 18.25 9.5C18.6642 9.5 19 9.83579 19 10.25Z" fill="white"/>
<path d="M16 10.25C16 10.6642 15.6642 11 15.25 11C14.8358 11 14.5 10.6642 14.5 10.25C14.5 9.83579 14.8358 9.5 15.25 9.5C15.6642 9.5 16 9.83579 16 10.25Z" fill="white"/>
<path d="M16.75 8C17.1642 8 17.5 8.33579 17.5 8.75C17.5 9.16421 17.1642 9.5 16.75 9.5C16.3358 9.5 16 9.16421 16 8.75C16 8.33579 16.3358 8 16.75 8Z" fill="white"/>
<path d="M16.75 11C17.1642 11 17.5 11.3358 17.5 11.75C17.5 12.1642 17.1642 12.5 16.75 12.5C16.3358 12.5 16 12.1642 16 11.75C16 11.3358 16.3358 11 16.75 11Z" fill="white"/>
</g>
<path d="M32.26 8.48H32.82V7.92C32.82 7.83333 32.85 7.76 32.91 7.7C32.97 7.64 33.04 7.61 33.12 7.61H36.76C36.8467 7.61 36.9167 7.64 36.97 7.7C37.03 7.76 37.06 7.83333 37.06 7.92V8.54H37.68C37.7667 8.54 37.84 8.57 37.9 8.63C37.96 8.68333 37.99 8.75333 37.99 8.84V9.65C37.99 9.73667 37.96 9.81 37.9 9.87C37.84 9.92333 37.7667 9.95 37.68 9.95H36.88C36.8 9.95 36.73 9.92333 36.67 9.87C36.61 9.81 36.58 9.73667 36.58 9.65V9.08H33.43V14.03H36.52V13.46C36.52 13.38 36.55 13.31 36.61 13.25C36.67 13.19 36.7433 13.16 36.83 13.16H37.68C37.7667 13.16 37.84 13.19 37.9 13.25C37.96 13.31 37.99 13.38 37.99 13.46V14.33C37.99 14.41 37.96 14.48 37.9 14.54C37.84 14.6 37.7667 14.63 37.68 14.63H37.13V15.2C37.13 15.28 37.1 15.35 37.04 15.41C36.98 15.47 36.91 15.5 36.83 15.5H33.18C33.0933 15.5 33.02 15.47 32.96 15.41C32.9067 15.35 32.88 15.28 32.88 15.2V14.58H32.26C32.1733 14.58 32.1 14.55 32.04 14.49C31.98 14.43 31.95 14.36 31.95 14.28V8.78C31.95 8.7 31.98 8.63 32.04 8.57C32.1 8.51 32.1733 8.48 32.26 8.48ZM39.008 7.61H44.428C44.5147 7.61 44.588 7.64 44.648 7.7C44.708 7.76 44.738 7.83333 44.738 7.92V15.2C44.738 15.28 44.708 15.35 44.648 15.41C44.588 15.47 44.5147 15.5 44.428 15.5H39.008C38.9214 15.5 38.848 15.47 38.788 15.41C38.728 15.35 38.698 15.28 38.698 15.2V7.92C38.698 7.83333 38.728 7.76 38.788 7.7C38.848 7.64 38.9214 7.61 39.008 7.61ZM40.228 9.14V13.97H43.208V9.14H40.228ZM50.4067 10.07H50.0767V10.57C50.0767 10.6567 50.0467 10.73 49.9867 10.79C49.9334 10.85 49.8634 10.88 49.7767 10.88H47.9867C47.9067 10.88 47.8367 10.85 47.7767 10.79C47.7167 10.73 47.6867 10.6567 47.6867 10.57V10.01H47.3167V15.2C47.3167 15.28 47.2867 15.35 47.2267 15.41C47.1667 15.47 47.0934 15.5 47.0067 15.5H46.1467C46.0601 15.5 45.9867 15.47 45.9267 15.41C45.8667 15.35 45.8367 15.28 45.8367 15.2V7.92C45.8367 7.83333 45.8667 7.76 45.9267 7.7C45.9867 7.64 46.0601 7.61 46.1467 7.61H47.0067C47.0934 7.61 47.1667 7.64 47.2267 7.7C47.2867 7.76 47.3167 7.83333 47.3167 7.92V8.48H47.8767C47.9634 8.48 48.0334 8.51 48.0867 8.57C48.1467 8.63 48.1767 8.7 48.1767 8.78V9.4H49.4767V8.78C49.4767 8.7 49.5067 8.63 49.5667 8.57C49.6267 8.51 49.6967 8.48 49.7767 8.48H50.4067V7.92C50.4067 7.83333 50.4367 7.76 50.4967 7.7C50.5567 7.64 50.6301 7.61 50.7167 7.61H51.5667C51.6534 7.61 51.7267 7.64 51.7867 7.7C51.8467 7.76 51.8767 7.83333 51.8767 7.92V15.2C51.8767 15.28 51.8467 15.35 51.7867 15.41C51.7267 15.47 51.6534 15.5 51.5667 15.5H50.7167C50.6301 15.5 50.5567 15.47 50.4967 15.41C50.4367 15.35 50.4067 15.28 50.4067 15.2V10.07ZM53.0694 14.03H54.5094V9.08H53.0694C52.9894 9.08 52.9194 9.05333 52.8594 9C52.7994 8.94 52.7694 8.86667 52.7694 8.78V7.92C52.7694 7.83333 52.7994 7.76 52.8594 7.7C52.9194 7.64 52.9894 7.61 53.0694 7.61H57.5794C57.6594 7.61 57.7294 7.64 57.7894 7.7C57.8494 7.76 57.8794 7.83333 57.8794 7.92V8.78C57.8794 8.86667 57.8494 8.94 57.7894 9C57.7294 9.05333 57.6594 9.08 57.5794 9.08H56.1494V14.03H57.5794C57.6594 14.03 57.7294 14.06 57.7894 14.12C57.8494 14.18 57.8794 14.25 57.8794 14.33V15.2C57.8794 15.28 57.8494 15.35 57.7894 15.41C57.7294 15.47 57.6594 15.5 57.5794 15.5H53.0694C52.9894 15.5 52.9194 15.47 52.8594 15.41C52.7994 15.35 52.7694 15.28 52.7694 15.2V14.33C52.7694 14.25 52.7994 14.18 52.8594 14.12C52.9194 14.06 52.9894 14.03 53.0694 14.03ZM63.3462 12.79H62.7862C62.6995 12.79 62.6262 12.76 62.5662 12.7C62.5128 12.64 62.4862 12.5667 62.4862 12.48V11.8H61.8462C61.7662 11.8 61.6962 11.77 61.6362 11.71C61.5762 11.65 61.5462 11.58 61.5462 11.5V10.88H60.9262C60.8462 10.88 60.7762 10.85 60.7162 10.79C60.6562 10.73 60.6262 10.6567 60.6262 10.57V10.01H60.2562V15.2C60.2562 15.28 60.2262 15.35 60.1662 15.41C60.1062 15.47 60.0328 15.5 59.9462 15.5H59.0862C58.9995 15.5 58.9262 15.47 58.8662 15.41C58.8062 15.35 58.7762 15.28 58.7762 15.2V7.92C58.7762 7.83333 58.8062 7.76 58.8662 7.7C58.9262 7.64 58.9995 7.61 59.0862 7.61H59.9462C60.0328 7.61 60.1062 7.64 60.1662 7.7C60.2262 7.76 60.2562 7.83333 60.2562 7.92V8.48H60.8162C60.9028 8.48 60.9728 8.51 61.0262 8.57C61.0862 8.63 61.1162 8.7 61.1162 8.78V9.47H61.7462C61.8262 9.47 61.8962 9.5 61.9562 9.56C62.0162 9.62 62.0462 9.69 62.0462 9.77V10.39H62.6662C62.7462 10.39 62.8162 10.42 62.8762 10.48C62.9362 10.54 62.9662 10.61 62.9662 10.69V11.26H63.3462V7.92C63.3462 7.83333 63.3762 7.76 63.4362 7.7C63.4962 7.64 63.5695 7.61 63.6562 7.61H64.5062C64.5928 7.61 64.6662 7.64 64.7262 7.7C64.7862 7.76 64.8162 7.83333 64.8162 7.92V15.2C64.8162 15.28 64.7862 15.35 64.7262 15.41C64.6662 15.47 64.5928 15.5 64.5062 15.5H63.6562C63.5695 15.5 63.4962 15.47 63.4362 15.41C63.3762 15.35 63.3462 15.28 63.3462 15.2V12.79ZM66.1858 8.48H66.7458V7.92C66.7458 7.83333 66.7758 7.76 66.8358 7.7C66.8958 7.64 66.9658 7.61 67.0458 7.61H70.6858C70.7724 7.61 70.8424 7.64 70.8958 7.7C70.9558 7.76 70.9858 7.83333 70.9858 7.92V8.54H71.6058C71.6924 8.54 71.7658 8.57 71.8258 8.63C71.8858 8.68333 71.9158 8.75333 71.9158 8.84V9.65C71.9158 9.73667 71.8858 9.81 71.8258 9.87C71.7658 9.92333 71.6924 9.95 71.6058 9.95H70.8058C70.7258 9.95 70.6558 9.92333 70.5958 9.87C70.5358 9.81 70.5058 9.73667 70.5058 9.65V9.08H67.3558V14.03H70.3858V12.79H68.9458C68.8658 12.79 68.7958 12.76 68.7358 12.7C68.6758 12.64 68.6458 12.5667 68.6458 12.48V11.62C68.6458 11.5333 68.6758 11.46 68.7358 11.4C68.7958 11.34 68.8658 11.31 68.9458 11.31H71.6058C71.6924 11.31 71.7658 11.34 71.8258 11.4C71.8858 11.46 71.9158 11.5333 71.9158 11.62V14.33C71.9158 14.41 71.8858 14.48 71.8258 14.54C71.7658 14.6 71.6924 14.63 71.6058 14.63H71.0558V15.2C71.0558 15.28 71.0258 15.35 70.9658 15.41C70.9058 15.47 70.8358 15.5 70.7558 15.5H67.1058C67.0191 15.5 66.9458 15.47 66.8858 15.41C66.8324 15.35 66.8058 15.28 66.8058 15.2V14.58H66.1858C66.0991 14.58 66.0258 14.55 65.9658 14.49C65.9058 14.43 65.8758 14.36 65.8758 14.28V8.78C65.8758 8.7 65.9058 8.63 65.9658 8.57C66.0258 8.51 66.0991 8.48 66.1858 8.48ZM76.342 8.48H76.902V7.92C76.902 7.83333 76.932 7.76 76.992 7.7C77.052 7.64 77.122 7.61 77.202 7.61H80.842C80.9287 7.61 80.9987 7.64 81.052 7.7C81.112 7.76 81.142 7.83333 81.142 7.92V8.54H81.762C81.8487 8.54 81.922 8.57 81.982 8.63C82.042 8.68333 82.072 8.75333 82.072 8.84V9.65C82.072 9.73667 82.042 9.81 81.982 9.87C81.922 9.92333 81.8487 9.95 81.762 9.95H80.962C80.882 9.95 80.812 9.92333 80.752 9.87C80.692 9.81 80.662 9.73667 80.662 9.65V9.08H77.512V10.39H80.842C80.9287 10.39 80.9987 10.42 81.052 10.48C81.112 10.54 81.142 10.61 81.142 10.69V11.31H81.762C81.8487 11.31 81.922 11.34 81.982 11.4C82.042 11.46 82.072 11.5333 82.072 11.62V14.33C82.072 14.41 82.042 14.48 81.982 14.54C81.922 14.6 81.8487 14.63 81.762 14.63H81.212V15.2C81.212 15.28 81.182 15.35 81.122 15.41C81.062 15.47 80.992 15.5 80.912 15.5H77.262C77.1754 15.5 77.102 15.47 77.042 15.41C76.9887 15.35 76.962 15.28 76.962 15.2V14.58H76.342C76.2554 14.58 76.182 14.55 76.122 14.49C76.062 14.43 76.032 14.36 76.032 14.28V13.46C76.032 13.38 76.062 13.31 76.122 13.25C76.182 13.19 76.2554 13.16 76.342 13.16H77.152C77.232 13.16 77.302 13.19 77.362 13.25C77.422 13.31 77.452 13.38 77.452 13.46V14.03H80.602V11.8H77.262C77.1754 11.8 77.102 11.77 77.042 11.71C76.9887 11.65 76.962 11.58 76.962 11.5V10.88H76.342C76.2554 10.88 76.182 10.85 76.122 10.79C76.062 10.73 76.032 10.6567 76.032 10.57V8.78C76.032 8.7 76.062 8.63 76.122 8.57C76.182 8.51 76.2554 8.48 76.342 8.48ZM83.3928 7.61H88.8128C88.8995 7.61 88.9728 7.64 89.0328 7.7C89.0928 7.76 89.1228 7.83333 89.1228 7.92V15.2C89.1228 15.28 89.0928 15.35 89.0328 15.41C88.9728 15.47 88.8995 15.5 88.8128 15.5H83.3928C83.3061 15.5 83.2328 15.47 83.1728 15.41C83.1128 15.35 83.0828 15.28 83.0828 15.2V7.92C83.0828 7.83333 83.1128 7.76 83.1728 7.7C83.2328 7.64 83.3061 7.61 83.3928 7.61ZM84.6128 9.14V13.97H87.5928V9.14H84.6128ZM90.5315 7.61H95.9515C96.0382 7.61 96.1115 7.64 96.1715 7.7C96.2315 7.76 96.2615 7.83333 96.2615 7.92V15.2C96.2615 15.28 96.2315 15.35 96.1715 15.41C96.1115 15.47 96.0382 15.5 95.9515 15.5H90.5315C90.4448 15.5 90.3715 15.47 90.3115 15.41C90.2515 15.35 90.2215 15.28 90.2215 15.2V7.92C90.2215 7.83333 90.2515 7.76 90.3115 7.7C90.3715 7.64 90.4448 7.61 90.5315 7.61ZM91.7515 9.14V13.97H94.7315V9.14H91.7515ZM101.93 12.79H101.37C101.283 12.79 101.21 12.76 101.15 12.7C101.097 12.64 101.07 12.5667 101.07 12.48V11.8H100.43C100.35 11.8 100.28 11.77 100.22 11.71C100.16 11.65 100.13 11.58 100.13 11.5V10.88H99.5102C99.4302 10.88 99.3602 10.85 99.3002 10.79C99.2402 10.73 99.2102 10.6567 99.2102 10.57V10.01H98.8402V15.2C98.8402 15.28 98.8102 15.35 98.7502 15.41C98.6902 15.47 98.6168 15.5 98.5302 15.5H97.6702C97.5835 15.5 97.5102 15.47 97.4502 15.41C97.3902 15.35 97.3602 15.28 97.3602 15.2V7.92C97.3602 7.83333 97.3902 7.76 97.4502 7.7C97.5102 7.64 97.5835 7.61 97.6702 7.61H98.5302C98.6168 7.61 98.6902 7.64 98.7502 7.7C98.8102 7.76 98.8402 7.83333 98.8402 7.92V8.48H99.4002C99.4868 8.48 99.5568 8.51 99.6102 8.57C99.6702 8.63 99.7002 8.7 99.7002 8.78V9.47H100.33C100.41 9.47 100.48 9.5 100.54 9.56C100.6 9.62 100.63 9.69 100.63 9.77V10.39H101.25C101.33 10.39 101.4 10.42 101.46 10.48C101.52 10.54 101.55 10.61 101.55 10.69V11.26H101.93V7.92C101.93 7.83333 101.96 7.76 102.02 7.7C102.08 7.64 102.153 7.61 102.24 7.61H103.09C103.177 7.61 103.25 7.64 103.31 7.7C103.37 7.76 103.4 7.83333 103.4 7.92V15.2C103.4 15.28 103.37 15.35 103.31 15.41C103.25 15.47 103.177 15.5 103.09 15.5H102.24C102.153 15.5 102.08 15.47 102.02 15.41C101.96 15.35 101.93 15.28 101.93 15.2V12.79Z" fill="white"/>
</svg>
