<svg width="105" height="43" viewBox="0 0 105 43" fill="none" xmlns="http://www.w3.org/2000/svg">
<line x1="100.88" y1="5.2793" x2="5.11992" y2="5.2793" stroke="white" stroke-width="3"/>
<line x1="5.12012" y1="2.47217" x2="2.50043" y2="2.47217" stroke="white" stroke-width="3"/>
<line x1="103.5" y1="2.47217" x2="100.88" y2="2.47217" stroke="white" stroke-width="3"/>
<g filter="url(#filter0_d_206_168)">
<path d="M5.272 26.5453H6.394V15.6553H5.272C5.08133 15.6553 4.92 15.5966 4.788 15.4793C4.656 15.3473 4.59 15.186 4.59 14.9953V13.1033C4.59 12.9126 4.656 12.7513 4.788 12.6193C4.92 12.4873 5.08133 12.4213 5.272 12.4213H15.172C15.3627 12.4213 15.5167 12.4873 15.634 12.6193C15.766 12.7513 15.832 12.9126 15.832 13.1033V14.4673H17.196C17.3867 14.4673 17.548 14.5333 17.68 14.6653C17.812 14.7826 17.878 14.9366 17.878 15.1273V27.2053C17.878 27.3813 17.812 27.5353 17.68 27.6673C17.548 27.7993 17.3867 27.8653 17.196 27.8653H15.986V29.1193C15.986 29.2953 15.92 29.4493 15.788 29.5813C15.656 29.7133 15.502 29.7793 15.326 29.7793H5.272C5.08133 29.7793 4.92 29.7133 4.788 29.5813C4.656 29.4493 4.59 29.2953 4.59 29.1193V27.2053C4.59 27.0293 4.656 26.8753 4.788 26.7433C4.92 26.6113 5.08133 26.5453 5.272 26.5453ZM9.98 26.4133H14.644V15.6553H9.98V26.4133ZM20.8911 12.4213H32.8151C33.0058 12.4213 33.1671 12.4873 33.2991 12.6193C33.4311 12.7513 33.4971 12.9126 33.4971 13.1033V14.9953C33.4971 15.186 33.4311 15.3473 33.2991 15.4793C33.1671 15.5966 33.0058 15.6553 32.8151 15.6553H23.5751V19.0653H28.7671C28.9431 19.0653 29.0971 19.1313 29.2291 19.2633C29.3611 19.3806 29.4271 19.5346 29.4271 19.7253V21.7713C29.4271 21.962 29.3611 22.1233 29.2291 22.2553C29.0971 22.3726 28.9431 22.4313 28.7671 22.4313H23.5751V26.5453H32.8151C33.0058 26.5453 33.1671 26.6113 33.2991 26.7433C33.4311 26.8753 33.4971 27.0293 33.4971 27.2053V29.1193C33.4971 29.2953 33.4311 29.4493 33.2991 29.5813C33.1671 29.7133 33.0058 29.7793 32.8151 29.7793H20.8911C20.7005 29.7793 20.5391 29.7133 20.4071 29.5813C20.2751 29.4493 20.2091 29.2953 20.2091 29.1193V13.1033C20.2091 12.9126 20.2751 12.7513 20.4071 12.6193C20.5391 12.4873 20.7005 12.4213 20.8911 12.4213ZM38.2603 15.6553H34.9823C34.8063 15.6553 34.6523 15.5966 34.5203 15.4793C34.3883 15.3473 34.3223 15.186 34.3223 14.9953V13.1033C34.3223 12.9126 34.3883 12.7513 34.5203 12.6193C34.6523 12.4873 34.8063 12.4213 34.9823 12.4213H44.9043C45.0803 12.4213 45.2343 12.4873 45.3663 12.6193C45.4983 12.7513 45.5643 12.9126 45.5643 13.1033V14.9953C45.5643 15.186 45.4983 15.3473 45.3663 15.4793C45.2343 15.5966 45.0803 15.6553 44.9043 15.6553H41.6263V29.1193C41.6263 29.2953 41.5603 29.4493 41.4283 29.5813C41.2963 29.7133 41.1423 29.7793 40.9663 29.7793H38.9203C38.7443 29.7793 38.5903 29.7133 38.4583 29.5813C38.3263 29.4493 38.2603 29.2953 38.2603 29.1193V15.6553ZM48.0044 14.3353H49.2364V13.1033C49.2364 12.9126 49.3024 12.7513 49.4344 12.6193C49.5664 12.4873 49.7204 12.4213 49.8964 12.4213H57.9044C58.0951 12.4213 58.2491 12.4873 58.3664 12.6193C58.4984 12.7513 58.5644 12.9126 58.5644 13.1033V14.4673H59.9284C60.1191 14.4673 60.2804 14.5333 60.4124 14.6653C60.5444 14.7826 60.6104 14.9366 60.6104 15.1273V29.1193C60.6104 29.2953 60.5444 29.4493 60.4124 29.5813C60.2804 29.7133 60.1191 29.7793 59.9284 29.7793H58.0584C57.8678 29.7793 57.7064 29.7133 57.5744 29.5813C57.4424 29.4493 57.3764 29.2953 57.3764 29.1193V23.9273H50.5784V29.1193C50.5784 29.2953 50.5124 29.4493 50.3804 29.5813C50.2484 29.7133 50.0871 29.7793 49.8964 29.7793H48.0044C47.8138 29.7793 47.6524 29.7133 47.5204 29.5813C47.3884 29.4493 47.3224 29.2953 47.3224 29.1193V14.9953C47.3224 14.8193 47.3884 14.6653 47.5204 14.5333C47.6524 14.4013 47.8138 14.3353 48.0044 14.3353ZM50.6884 20.3193H57.3764V15.6553H50.6884V20.3193ZM63.1913 26.5453H66.3593V15.6553H63.1913C63.0153 15.6553 62.8613 15.5966 62.7293 15.4793C62.5973 15.3473 62.5313 15.186 62.5313 14.9953V13.1033C62.5313 12.9126 62.5973 12.7513 62.7293 12.6193C62.8613 12.4873 63.0153 12.4213 63.1913 12.4213H73.1133C73.2893 12.4213 73.4433 12.4873 73.5753 12.6193C73.7073 12.7513 73.7733 12.9126 73.7733 13.1033V14.9953C73.7733 15.186 73.7073 15.3473 73.5753 15.4793C73.4433 15.5966 73.2893 15.6553 73.1133 15.6553H69.9673V26.5453H73.1133C73.2893 26.5453 73.4433 26.6113 73.5753 26.7433C73.7073 26.8753 73.7733 27.0293 73.7733 27.2053V29.1193C73.7733 29.2953 73.7073 29.4493 73.5753 29.5813C73.4433 29.7133 73.2893 29.7793 73.1133 29.7793H63.1913C63.0153 29.7793 62.8613 29.7133 62.7293 29.5813C62.5973 29.4493 62.5313 29.2953 62.5313 29.1193V27.2053C62.5313 27.0293 62.5973 26.8753 62.7293 26.7433C62.8613 26.6113 63.0153 26.5453 63.1913 26.5453ZM76.4042 12.4213H78.3182C78.4942 12.4213 78.6482 12.4873 78.7802 12.6193C78.9122 12.7513 78.9782 12.9126 78.9782 13.1033V26.5453H86.3262C86.5022 26.5453 86.6562 26.6113 86.7882 26.7433C86.9202 26.8753 86.9862 27.0293 86.9862 27.2053V29.1193C86.9862 29.2953 86.9202 29.4493 86.7882 29.5813C86.6562 29.7133 86.5022 29.7793 86.3262 29.7793H76.4042C76.2282 29.7793 76.0742 29.7133 75.9422 29.5813C75.8102 29.4493 75.7442 29.2953 75.7442 29.1193V13.1033C75.7442 12.9126 75.8102 12.7513 75.9422 12.6193C76.0742 12.4873 76.2282 12.4213 76.4042 12.4213ZM88.3521 14.3353H89.5841V13.1033C89.5841 12.9126 89.6501 12.7513 89.7821 12.6193C89.9141 12.4873 90.0681 12.4213 90.2441 12.4213H98.2521C98.4427 12.4213 98.5967 12.4873 98.7141 12.6193C98.8461 12.7513 98.9121 12.9126 98.9121 13.1033V14.4673H100.276C100.467 14.4673 100.628 14.5333 100.76 14.6653C100.892 14.7826 100.958 14.9366 100.958 15.1273V16.9093C100.958 17.1 100.892 17.2613 100.76 17.3933C100.628 17.5106 100.467 17.5693 100.276 17.5693H98.5161C98.3401 17.5693 98.1861 17.5106 98.0541 17.3933C97.9221 17.2613 97.8561 17.1 97.8561 16.9093V15.6553H90.9261V18.5373H98.2521C98.4427 18.5373 98.5967 18.6033 98.7141 18.7353C98.8461 18.8673 98.9121 19.0213 98.9121 19.1973V20.5613H100.276C100.467 20.5613 100.628 20.6273 100.76 20.7593C100.892 20.8913 100.958 21.0526 100.958 21.2433V27.2053C100.958 27.3813 100.892 27.5353 100.76 27.6673C100.628 27.7993 100.467 27.8653 100.276 27.8653H99.0661V29.1193C99.0661 29.2953 99.0001 29.4493 98.8681 29.5813C98.7361 29.7133 98.5821 29.7793 98.4061 29.7793H90.3761C90.1854 29.7793 90.0241 29.7133 89.8921 29.5813C89.7747 29.4493 89.7161 29.2953 89.7161 29.1193V27.7553H88.3521C88.1614 27.7553 88.0001 27.6893 87.8681 27.5573C87.7361 27.4253 87.6701 27.2713 87.6701 27.0953V25.2913C87.6701 25.1153 87.7361 24.9613 87.8681 24.8293C88.0001 24.6973 88.1614 24.6313 88.3521 24.6313H90.1341C90.3101 24.6313 90.4641 24.6973 90.5961 24.8293C90.7281 24.9613 90.7941 25.1153 90.7941 25.2913V26.5453H97.7241V21.6393H90.3761C90.1854 21.6393 90.0241 21.5733 89.8921 21.4413C89.7747 21.3093 89.7161 21.1553 89.7161 20.9793V19.6153H88.3521C88.1614 19.6153 88.0001 19.5493 87.8681 19.4173C87.7361 19.2853 87.6701 19.124 87.6701 18.9333V14.9953C87.6701 14.8193 87.7361 14.6653 87.8681 14.5333C88.0001 14.4013 88.1614 14.3353 88.3521 14.3353Z" fill="white"/>
</g>
<line y1="-1.5" x2="95.76" y2="-1.5" transform="matrix(-1 0 0 1 100.88 39.7793)" stroke="white" stroke-width="3"/>
<line y1="-1.5" x2="2.61968" y2="-1.5" transform="matrix(-1 1.26056e-07 6.06299e-08 1 5.12012 42.5864)" stroke="white" stroke-width="3"/>
<line y1="-1.5" x2="2.61969" y2="-1.5" transform="matrix(-1 1.26055e-07 6.06299e-08 1 103.5 42.5864)" stroke="white" stroke-width="3"/>
<defs>
<filter id="filter0_d_206_168" x="0.589844" y="12.4214" width="104.368" height="25.3579" filterUnits="userSpaceOnUse" color-interpolation-filters="sRGB">
<feFlood flood-opacity="0" result="BackgroundImageFix"/>
<feColorMatrix in="SourceAlpha" type="matrix" values="0 0 0 0 0 0 0 0 0 0 0 0 0 0 0 0 0 0 127 0" result="hardAlpha"/>
<feOffset dy="4"/>
<feGaussianBlur stdDeviation="2"/>
<feComposite in2="hardAlpha" operator="out"/>
<feColorMatrix type="matrix" values="0 0 0 0 0.417535 0 0 0 0 0.474062 0 0 0 0 0.770833 0 0 0 0.25 0"/>
<feBlend mode="normal" in2="BackgroundImageFix" result="effect1_dropShadow_206_168"/>
<feBlend mode="normal" in="SourceGraphic" in2="effect1_dropShadow_206_168" result="shape"/>
</filter>
</defs>
</svg>
