<svg width="104" height="104" viewBox="0 0 104 104" fill="none" xmlns="http://www.w3.org/2000/svg">
<g filter="url(#filter0_ddddii_8411_433)">
<path d="M15.5283 47.5444C15.5283 36.3434 15.5283 30.7429 17.7082 26.4646C19.6257 22.7014 22.6853 19.6418 26.4485 17.7243C30.7267 15.5444 36.3273 15.5444 47.5283 15.5444H53.5283C64.7294 15.5444 70.3299 15.5444 74.6081 17.7243C78.3714 19.6418 81.431 22.7014 83.3484 26.4646C85.5283 30.7429 85.5283 36.3434 85.5283 47.5444V53.5444C85.5283 64.7455 85.5283 70.346 83.3484 74.6242C81.431 78.3875 78.3714 81.4471 74.6081 83.3646C70.3299 85.5444 64.7294 85.5444 53.5283 85.5444H47.5283C36.3273 85.5444 30.7267 85.5444 26.4485 83.3646C22.6853 81.4471 19.6257 78.3875 17.7082 74.6242C15.5283 70.346 15.5283 64.7455 15.5283 53.5444V47.5444Z" fill="white"/>
<path d="M50.4574 35.0966C50.8991 35.0966 51.2571 34.7318 51.2571 34.2818V30.6478C51.2571 30.1978 50.8991 29.833 50.4574 29.833C50.0158 29.833 49.6577 30.1978 49.6577 30.6478V34.2818C49.6578 34.7318 50.0158 35.0966 50.4574 35.0966ZM70.0049 57.8245L68.5922 56.3892C68.0897 55.8778 67.4199 55.5961 66.7062 55.5961C66.2498 55.5961 65.8117 55.7118 65.4235 55.9285L62.7614 53.2194L62.8911 53.0874C63.971 51.9849 63.9706 50.1933 62.891 49.0944C62.5109 48.7051 62.0268 48.4383 61.4989 48.3275C61.5722 48.0698 61.6093 47.803 61.6092 47.5348C61.6092 46.7779 61.3206 46.0682 60.7983 45.5382C60.4182 45.1489 59.9341 44.8821 59.4063 44.7712C59.4795 44.5136 59.5166 44.2468 59.5166 43.9785C59.5166 43.2216 59.228 42.512 58.7048 41.9812C58.3243 41.5934 57.8409 41.3275 57.3139 41.2163C57.5868 40.2578 57.3536 39.1794 56.6136 38.4241C55.9975 37.7991 55.1616 37.5305 54.3561 37.6176L49.0808 36.6002C48.2762 36.4447 47.2715 36.3419 46.6373 36.9313C46.5973 36.9685 46.5565 37.0113 46.5163 37.0589C45.5329 36.6937 44.386 36.9112 43.5985 37.7126C43.0761 38.2443 42.7883 38.9536 42.7883 39.7101C42.7883 39.9825 42.8262 40.2486 42.8984 40.5028C42.3715 40.6135 41.8883 40.8796 41.5088 41.2681C40.9854 41.7992 40.6967 42.5078 40.6962 43.2634C40.6958 43.5323 40.733 43.8 40.8065 44.0583C40.2793 44.1688 39.7954 44.4346 39.4152 44.8229C38.8918 45.3556 38.6035 46.0654 38.6035 46.8214C38.6035 47.4005 38.7732 47.9522 39.0876 48.4182C38.6863 48.5569 38.3218 48.788 38.0224 49.0935C36.9417 50.1933 36.9413 51.9849 38.0231 53.0891L38.1523 53.2202L35.4899 55.928C34.5004 55.4533 33.2813 55.6311 32.4647 56.462L31.0512 57.8982C30.5484 58.4098 30.2716 59.0923 30.2715 59.8199C30.2715 60.5476 30.5484 61.2301 31.0512 61.7419L32.8153 63.5371C33.1278 63.8552 33.6342 63.8548 33.9462 63.5365C34.2584 63.2181 34.258 62.7022 33.9456 62.3842L32.1814 60.589C31.9812 60.3852 31.8709 60.1121 31.8709 59.82C31.8709 59.528 31.9812 59.255 32.181 59.0517L33.5946 57.6154C33.9478 57.2559 34.4884 57.2024 34.8989 57.4524C34.9806 57.5779 35.0951 57.6777 35.2293 57.7407L43.3361 65.9883C43.3753 66.0761 43.4296 66.1562 43.4965 66.2247C43.5618 66.2911 43.638 66.3454 43.7216 66.3852C43.894 66.5833 43.9887 66.8392 43.9878 67.104C43.9878 67.3961 43.8775 67.6691 43.6772 67.8729L42.265 69.3101C41.8477 69.7334 41.1689 69.7333 40.7529 69.3114L38.9888 67.5138C38.6765 67.1956 38.1702 67.1956 37.8579 67.5138C37.5456 67.832 37.5456 68.3478 37.8579 68.666L39.6233 70.4649C40.1429 70.9922 40.8254 71.2557 41.5081 71.2557C42.191 71.2557 42.8742 70.9918 43.3944 70.464L44.8075 69.026C45.3103 68.5142 45.5872 67.8317 45.5872 67.104C45.5872 66.5847 45.4455 66.0887 45.1819 65.6611L48.1784 62.6118L48.188 62.6019C48.5311 62.2405 49.4866 62.3081 50.4106 62.3735C51.0672 62.42 51.7991 62.4717 52.5143 62.3877L55.7956 65.727C55.583 66.1219 55.4696 66.5677 55.4696 67.0319C55.4696 67.7588 55.7465 68.4409 56.2493 68.9527L57.6624 70.3907C58.1649 70.9021 58.8347 71.1838 59.5484 71.1838C60.262 71.1838 60.9318 70.9022 61.4344 70.3907L70.0055 61.6685C70.5083 61.1568 70.7852 60.4743 70.7852 59.7467C70.7851 59.0191 70.5082 58.3366 70.0049 57.8245ZM48.783 38.2013L52.252 38.8703L50.1756 40.985C49.8544 40.8278 49.4142 40.5344 48.9312 40.0637C48.2702 39.4194 47.7973 38.6755 47.7543 38.2115C47.7516 38.1848 47.7503 38.1571 47.7506 38.1303C47.8552 38.1044 48.133 38.0756 48.783 38.2013ZM44.7287 38.8656C45.1338 38.4532 45.7632 38.4057 46.221 38.7215C46.4804 39.8297 47.4082 40.8341 47.8257 41.2411C48.135 41.5427 49.1277 42.447 50.1296 42.6955C50.2666 42.8958 50.3397 43.1343 50.3389 43.3785C50.3389 43.6993 50.2178 43.9992 49.9972 44.2238C49.7771 44.4484 49.4823 44.572 49.1669 44.572C48.8514 44.572 48.5566 44.4484 48.3355 44.2227L44.7286 40.5544C44.5087 40.3307 44.3877 40.0308 44.3877 39.7101C44.3877 39.3893 44.5088 39.0894 44.7287 38.8656ZM42.6391 42.4211C42.8591 42.1966 43.1536 42.0729 43.4685 42.0729C43.7838 42.0729 44.0793 42.1968 44.3008 42.4222L47.2048 45.3751C47.6621 45.8418 47.6621 46.6011 47.2064 47.0662C46.9852 47.2907 46.6893 47.4143 46.3733 47.4143C46.0574 47.4143 45.7615 47.2907 45.5413 47.0671L43.3381 44.8229C43.3347 44.8194 43.3309 44.8161 43.3274 44.8126L42.6382 44.1107C42.417 43.8856 42.2953 43.5851 42.2956 43.2646C42.2959 42.9451 42.4172 42.6461 42.6391 42.4211ZM40.5455 45.9758C40.7656 45.7518 41.0608 45.6284 41.3767 45.6284C41.6899 45.6284 41.9825 45.75 42.2018 45.9702L44.4116 48.2207C44.632 48.4443 44.7534 48.7439 44.7534 49.0642C44.7534 49.3845 44.632 49.6841 44.4108 49.9086C44.1906 50.1326 43.8958 50.256 43.5805 50.256C43.2647 50.256 42.9689 50.1323 42.7485 49.9086L40.5455 47.6668C40.3246 47.442 40.203 47.1416 40.203 46.8213C40.203 46.501 40.3246 46.2006 40.5455 45.9758ZM39.1527 50.2464C39.3738 50.0213 39.6694 49.8974 39.9848 49.8974C40.3002 49.8974 40.5957 50.0213 40.8168 50.2462L41.619 51.0626C41.8394 51.2862 41.9608 51.5858 41.9608 51.9061C41.9608 52.2265 41.8394 52.526 41.6173 52.7514C41.3973 52.9759 41.1025 53.0996 40.7871 53.0996C40.4716 53.0996 40.1768 52.976 39.9552 52.7498L39.8547 52.6479C39.8534 52.6465 39.8523 52.645 39.8511 52.6437L39.8464 52.6395L39.1535 51.9362C38.6962 51.4693 38.6958 50.7114 39.1527 50.2464ZM55.4494 59.5065C55.1373 59.1881 54.6309 59.1878 54.3185 59.5058L53.607 60.2298C52.931 60.9186 51.706 60.8319 50.5213 60.7481C49.2349 60.657 47.9046 60.563 47.0438 61.4635L44.0982 64.461L36.7323 56.9671L39.339 54.316C39.7699 54.585 40.2671 54.7293 40.7872 54.7293C41.5304 54.7293 42.2273 54.4358 42.7478 53.9045C43.2718 53.3728 43.5604 52.6632 43.5604 51.9062C43.5604 51.8992 43.5599 51.8922 43.5599 51.8852C43.5668 51.8853 43.5737 51.8857 43.5807 51.8857C44.3228 51.8857 45.0191 51.5931 45.5403 51.0626C46.0643 50.5309 46.3529 49.8213 46.3529 49.0644C46.3529 49.0574 46.3525 49.0504 46.3525 49.0434C46.3594 49.0434 46.3664 49.0439 46.3735 49.0439C47.1154 49.0439 47.8121 48.7515 48.3368 48.2191C48.8815 47.6632 49.151 46.9314 49.1458 46.2011C49.1529 46.2011 49.1601 46.2015 49.1672 46.2015C49.9104 46.2015 50.6072 45.908 51.1285 45.3759C51.6509 44.8443 51.9386 44.1349 51.9386 43.3785C51.9386 42.8495 51.7975 42.3437 51.5342 41.9056L53.819 39.5788C53.9831 39.4121 54.1919 39.2987 54.4192 39.2529C54.443 39.2503 54.4665 39.2464 54.4898 39.2417C54.8428 39.1921 55.2136 39.3031 55.4835 39.5771C55.9408 40.0438 55.9408 40.8032 55.4852 41.2682L54.7894 41.9742C54.7871 41.9766 54.7846 41.9787 54.7823 41.981L53.9809 42.7962C53.6683 43.1142 53.668 43.6301 53.9802 43.9485C54.2924 44.2669 54.7987 44.2671 55.1111 43.9492L55.8097 43.2384L55.9157 43.1307C56.3743 42.6677 57.1172 42.6687 57.5753 43.1348C57.7958 43.3584 57.9172 43.658 57.9172 43.9784C57.9172 44.2987 57.7958 44.5983 57.5736 44.8237L56.8738 45.5381L56.0722 46.3516C55.7592 46.6692 55.7582 47.1851 56.0699 47.5039C56.3815 47.8227 56.8878 47.8237 57.2008 47.5062L58.0058 46.6893C58.2258 46.4647 58.5206 46.3411 58.836 46.3411C59.1515 46.3411 59.4464 46.4647 59.6681 46.6909C59.8885 46.9146 60.0098 47.2142 60.0098 47.5346C60.0098 47.8549 59.8885 48.1545 59.6668 48.3794L58.2716 49.8014C57.9594 50.1197 57.9595 50.6356 58.2718 50.9537C58.346 51.0294 58.4341 51.0895 58.5311 51.1304C58.6281 51.1713 58.7321 51.1923 58.8372 51.1922C59.0419 51.1922 59.2466 51.1126 59.4027 50.9534L60.0864 50.2565C60.0903 50.2527 60.0945 50.2494 60.0984 50.2454C60.3185 50.0208 60.6133 49.8972 60.9287 49.8972C61.2442 49.8972 61.539 50.0208 61.7598 50.2462C62.2167 50.7112 62.2163 51.4693 61.7598 51.9351L61.0646 52.6426L61.0639 52.6433L61.0631 52.6442L59.9597 53.767C59.6473 54.0851 59.6469 54.601 59.959 54.9193C60.0332 54.9952 60.1214 55.0554 60.2185 55.0964C60.3156 55.1374 60.4197 55.1585 60.5248 55.1583C60.7293 55.1583 60.9339 55.0789 61.09 54.9201L61.6297 54.3708L64.2165 57.0033L56.8512 64.4984L54.2123 61.8129C54.402 61.6889 54.5781 61.5446 54.7375 61.3822L55.4486 60.6586C55.7612 60.3408 55.7615 59.8248 55.4494 59.5065ZM68.8751 60.5155L60.304 69.2378C60.1035 69.4418 59.8351 69.5542 59.5483 69.5542C59.2615 69.5542 58.9931 69.4418 58.7925 69.2377L57.3794 67.7996C57.1791 67.5959 57.0688 67.3233 57.0688 67.0319C57.0688 66.7407 57.1791 66.468 57.3794 66.2642L65.9505 57.542C66.151 57.3379 66.4194 57.2255 66.7063 57.2255C66.9931 57.2255 67.2615 57.3379 67.4625 57.5425L68.8752 58.9778C69.0755 59.1816 69.1858 59.4546 69.1858 59.7466C69.1857 60.0388 69.0754 60.3118 68.8751 60.5155ZM39.8386 34.4097C39.9127 34.4853 40.0008 34.5453 40.0977 34.5861C40.1947 34.627 40.2986 34.6479 40.4035 34.6478C40.6083 34.6478 40.8133 34.568 40.9695 34.4085C41.2815 34.09 41.281 33.5742 40.9684 33.2563L38.0543 30.2932C37.7418 29.9753 37.2354 29.9757 36.9234 30.2943C36.6115 30.6128 36.6119 31.1287 36.9246 31.4466L39.8386 34.4097ZM60.5113 34.6478C60.7158 34.6478 60.9204 34.5683 61.0765 34.4095L63.9883 31.4463C64.3007 31.1284 64.3011 30.6124 63.9889 30.2941C63.6768 29.9757 63.1706 29.9754 62.858 30.2934L59.9462 33.2566C59.6338 33.5746 59.6334 34.0905 59.9456 34.4088C60.0198 34.4847 60.108 34.5449 60.205 34.5859C60.3021 34.6269 60.4062 34.6479 60.5113 34.6478Z" fill="#004D94"/>
<path d="M35.189 64.8806C34.8794 65.2015 34.8837 65.7174 35.1987 66.0328L35.201 66.0351C35.3499 66.1847 35.5507 66.2685 35.7598 66.2682C35.9668 66.2682 36.1738 66.1866 36.3307 66.0241C36.6403 65.7032 36.6348 65.1862 36.3199 64.8707C36.005 64.5553 35.4987 64.5597 35.189 64.8806ZM57.4056 58.3325C57.5273 58.3325 57.6507 58.3042 57.7665 58.2448C58.1608 58.0421 58.3193 57.5522 58.1204 57.1504C57.9215 56.7486 57.4406 56.5871 57.0463 56.7898L57.0419 56.7921C56.6475 56.9947 56.4913 57.4836 56.6902 57.8853C56.8306 58.1691 57.1129 58.3325 57.4056 58.3325Z" fill="#004D94"/>
</g>
<defs>
<filter id="filter0_ddddii_8411_433" x="0.52832" y="0.544434" width="103" height="103" filterUnits="userSpaceOnUse" color-interpolation-filters="sRGB">
<feFlood flood-opacity="0" result="BackgroundImageFix"/>
<feColorMatrix in="SourceAlpha" type="matrix" values="0 0 0 0 0 0 0 0 0 0 0 0 0 0 0 0 0 0 127 0" result="hardAlpha"/>
<feOffset dx="5" dy="5"/>
<feGaussianBlur stdDeviation="6.5"/>
<feColorMatrix type="matrix" values="0 0 0 0 0.901961 0 0 0 0 0.901961 0 0 0 0 0.901961 0 0 0 0.9 0"/>
<feBlend mode="normal" in2="BackgroundImageFix" result="effect1_dropShadow_8411_433"/>
<feColorMatrix in="SourceAlpha" type="matrix" values="0 0 0 0 0 0 0 0 0 0 0 0 0 0 0 0 0 0 127 0" result="hardAlpha"/>
<feOffset dx="-5" dy="-5"/>
<feGaussianBlur stdDeviation="5"/>
<feColorMatrix type="matrix" values="0 0 0 0 1 0 0 0 0 1 0 0 0 0 1 0 0 0 0.9 0"/>
<feBlend mode="normal" in2="effect1_dropShadow_8411_433" result="effect2_dropShadow_8411_433"/>
<feColorMatrix in="SourceAlpha" type="matrix" values="0 0 0 0 0 0 0 0 0 0 0 0 0 0 0 0 0 0 127 0" result="hardAlpha"/>
<feOffset dx="5" dy="-5"/>
<feGaussianBlur stdDeviation="5"/>
<feColorMatrix type="matrix" values="0 0 0 0 0.901961 0 0 0 0 0.901961 0 0 0 0 0.901961 0 0 0 0.2 0"/>
<feBlend mode="normal" in2="effect2_dropShadow_8411_433" result="effect3_dropShadow_8411_433"/>
<feColorMatrix in="SourceAlpha" type="matrix" values="0 0 0 0 0 0 0 0 0 0 0 0 0 0 0 0 0 0 127 0" result="hardAlpha"/>
<feOffset dx="-5" dy="5"/>
<feGaussianBlur stdDeviation="5"/>
<feColorMatrix type="matrix" values="0 0 0 0 0.901961 0 0 0 0 0.901961 0 0 0 0 0.901961 0 0 0 0.2 0"/>
<feBlend mode="normal" in2="effect3_dropShadow_8411_433" result="effect4_dropShadow_8411_433"/>
<feBlend mode="normal" in="SourceGraphic" in2="effect4_dropShadow_8411_433" result="shape"/>
<feColorMatrix in="SourceAlpha" type="matrix" values="0 0 0 0 0 0 0 0 0 0 0 0 0 0 0 0 0 0 127 0" result="hardAlpha"/>
<feOffset dx="-1" dy="-1"/>
<feGaussianBlur stdDeviation="1"/>
<feComposite in2="hardAlpha" operator="arithmetic" k2="-1" k3="1"/>
<feColorMatrix type="matrix" values="0 0 0 0 0.901961 0 0 0 0 0.901961 0 0 0 0 0.901961 0 0 0 0.5 0"/>
<feBlend mode="normal" in2="shape" result="effect5_innerShadow_8411_433"/>
<feColorMatrix in="SourceAlpha" type="matrix" values="0 0 0 0 0 0 0 0 0 0 0 0 0 0 0 0 0 0 127 0" result="hardAlpha"/>
<feOffset dx="1" dy="1"/>
<feGaussianBlur stdDeviation="1"/>
<feComposite in2="hardAlpha" operator="arithmetic" k2="-1" k3="1"/>
<feColorMatrix type="matrix" values="0 0 0 0 1 0 0 0 0 1 0 0 0 0 1 0 0 0 0.3 0"/>
<feBlend mode="normal" in2="effect5_innerShadow_8411_433" result="effect6_innerShadow_8411_433"/>
</filter>
</defs>
</svg>
