<svg width="104" height="45" viewBox="0 0 104 45" fill="none" xmlns="http://www.w3.org/2000/svg">
<line x1="99.6016" y1="5.2793" x2="4.78973" y2="5.2793" stroke="white" stroke-width="3"/>
<line x1="4.78906" y1="2.47217" x2="2.19532" y2="2.47217" stroke="white" stroke-width="3"/>
<line x1="102.195" y1="2.47217" x2="99.6016" y2="2.47217" stroke="white" stroke-width="3"/>
<g filter="url(#filter0_d_159_144)">
<path d="M5.09931 12.8433H7.18731C7.37931 12.8433 7.54731 12.9153 7.69131 13.0593C7.83531 13.2033 7.90731 13.3793 7.90731 13.5873V28.2513H15.9233C16.1153 28.2513 16.2833 28.3233 16.4273 28.4673C16.5713 28.6113 16.6433 28.7793 16.6433 28.9713V31.0593C16.6433 31.2513 16.5713 31.4193 16.4273 31.5633C16.2833 31.7073 16.1153 31.7793 15.9233 31.7793H5.09931C4.90731 31.7793 4.73931 31.7073 4.59531 31.5633C4.45131 31.4193 4.37931 31.2513 4.37931 31.0593V13.5873C4.37931 13.3793 4.45131 13.2033 4.59531 13.0593C4.73931 12.9153 4.90731 12.8433 5.09931 12.8433ZM18.649 12.8433H31.657C31.865 12.8433 32.041 12.9153 32.185 13.0593C32.329 13.2033 32.401 13.3793 32.401 13.5873V15.6513C32.401 15.8593 32.329 16.0353 32.185 16.1793C32.041 16.3073 31.865 16.3713 31.657 16.3713H21.577V19.3713H29.641C29.833 19.3713 30.001 19.4433 30.145 19.5873C30.289 19.7153 30.361 19.8833 30.361 20.0913V22.3233C30.361 22.5313 30.289 22.7073 30.145 22.8513C30.001 22.9793 29.833 23.0433 29.641 23.0433H21.577V28.2513H31.657C31.865 28.2513 32.041 28.3233 32.185 28.4673C32.329 28.6113 32.401 28.7793 32.401 28.9713V31.0593C32.401 31.2513 32.329 31.4193 32.185 31.5633C32.041 31.7073 31.865 31.7793 31.657 31.7793H18.649C18.441 31.7793 18.265 31.7073 18.121 31.5633C17.977 31.4193 17.905 31.2513 17.905 31.0593V13.5873C17.905 13.3793 17.977 13.2033 18.121 13.0593C18.265 12.9153 18.441 12.8433 18.649 12.8433ZM34.7037 14.9313H36.0477V13.5873C36.0477 13.3793 36.1197 13.2033 36.2637 13.0593C36.4077 12.9153 36.5757 12.8433 36.7677 12.8433H45.5037C45.7117 12.8433 45.8797 12.9153 46.0077 13.0593C46.1517 13.2033 46.2237 13.3793 46.2237 13.5873V15.0753H47.7117C47.9197 15.0753 48.0957 15.1473 48.2397 15.2913C48.3837 15.4193 48.4557 15.5873 48.4557 15.7953V31.0593C48.4557 31.2513 48.3837 31.4193 48.2397 31.5633C48.0957 31.7073 47.9197 31.7793 47.7117 31.7793H45.6717C45.4637 31.7793 45.2877 31.7073 45.1437 31.5633C44.9997 31.4193 44.9277 31.2513 44.9277 31.0593V25.3953H37.5117V31.0593C37.5117 31.2513 37.4397 31.4193 37.2957 31.5633C37.1517 31.7073 36.9757 31.7793 36.7677 31.7793H34.7037C34.4957 31.7793 34.3197 31.7073 34.1757 31.5633C34.0317 31.4193 33.9597 31.2513 33.9597 31.0593V15.6513C33.9597 15.4593 34.0317 15.2913 34.1757 15.1473C34.3197 15.0033 34.4957 14.9313 34.7037 14.9313ZM37.6317 21.4593H44.9277V16.3713H37.6317V21.4593ZM51.6959 14.9313H53.0399V13.5873C53.0399 13.3793 53.1119 13.2033 53.2559 13.0593C53.3999 12.9153 53.5679 12.8433 53.7599 12.8433H62.4959C62.7039 12.8433 62.8719 12.9153 62.9999 13.0593C63.1439 13.2033 63.2159 13.3793 63.2159 13.5873V15.0753H64.7039C64.9119 15.0753 65.0879 15.1473 65.2319 15.2913C65.3759 15.4193 65.4479 15.5873 65.4479 15.7953V18.9393C65.4479 19.1473 65.3759 19.3233 65.2319 19.4673C65.0879 19.5953 64.9119 19.6593 64.7039 19.6593H62.7839C62.5919 19.6593 62.4239 19.5953 62.2799 19.4673C62.1359 19.3233 62.0639 19.1473 62.0639 18.9393V16.3713H54.5039V28.2513H61.7759V25.2753H58.3199C58.1279 25.2753 57.9599 25.2033 57.8159 25.0593C57.6719 24.9153 57.5999 24.7393 57.5999 24.5313V22.4673C57.5999 22.2593 57.6719 22.0833 57.8159 21.9393C57.9599 21.7953 58.1279 21.7233 58.3199 21.7233H64.7039C64.9119 21.7233 65.0879 21.7953 65.2319 21.9393C65.3759 22.0833 65.4479 22.2593 65.4479 22.4673V28.9713C65.4479 29.1633 65.3759 29.3313 65.2319 29.4753C65.0879 29.6193 64.9119 29.6913 64.7039 29.6913H63.3839V31.0593C63.3839 31.2513 63.3119 31.4193 63.1679 31.5633C63.0239 31.7073 62.8559 31.7793 62.6639 31.7793H53.9039C53.6959 31.7793 53.5199 31.7073 53.3759 31.5633C53.2479 31.4193 53.1839 31.2513 53.1839 31.0593V29.5713H51.6959C51.4879 29.5713 51.3119 29.4993 51.1679 29.3553C51.0239 29.2113 50.9519 29.0433 50.9519 28.8513V15.6513C50.9519 15.4593 51.0239 15.2913 51.1679 15.1473C51.3119 15.0033 51.4879 14.9313 51.6959 14.9313ZM68.3599 12.8433H70.3039C70.4959 12.8433 70.6639 12.9153 70.8079 13.0593C70.9519 13.2033 71.0239 13.3793 71.0239 13.5873V28.2513H78.5839V13.5873C78.5839 13.3793 78.6559 13.2033 78.7999 13.0593C78.9439 12.9153 79.1199 12.8433 79.3279 12.8433H81.3679C81.5759 12.8433 81.7519 12.9153 81.8959 13.0593C82.0399 13.2033 82.1119 13.3793 82.1119 13.5873V28.9713C82.1119 29.1633 82.0399 29.3313 81.8959 29.4753C81.7519 29.6193 81.5759 29.6913 81.3679 29.6913H80.0479V31.0593C80.0479 31.2513 79.9759 31.4193 79.8319 31.5633C79.6879 31.7073 79.5199 31.7793 79.3279 31.7793H70.5679C70.3599 31.7793 70.1839 31.7073 70.0399 31.5633C69.9119 31.4193 69.8479 31.2513 69.8479 31.0593V29.5713H68.3599C68.1519 29.5713 67.9759 29.4993 67.8319 29.3553C67.6879 29.2113 67.6159 29.0433 67.6159 28.8513V13.5873C67.6159 13.3793 67.6879 13.2033 67.8319 13.0593C67.9759 12.9153 68.1519 12.8433 68.3599 12.8433ZM85.4693 12.8433H98.4773C98.6853 12.8433 98.8613 12.9153 99.0053 13.0593C99.1493 13.2033 99.2213 13.3793 99.2213 13.5873V15.6513C99.2213 15.8593 99.1493 16.0353 99.0053 16.1793C98.8613 16.3073 98.6853 16.3713 98.4773 16.3713H88.3973V19.3713H96.4613C96.6533 19.3713 96.8213 19.4433 96.9653 19.5873C97.1093 19.7153 97.1813 19.8833 97.1813 20.0913V22.3233C97.1813 22.5313 97.1093 22.7073 96.9653 22.8513C96.8213 22.9793 96.6533 23.0433 96.4613 23.0433H88.3973V28.2513H98.4773C98.6853 28.2513 98.8613 28.3233 99.0053 28.4673C99.1493 28.6113 99.2213 28.7793 99.2213 28.9713V31.0593C99.2213 31.2513 99.1493 31.4193 99.0053 31.5633C98.8613 31.7073 98.6853 31.7793 98.4773 31.7793H85.4693C85.2613 31.7793 85.0853 31.7073 84.9413 31.5633C84.7973 31.4193 84.7253 31.2513 84.7253 31.0593V13.5873C84.7253 13.3793 84.7973 13.2033 84.9413 13.0593C85.0853 12.9153 85.2613 12.8433 85.4693 12.8433Z" fill="white"/>
</g>
<line y1="-1.5" x2="94.8118" y2="-1.5" transform="matrix(-1 0 0 1 99.6016 41.7793)" stroke="white" stroke-width="3"/>
<line y1="-1.5" x2="2.59374" y2="-1.5" transform="matrix(-1 1.27316e-07 6.00296e-08 1 4.78906 44.5864)" stroke="white" stroke-width="3"/>
<line y1="-1.5" x2="2.59375" y2="-1.5" transform="matrix(-1 1.27316e-07 6.00297e-08 1 102.195 44.5864)" stroke="white" stroke-width="3"/>
<defs>
<filter id="filter0_d_159_144" x="0.378906" y="12.8433" width="102.843" height="26.936" filterUnits="userSpaceOnUse" color-interpolation-filters="sRGB">
<feFlood flood-opacity="0" result="BackgroundImageFix"/>
<feColorMatrix in="SourceAlpha" type="matrix" values="0 0 0 0 0 0 0 0 0 0 0 0 0 0 0 0 0 0 127 0" result="hardAlpha"/>
<feOffset dy="4"/>
<feGaussianBlur stdDeviation="2"/>
<feComposite in2="hardAlpha" operator="out"/>
<feColorMatrix type="matrix" values="0 0 0 0 0.417535 0 0 0 0 0.474062 0 0 0 0 0.770833 0 0 0 0.25 0"/>
<feBlend mode="normal" in2="BackgroundImageFix" result="effect1_dropShadow_159_144"/>
<feBlend mode="normal" in="SourceGraphic" in2="effect1_dropShadow_159_144" result="shape"/>
</filter>
</defs>
</svg>
