<svg width="180" height="69" viewBox="0 0 180 69" fill="none" xmlns="http://www.w3.org/2000/svg">
<g filter="url(#filter0_ddddii_8411_456)">
<path d="M15.1953 32.9014C15.1953 23.2364 23.0303 15.4014 32.6953 15.4014H143.695C153.36 15.4014 161.195 23.2364 161.195 32.9014C161.195 42.5664 153.36 50.4014 143.695 50.4014H32.6953C23.0303 50.4014 15.1953 42.5664 15.1953 32.9014Z" fill="white"/>
<path d="M26.6473 27.9334H27.6913C27.7873 27.9334 27.8713 27.9694 27.9433 28.0414C28.0153 28.1134 28.0513 28.2014 28.0513 28.3054V35.6374H32.0593C32.1553 35.6374 32.2393 35.6734 32.3113 35.7454C32.3833 35.8174 32.4193 35.9014 32.4193 35.9974V37.0414C32.4193 37.1374 32.3833 37.2214 32.3113 37.2934C32.2393 37.3654 32.1553 37.4014 32.0593 37.4014H26.6473C26.5513 37.4014 26.4673 37.3654 26.3953 37.2934C26.3233 37.2214 26.2873 37.1374 26.2873 37.0414V28.3054C26.2873 28.2014 26.3233 28.1134 26.3953 28.0414C26.4673 27.9694 26.5513 27.9334 26.6473 27.9334ZM33.4222 27.9334H39.9262C40.0302 27.9334 40.1182 27.9694 40.1902 28.0414C40.2622 28.1134 40.2982 28.2014 40.2982 28.3054V29.3374C40.2982 29.4414 40.2622 29.5294 40.1902 29.6014C40.1182 29.6654 40.0302 29.6974 39.9262 29.6974H34.8862V31.1974H38.9182C39.0142 31.1974 39.0982 31.2334 39.1702 31.3054C39.2422 31.3694 39.2782 31.4534 39.2782 31.5574V32.6734C39.2782 32.7774 39.2422 32.8654 39.1702 32.9374C39.0982 33.0014 39.0142 33.0334 38.9182 33.0334H34.8862V35.6374H39.9262C40.0302 35.6374 40.1182 35.6734 40.1902 35.7454C40.2622 35.8174 40.2982 35.9014 40.2982 35.9974V37.0414C40.2982 37.1374 40.2622 37.2214 40.1902 37.2934C40.1182 37.3654 40.0302 37.4014 39.9262 37.4014H33.4222C33.3182 37.4014 33.2302 37.3654 33.1582 37.2934C33.0862 37.2214 33.0502 37.1374 33.0502 37.0414V28.3054C33.0502 28.2014 33.0862 28.1134 33.1582 28.0414C33.2302 27.9694 33.3182 27.9334 33.4222 27.9334ZM41.4261 28.9774H42.0981V28.3054C42.0981 28.2014 42.1341 28.1134 42.2061 28.0414C42.2781 27.9694 42.3621 27.9334 42.4581 27.9334H46.8261C46.9301 27.9334 47.0141 27.9694 47.0781 28.0414C47.1501 28.1134 47.1861 28.2014 47.1861 28.3054V29.0494H47.9301C48.0341 29.0494 48.1221 29.0854 48.1941 29.1574C48.2661 29.2214 48.3021 29.3054 48.3021 29.4094V30.9814C48.3021 31.0854 48.2661 31.1734 48.1941 31.2454C48.1221 31.3094 48.0341 31.3414 47.9301 31.3414H46.9701C46.8741 31.3414 46.7901 31.3094 46.7181 31.2454C46.6461 31.1734 46.6101 31.0854 46.6101 30.9814V29.6974H42.8301V35.6374H46.4661V34.1494H44.7381C44.6421 34.1494 44.5581 34.1134 44.4861 34.0414C44.4141 33.9694 44.3781 33.8814 44.3781 33.7774V32.7454C44.3781 32.6414 44.4141 32.5534 44.4861 32.4814C44.5581 32.4094 44.6421 32.3734 44.7381 32.3734H47.9301C48.0341 32.3734 48.1221 32.4094 48.1941 32.4814C48.2661 32.5534 48.3021 32.6414 48.3021 32.7454V35.9974C48.3021 36.0934 48.2661 36.1774 48.1941 36.2494C48.1221 36.3214 48.0341 36.3574 47.9301 36.3574H47.2701V37.0414C47.2701 37.1374 47.2341 37.2214 47.1621 37.2934C47.0901 37.3654 47.0061 37.4014 46.9101 37.4014H42.5301C42.4261 37.4014 42.3381 37.3654 42.2661 37.2934C42.2021 37.2214 42.1701 37.1374 42.1701 37.0414V36.2974H41.4261C41.3221 36.2974 41.2341 36.2614 41.1621 36.1894C41.0901 36.1174 41.0541 36.0334 41.0541 35.9374V29.3374C41.0541 29.2414 41.0901 29.1574 41.1621 29.0854C41.2341 29.0134 41.3221 28.9774 41.4261 28.9774ZM49.7815 27.9334H56.2855C56.3895 27.9334 56.4775 27.9694 56.5495 28.0414C56.6215 28.1134 56.6575 28.2014 56.6575 28.3054V29.3374C56.6575 29.4414 56.6215 29.5294 56.5495 29.6014C56.4775 29.6654 56.3895 29.6974 56.2855 29.6974H51.2455V31.1974H55.2775C55.3735 31.1974 55.4575 31.2334 55.5295 31.3054C55.6015 31.3694 55.6375 31.4534 55.6375 31.5574V32.6734C55.6375 32.7774 55.6015 32.8654 55.5295 32.9374C55.4575 33.0014 55.3735 33.0334 55.2775 33.0334H51.2455V35.6374H56.2855C56.3895 35.6374 56.4775 35.6734 56.5495 35.7454C56.6215 35.8174 56.6575 35.9014 56.6575 35.9974V37.0414C56.6575 37.1374 56.6215 37.2214 56.5495 37.2934C56.4775 37.3654 56.3895 37.4014 56.2855 37.4014H49.7815C49.6775 37.4014 49.5895 37.3654 49.5175 37.2934C49.4455 37.2214 49.4095 37.1374 49.4095 37.0414V28.3054C49.4095 28.2014 49.4455 28.1134 49.5175 28.0414C49.5895 27.9694 49.6775 27.9334 49.7815 27.9334ZM62.9443 34.1494H62.2723C62.1683 34.1494 62.0803 34.1134 62.0083 34.0414C61.9443 33.9694 61.9123 33.8814 61.9123 33.7774V32.9614H61.1443C61.0483 32.9614 60.9643 32.9254 60.8923 32.8534C60.8203 32.7814 60.7843 32.6974 60.7843 32.6014V31.8574H60.0403C59.9443 31.8574 59.8603 31.8214 59.7883 31.7494C59.7163 31.6774 59.6803 31.5894 59.6803 31.4854V30.8134H59.2363V37.0414C59.2363 37.1374 59.2003 37.2214 59.1283 37.2934C59.0563 37.3654 58.9683 37.4014 58.8643 37.4014H57.8323C57.7283 37.4014 57.6403 37.3654 57.5683 37.2934C57.4963 37.2214 57.4603 37.1374 57.4603 37.0414V28.3054C57.4603 28.2014 57.4963 28.1134 57.5683 28.0414C57.6403 27.9694 57.7283 27.9334 57.8323 27.9334H58.8643C58.9683 27.9334 59.0563 27.9694 59.1283 28.0414C59.2003 28.1134 59.2363 28.2014 59.2363 28.3054V28.9774H59.9083C60.0123 28.9774 60.0963 29.0134 60.1603 29.0854C60.2323 29.1574 60.2683 29.2414 60.2683 29.3374V30.1654H61.0243C61.1203 30.1654 61.2043 30.2014 61.2763 30.2734C61.3483 30.3454 61.3843 30.4294 61.3843 30.5254V31.2694H62.1283C62.2243 31.2694 62.3083 31.3054 62.3803 31.3774C62.4523 31.4494 62.4883 31.5334 62.4883 31.6294V32.3134H62.9443V28.3054C62.9443 28.2014 62.9803 28.1134 63.0523 28.0414C63.1243 27.9694 63.2123 27.9334 63.3163 27.9334H64.3363C64.4403 27.9334 64.5283 27.9694 64.6003 28.0414C64.6723 28.1134 64.7083 28.2014 64.7083 28.3054V37.0414C64.7083 37.1374 64.6723 37.2214 64.6003 37.2934C64.5283 37.3654 64.4403 37.4014 64.3363 37.4014H63.3163C63.2123 37.4014 63.1243 37.3654 63.0523 37.2934C62.9803 37.2214 62.9443 37.1374 62.9443 37.0414V34.1494ZM66.2815 35.6374H66.8935V29.6974H66.2815C66.1775 29.6974 66.0895 29.6654 66.0175 29.6014C65.9455 29.5294 65.9095 29.4414 65.9095 29.3374V28.3054C65.9095 28.2014 65.9455 28.1134 66.0175 28.0414C66.0895 27.9694 66.1775 27.9334 66.2815 27.9334H71.6815C71.7855 27.9334 71.8695 27.9694 71.9335 28.0414C72.0055 28.1134 72.0415 28.2014 72.0415 28.3054V29.0494H72.7855C72.8895 29.0494 72.9775 29.0854 73.0495 29.1574C73.1215 29.2214 73.1575 29.3054 73.1575 29.4094V35.9974C73.1575 36.0934 73.1215 36.1774 73.0495 36.2494C72.9775 36.3214 72.8895 36.3574 72.7855 36.3574H72.1255V37.0414C72.1255 37.1374 72.0895 37.2214 72.0175 37.2934C71.9455 37.3654 71.8615 37.4014 71.7655 37.4014H66.2815C66.1775 37.4014 66.0895 37.3654 66.0175 37.2934C65.9455 37.2214 65.9095 37.1374 65.9095 37.0414V35.9974C65.9095 35.9014 65.9455 35.8174 66.0175 35.7454C66.0895 35.6734 66.1775 35.6374 66.2815 35.6374ZM68.8495 35.5654H71.3935V29.6974H68.8495V35.5654ZM74.7776 28.9774H75.4496V28.3054C75.4496 28.2014 75.4856 28.1134 75.5576 28.0414C75.6296 27.9694 75.7136 27.9334 75.8096 27.9334H80.1776C80.2816 27.9334 80.3656 27.9694 80.4296 28.0414C80.5016 28.1134 80.5376 28.2014 80.5376 28.3054V29.0494H81.2816C81.3856 29.0494 81.4736 29.0854 81.5456 29.1574C81.6176 29.2214 81.6536 29.3054 81.6536 29.4094V37.0414C81.6536 37.1374 81.6176 37.2214 81.5456 37.2934C81.4736 37.3654 81.3856 37.4014 81.2816 37.4014H80.2616C80.1576 37.4014 80.0696 37.3654 79.9976 37.2934C79.9256 37.2214 79.8896 37.1374 79.8896 37.0414V34.2094H76.1816V37.0414C76.1816 37.1374 76.1456 37.2214 76.0736 37.2934C76.0016 37.3654 75.9136 37.4014 75.8096 37.4014H74.7776C74.6736 37.4014 74.5856 37.3654 74.5136 37.2934C74.4416 37.2214 74.4056 37.1374 74.4056 37.0414V29.3374C74.4056 29.2414 74.4416 29.1574 74.5136 29.0854C74.5856 29.0134 74.6736 28.9774 74.7776 28.9774ZM76.2416 32.2414H79.8896V29.6974H76.2416V32.2414ZM83.3206 27.9334H88.7206C88.8246 27.9334 88.9086 27.9694 88.9726 28.0414C89.0446 28.1134 89.0806 28.2014 89.0806 28.3054V29.0494H89.8246C89.9286 29.0494 90.0166 29.0854 90.0886 29.1574C90.1606 29.2214 90.1966 29.3054 90.1966 29.4094V32.6734C90.1966 32.7774 90.1606 32.8654 90.0886 32.9374C90.0166 33.0014 89.9286 33.0334 89.8246 33.0334H89.1646V33.7774C89.1646 33.8814 89.1286 33.9694 89.0566 34.0414C88.9846 34.1134 88.9006 34.1494 88.8046 34.1494H88.0366V34.5934H88.7206C88.8246 34.5934 88.9086 34.6294 88.9726 34.7014C89.0446 34.7734 89.0806 34.8574 89.0806 34.9534V35.6974H89.8246C89.9286 35.6974 90.0166 35.7334 90.0886 35.8054C90.1606 35.8774 90.1966 35.9654 90.1966 36.0694V37.0414C90.1966 37.1374 90.1606 37.2214 90.0886 37.2934C90.0166 37.3654 89.9286 37.4014 89.8246 37.4014H88.8646C88.7686 37.4014 88.6846 37.3654 88.6126 37.2934C88.5406 37.2214 88.5046 37.1374 88.5046 37.0414V36.2974H87.7606C87.6566 36.2974 87.5686 36.2614 87.4966 36.1894C87.4326 36.1174 87.4006 36.0334 87.4006 35.9374V35.1814H86.5726C86.4766 35.1814 86.3926 35.1494 86.3206 35.0854C86.2486 35.0134 86.2126 34.9254 86.2126 34.8214V34.2094H84.7246V37.0414C84.7246 37.1374 84.6886 37.2214 84.6166 37.2934C84.5446 37.3654 84.4566 37.4014 84.3526 37.4014H83.3206C83.2166 37.4014 83.1286 37.3654 83.0566 37.2934C82.9846 37.2214 82.9486 37.1374 82.9486 37.0414V28.3054C82.9486 28.2014 82.9846 28.1134 83.0566 28.0414C83.1286 27.9694 83.2166 27.9334 83.3206 27.9334ZM84.7846 32.2414H88.4326V29.6974H84.7846V32.2414ZM91.5692 27.9334H92.5532C92.6492 27.9334 92.7332 27.9694 92.8052 28.0414C92.8772 28.1134 92.9132 28.2014 92.9132 28.3054V32.5894H93.6572C93.7532 32.5894 93.8372 32.6254 93.9092 32.6974C93.9812 32.7694 94.0172 32.8534 94.0172 32.9494V33.6334H94.4612V32.8774C94.4612 32.7734 94.4972 32.6894 94.5692 32.6254C94.6412 32.5534 94.7292 32.5174 94.8332 32.5174H95.5772V28.3054C95.5772 28.2014 95.6092 28.1134 95.6732 28.0414C95.7452 27.9694 95.8332 27.9334 95.9372 27.9334H96.9812C97.0772 27.9334 97.1612 27.9694 97.2332 28.0414C97.3052 28.1134 97.3412 28.2014 97.3412 28.3054V32.8774C97.3412 32.9734 97.3052 33.0574 97.2332 33.1294C97.1612 33.2014 97.0772 33.2374 96.9812 33.2374H96.2972V33.9934C96.2972 34.0974 96.2612 34.1854 96.1892 34.2574C96.1172 34.3214 96.0332 34.3534 95.9372 34.3534H95.1932V37.0414C95.1932 37.1374 95.1572 37.2214 95.0852 37.2934C95.0132 37.3654 94.9292 37.4014 94.8332 37.4014H93.7892C93.6852 37.4014 93.5972 37.3654 93.5252 37.2934C93.4612 37.2214 93.4292 37.1374 93.4292 37.0414V34.2814H92.6732C92.5772 34.2814 92.4932 34.2454 92.4212 34.1734C92.3492 34.1014 92.3132 34.0174 92.3132 33.9214V33.1774H91.5692C91.4732 33.1774 91.3892 33.1414 91.3172 33.0694C91.2452 32.9974 91.2092 32.9094 91.2092 32.8054V28.3054C91.2092 28.2014 91.2452 28.1134 91.3172 28.0414C91.3892 27.9694 91.4732 27.9334 91.5692 27.9334ZM102.55 27.9334H103.594C103.69 27.9334 103.774 27.9694 103.846 28.0414C103.918 28.1134 103.954 28.2014 103.954 28.3054V35.6374H107.962C108.058 35.6374 108.142 35.6734 108.214 35.7454C108.286 35.8174 108.322 35.9014 108.322 35.9974V37.0414C108.322 37.1374 108.286 37.2214 108.214 37.2934C108.142 37.3654 108.058 37.4014 107.962 37.4014H102.55C102.454 37.4014 102.37 37.3654 102.298 37.2934C102.226 37.2214 102.19 37.1374 102.19 37.0414V28.3054C102.19 28.2014 102.226 28.1134 102.298 28.0414C102.37 27.9694 102.454 27.9334 102.55 27.9334ZM109.325 27.9334H115.829C115.933 27.9334 116.021 27.9694 116.093 28.0414C116.165 28.1134 116.201 28.2014 116.201 28.3054V29.3374C116.201 29.4414 116.165 29.5294 116.093 29.6014C116.021 29.6654 115.933 29.6974 115.829 29.6974H110.789V31.1974H114.821C114.917 31.1974 115.001 31.2334 115.073 31.3054C115.145 31.3694 115.181 31.4534 115.181 31.5574V32.6734C115.181 32.7774 115.145 32.8654 115.073 32.9374C115.001 33.0014 114.917 33.0334 114.821 33.0334H110.789V35.6374H115.829C115.933 35.6374 116.021 35.6734 116.093 35.7454C116.165 35.8174 116.201 35.9014 116.201 35.9974V37.0414C116.201 37.1374 116.165 37.2214 116.093 37.2934C116.021 37.3654 115.933 37.4014 115.829 37.4014H109.325C109.221 37.4014 109.133 37.3654 109.061 37.2934C108.989 37.2214 108.953 37.1374 108.953 37.0414V28.3054C108.953 28.2014 108.989 28.1134 109.061 28.0414C109.133 27.9694 109.221 27.9334 109.325 27.9334ZM117.352 28.9774H118.024V28.3054C118.024 28.2014 118.06 28.1134 118.132 28.0414C118.204 27.9694 118.288 27.9334 118.384 27.9334H122.752C122.856 27.9334 122.94 27.9694 123.004 28.0414C123.076 28.1134 123.112 28.2014 123.112 28.3054V29.0494H123.856C123.96 29.0494 124.048 29.0854 124.12 29.1574C124.192 29.2214 124.228 29.3054 124.228 29.4094V37.0414C124.228 37.1374 124.192 37.2214 124.12 37.2934C124.048 37.3654 123.96 37.4014 123.856 37.4014H122.836C122.732 37.4014 122.644 37.3654 122.572 37.2934C122.5 37.2214 122.464 37.1374 122.464 37.0414V34.2094H118.756V37.0414C118.756 37.1374 118.72 37.2214 118.648 37.2934C118.576 37.3654 118.488 37.4014 118.384 37.4014H117.352C117.248 37.4014 117.16 37.3654 117.088 37.2934C117.016 37.2214 116.98 37.1374 116.98 37.0414V29.3374C116.98 29.2414 117.016 29.1574 117.088 29.0854C117.16 29.0134 117.248 28.9774 117.352 28.9774ZM118.816 32.2414H122.464V29.6974H118.816V32.2414ZM125.848 28.9774H126.52V28.3054C126.52 28.2014 126.556 28.1134 126.628 28.0414C126.7 27.9694 126.784 27.9334 126.88 27.9334H131.248C131.352 27.9334 131.436 27.9694 131.5 28.0414C131.572 28.1134 131.608 28.2014 131.608 28.3054V29.0494H132.352C132.456 29.0494 132.544 29.0854 132.616 29.1574C132.688 29.2214 132.724 29.3054 132.724 29.4094V30.9814C132.724 31.0854 132.688 31.1734 132.616 31.2454C132.544 31.3094 132.456 31.3414 132.352 31.3414H131.392C131.296 31.3414 131.212 31.3094 131.14 31.2454C131.068 31.1734 131.032 31.0854 131.032 30.9814V29.6974H127.252V35.6374H130.888V34.1494H129.16C129.064 34.1494 128.98 34.1134 128.908 34.0414C128.836 33.9694 128.8 33.8814 128.8 33.7774V32.7454C128.8 32.6414 128.836 32.5534 128.908 32.4814C128.98 32.4094 129.064 32.3734 129.16 32.3734H132.352C132.456 32.3734 132.544 32.4094 132.616 32.4814C132.688 32.5534 132.724 32.6414 132.724 32.7454V35.9974C132.724 36.0934 132.688 36.1774 132.616 36.2494C132.544 36.3214 132.456 36.3574 132.352 36.3574H131.692V37.0414C131.692 37.1374 131.656 37.2214 131.584 37.2934C131.512 37.3654 131.428 37.4014 131.332 37.4014H126.952C126.848 37.4014 126.76 37.3654 126.688 37.2934C126.624 37.2214 126.592 37.1374 126.592 37.0414V36.2974H125.848C125.744 36.2974 125.656 36.2614 125.584 36.1894C125.512 36.1174 125.476 36.0334 125.476 35.9374V29.3374C125.476 29.2414 125.512 29.1574 125.584 29.0854C125.656 29.0134 125.744 28.9774 125.848 28.9774ZM134.18 27.9334H135.152C135.248 27.9334 135.332 27.9694 135.404 28.0414C135.476 28.1134 135.512 28.2014 135.512 28.3054V35.6374H139.292V28.3054C139.292 28.2014 139.328 28.1134 139.4 28.0414C139.472 27.9694 139.56 27.9334 139.664 27.9334H140.684C140.788 27.9334 140.876 27.9694 140.948 28.0414C141.02 28.1134 141.056 28.2014 141.056 28.3054V35.9974C141.056 36.0934 141.02 36.1774 140.948 36.2494C140.876 36.3214 140.788 36.3574 140.684 36.3574H140.024V37.0414C140.024 37.1374 139.988 37.2214 139.916 37.2934C139.844 37.3654 139.76 37.4014 139.664 37.4014H135.284C135.18 37.4014 135.092 37.3654 135.02 37.2934C134.956 37.2214 134.924 37.1374 134.924 37.0414V36.2974H134.18C134.076 36.2974 133.988 36.2614 133.916 36.1894C133.844 36.1174 133.808 36.0334 133.808 35.9374V28.3054C133.808 28.2014 133.844 28.1134 133.916 28.0414C133.988 27.9694 134.076 27.9334 134.18 27.9334ZM142.735 27.9334H149.239C149.343 27.9334 149.431 27.9694 149.503 28.0414C149.575 28.1134 149.611 28.2014 149.611 28.3054V29.3374C149.611 29.4414 149.575 29.5294 149.503 29.6014C149.431 29.6654 149.343 29.6974 149.239 29.6974H144.199V31.1974H148.231C148.327 31.1974 148.411 31.2334 148.483 31.3054C148.555 31.3694 148.591 31.4534 148.591 31.5574V32.6734C148.591 32.7774 148.555 32.8654 148.483 32.9374C148.411 33.0014 148.327 33.0334 148.231 33.0334H144.199V35.6374H149.239C149.343 35.6374 149.431 35.6734 149.503 35.7454C149.575 35.8174 149.611 35.9014 149.611 35.9974V37.0414C149.611 37.1374 149.575 37.2214 149.503 37.2934C149.431 37.3654 149.343 37.4014 149.239 37.4014H142.735C142.631 37.4014 142.543 37.3654 142.471 37.2934C142.399 37.2214 142.363 37.1374 142.363 37.0414V28.3054C142.363 28.2014 142.399 28.1134 142.471 28.0414C142.543 27.9694 142.631 27.9334 142.735 27.9334Z" fill="#004D94"/>
</g>
<defs>
<filter id="filter0_ddddii_8411_456" x="0.195312" y="0.401367" width="179" height="68" filterUnits="userSpaceOnUse" color-interpolation-filters="sRGB">
<feFlood flood-opacity="0" result="BackgroundImageFix"/>
<feColorMatrix in="SourceAlpha" type="matrix" values="0 0 0 0 0 0 0 0 0 0 0 0 0 0 0 0 0 0 127 0" result="hardAlpha"/>
<feOffset dx="5" dy="5"/>
<feGaussianBlur stdDeviation="6.5"/>
<feColorMatrix type="matrix" values="0 0 0 0 0.337255 0 0 0 0 0.760784 0 0 0 0 0.901961 0 0 0 0.9 0"/>
<feBlend mode="normal" in2="BackgroundImageFix" result="effect1_dropShadow_8411_456"/>
<feColorMatrix in="SourceAlpha" type="matrix" values="0 0 0 0 0 0 0 0 0 0 0 0 0 0 0 0 0 0 127 0" result="hardAlpha"/>
<feOffset dx="-5" dy="-5"/>
<feGaussianBlur stdDeviation="5"/>
<feColorMatrix type="matrix" values="0 0 0 0 0.415686 0 0 0 0 0.929412 0 0 0 0 1 0 0 0 0.9 0"/>
<feBlend mode="normal" in2="effect1_dropShadow_8411_456" result="effect2_dropShadow_8411_456"/>
<feColorMatrix in="SourceAlpha" type="matrix" values="0 0 0 0 0 0 0 0 0 0 0 0 0 0 0 0 0 0 127 0" result="hardAlpha"/>
<feOffset dx="5" dy="-5"/>
<feGaussianBlur stdDeviation="5"/>
<feColorMatrix type="matrix" values="0 0 0 0 0.337255 0 0 0 0 0.760784 0 0 0 0 0.901961 0 0 0 0.2 0"/>
<feBlend mode="normal" in2="effect2_dropShadow_8411_456" result="effect3_dropShadow_8411_456"/>
<feColorMatrix in="SourceAlpha" type="matrix" values="0 0 0 0 0 0 0 0 0 0 0 0 0 0 0 0 0 0 127 0" result="hardAlpha"/>
<feOffset dx="-5" dy="5"/>
<feGaussianBlur stdDeviation="5"/>
<feColorMatrix type="matrix" values="0 0 0 0 0.337255 0 0 0 0 0.760784 0 0 0 0 0.901961 0 0 0 0.2 0"/>
<feBlend mode="normal" in2="effect3_dropShadow_8411_456" result="effect4_dropShadow_8411_456"/>
<feBlend mode="normal" in="SourceGraphic" in2="effect4_dropShadow_8411_456" result="shape"/>
<feColorMatrix in="SourceAlpha" type="matrix" values="0 0 0 0 0 0 0 0 0 0 0 0 0 0 0 0 0 0 127 0" result="hardAlpha"/>
<feOffset dx="-1" dy="-1"/>
<feGaussianBlur stdDeviation="1"/>
<feComposite in2="hardAlpha" operator="arithmetic" k2="-1" k3="1"/>
<feColorMatrix type="matrix" values="0 0 0 0 0.337255 0 0 0 0 0.760784 0 0 0 0 0.901961 0 0 0 0.5 0"/>
<feBlend mode="normal" in2="shape" result="effect5_innerShadow_8411_456"/>
<feColorMatrix in="SourceAlpha" type="matrix" values="0 0 0 0 0 0 0 0 0 0 0 0 0 0 0 0 0 0 127 0" result="hardAlpha"/>
<feOffset dx="1" dy="1"/>
<feGaussianBlur stdDeviation="1"/>
<feComposite in2="hardAlpha" operator="arithmetic" k2="-1" k3="1"/>
<feColorMatrix type="matrix" values="0 0 0 0 0.415686 0 0 0 0 0.929412 0 0 0 0 1 0 0 0 0.3 0"/>
<feBlend mode="normal" in2="effect5_innerShadow_8411_456" result="effect6_innerShadow_8411_456"/>
</filter>
</defs>
</svg>
