<svg width="123" height="44" viewBox="0 0 123 44" fill="none" xmlns="http://www.w3.org/2000/svg">
<line x1="118.413" y1="4.5" x2="5.587" y2="4.5" stroke="white" stroke-width="3"/>
<line x1="5.58691" y1="1.69287" x2="2.50036" y2="1.69287" stroke="white" stroke-width="3"/>
<line x1="121.5" y1="1.69287" x2="118.413" y2="1.69287" stroke="white" stroke-width="3"/>
<g filter="url(#filter0_d_7_790)">
<path d="M5.404 12.064H7.492C7.684 12.064 7.852 12.136 7.996 12.28C8.14 12.424 8.212 12.6 8.212 12.808V27.472H16.228C16.42 27.472 16.588 27.544 16.732 27.688C16.876 27.832 16.948 28 16.948 28.192V30.28C16.948 30.472 16.876 30.64 16.732 30.784C16.588 30.928 16.42 31 16.228 31H5.404C5.212 31 5.044 30.928 4.9 30.784C4.756 30.64 4.684 30.472 4.684 30.28V12.808C4.684 12.6 4.756 12.424 4.9 12.28C5.044 12.136 5.212 12.064 5.404 12.064ZM18.9537 12.064H31.9617C32.1697 12.064 32.3457 12.136 32.4897 12.28C32.6337 12.424 32.7057 12.6 32.7057 12.808V14.872C32.7057 15.08 32.6337 15.256 32.4897 15.4C32.3457 15.528 32.1697 15.592 31.9617 15.592H21.8817V19.312H27.5457C27.7377 19.312 27.9057 19.384 28.0497 19.528C28.1937 19.656 28.2657 19.824 28.2657 20.032V22.264C28.2657 22.472 28.1937 22.648 28.0497 22.792C27.9057 22.92 27.7377 22.984 27.5457 22.984H21.8817V27.472H31.9617C32.1697 27.472 32.3457 27.544 32.4897 27.688C32.6337 27.832 32.7057 28 32.7057 28.192V30.28C32.7057 30.472 32.6337 30.64 32.4897 30.784C32.3457 30.928 32.1697 31 31.9617 31H18.9537C18.7457 31 18.5697 30.928 18.4257 30.784C18.2817 30.64 18.2097 30.472 18.2097 30.28V12.808C18.2097 12.6 18.2817 12.424 18.4257 12.28C18.5697 12.136 18.7457 12.064 18.9537 12.064ZM34.7243 12.064H36.6923C36.8843 12.064 37.0523 12.136 37.1963 12.28C37.3403 12.424 37.4123 12.6 37.4123 12.808V20.944H38.9003C39.0923 20.944 39.2603 21.016 39.4043 21.16C39.5483 21.304 39.6203 21.48 39.6203 21.688V25.264H40.5083V21.544C40.5083 21.352 40.5803 21.184 40.7243 21.04C40.8683 20.896 41.0443 20.824 41.2523 20.824H42.7403V12.808C42.7403 12.6 42.8043 12.424 42.9323 12.28C43.0763 12.136 43.2523 12.064 43.4603 12.064H45.5483C45.7403 12.064 45.9083 12.136 46.0523 12.28C46.1963 12.424 46.2683 12.6 46.2683 12.808V21.544C46.2683 21.752 46.1963 21.928 46.0523 22.072C45.9083 22.2 45.7403 22.264 45.5483 22.264H44.1803V25.984C44.1803 26.176 44.1083 26.344 43.9643 26.488C43.8203 26.632 43.6523 26.704 43.4603 26.704H41.9723V30.28C41.9723 30.472 41.9003 30.64 41.7563 30.784C41.6123 30.928 41.4443 31 41.2523 31H39.1643C38.9563 31 38.7803 30.928 38.6363 30.784C38.5083 30.64 38.4443 30.472 38.4443 30.28V26.56H36.9323C36.7403 26.56 36.5723 26.496 36.4283 26.368C36.2843 26.224 36.2123 26.048 36.2123 25.84V22.12H34.7243C34.5323 22.12 34.3643 22.048 34.2203 21.904C34.0763 21.76 34.0043 21.592 34.0043 21.4V12.808C34.0043 12.6 34.0763 12.424 34.2203 12.28C34.3643 12.136 34.5323 12.064 34.7243 12.064ZM49.3756 12.064H62.3836C62.5916 12.064 62.7676 12.136 62.9116 12.28C63.0556 12.424 63.1276 12.6 63.1276 12.808V14.872C63.1276 15.08 63.0556 15.256 62.9116 15.4C62.7676 15.528 62.5916 15.592 62.3836 15.592H52.3036V19.312H57.9676C58.1596 19.312 58.3276 19.384 58.4716 19.528C58.6156 19.656 58.6876 19.824 58.6876 20.032V22.264C58.6876 22.472 58.6156 22.648 58.4716 22.792C58.3276 22.92 58.1596 22.984 57.9676 22.984H52.3036V27.472H62.3836C62.5916 27.472 62.7676 27.544 62.9116 27.688C63.0556 27.832 63.1276 28 63.1276 28.192V30.28C63.1276 30.472 63.0556 30.64 62.9116 30.784C62.7676 30.928 62.5916 31 62.3836 31H49.3756C49.1676 31 48.9916 30.928 48.8476 30.784C48.7036 30.64 48.6316 30.472 48.6316 30.28V12.808C48.6316 12.6 48.7036 12.424 48.8476 12.28C48.9916 12.136 49.1676 12.064 49.3756 12.064ZM65.4509 12.064H67.5389C67.7309 12.064 67.8989 12.136 68.0429 12.28C68.1869 12.424 68.2589 12.6 68.2589 12.808V27.472H76.2749C76.4669 27.472 76.6349 27.544 76.7789 27.688C76.9229 27.832 76.9949 28 76.9949 28.192V30.28C76.9949 30.472 76.9229 30.64 76.7789 30.784C76.6349 30.928 76.4669 31 76.2749 31H65.4509C65.2589 31 65.0909 30.928 64.9469 30.784C64.8029 30.64 64.7309 30.472 64.7309 30.28V12.808C64.7309 12.6 64.8029 12.424 64.9469 12.28C65.0909 12.136 65.2589 12.064 65.4509 12.064ZM87.5318 12.064H89.4758C89.6678 12.064 89.8358 12.136 89.9798 12.28C90.1238 12.424 90.1958 12.6 90.1958 12.808V27.472H97.7558V12.808C97.7558 12.6 97.8278 12.424 97.9718 12.28C98.1158 12.136 98.2918 12.064 98.4998 12.064H100.54C100.748 12.064 100.924 12.136 101.068 12.28C101.212 12.424 101.284 12.6 101.284 12.808V28.192C101.284 28.384 101.212 28.552 101.068 28.696C100.924 28.84 100.748 28.912 100.54 28.912H99.2198V30.28C99.2198 30.472 99.1478 30.64 99.0038 30.784C98.8598 30.928 98.6918 31 98.4998 31H89.7398C89.5318 31 89.3558 30.928 89.2118 30.784C89.0838 30.64 89.0198 30.472 89.0198 30.28V28.792H87.5318C87.3238 28.792 87.1478 28.72 87.0038 28.576C86.8598 28.432 86.7878 28.264 86.7878 28.072V12.808C86.7878 12.6 86.8598 12.424 87.0038 12.28C87.1478 12.136 87.3238 12.064 87.5318 12.064ZM104.641 12.064H115.441C115.649 12.064 115.817 12.136 115.945 12.28C116.089 12.424 116.161 12.6 116.161 12.808V14.296H117.649C117.857 14.296 118.033 14.368 118.177 14.512C118.321 14.64 118.393 14.808 118.393 15.016V21.544C118.393 21.752 118.321 21.928 118.177 22.072C118.033 22.2 117.857 22.264 117.649 22.264H116.329V23.752C116.329 23.96 116.257 24.136 116.113 24.28C115.969 24.424 115.801 24.496 115.609 24.496H107.449V30.28C107.449 30.472 107.377 30.64 107.233 30.784C107.089 30.928 106.913 31 106.705 31H104.641C104.433 31 104.257 30.928 104.113 30.784C103.969 30.64 103.897 30.472 103.897 30.28V12.808C103.897 12.6 103.969 12.424 104.113 12.28C104.257 12.136 104.433 12.064 104.641 12.064ZM107.569 20.68H114.865V15.592H107.569V20.68Z" fill="white"/>
</g>
<line y1="-1.5" x2="112.826" y2="-1.5" transform="matrix(-1 0 0 1 118.413 41)" stroke="white" stroke-width="3"/>
<line y1="-1.5" x2="3.08656" y2="-1.5" transform="matrix(-1 1.06988e-07 7.14352e-08 1 5.58691 43.8071)" stroke="white" stroke-width="3"/>
<line y1="-1.5" x2="3.08656" y2="-1.5" transform="matrix(-1 1.06988e-07 7.14353e-08 1 121.5 43.8071)" stroke="white" stroke-width="3"/>
<defs>
<filter id="filter0_d_7_790" x="0.683594" y="12.064" width="121.71" height="26.936" filterUnits="userSpaceOnUse" color-interpolation-filters="sRGB">
<feFlood flood-opacity="0" result="BackgroundImageFix"/>
<feColorMatrix in="SourceAlpha" type="matrix" values="0 0 0 0 0 0 0 0 0 0 0 0 0 0 0 0 0 0 127 0" result="hardAlpha"/>
<feOffset dy="4"/>
<feGaussianBlur stdDeviation="2"/>
<feComposite in2="hardAlpha" operator="out"/>
<feColorMatrix type="matrix" values="0 0 0 0 0.417535 0 0 0 0 0.474062 0 0 0 0 0.770833 0 0 0 0.25 0"/>
<feBlend mode="normal" in2="BackgroundImageFix" result="effect1_dropShadow_7_790"/>
<feBlend mode="normal" in="SourceGraphic" in2="effect1_dropShadow_7_790" result="shape"/>
</filter>
</defs>
</svg>
