<svg width="34" height="35" viewBox="0 0 34 35" fill="none" xmlns="http://www.w3.org/2000/svg">
<path d="M2.83301 22.9507C2.83301 18.9437 2.83301 16.9403 4.0778 15.6955C5.3226 14.4507 7.32607 14.4507 11.333 14.4507H22.6663C26.6733 14.4507 28.6768 14.4507 29.9215 15.6955C31.1663 16.9403 31.1663 18.9437 31.1663 22.9507C31.1663 26.9576 31.1663 28.9611 29.9215 30.2059C28.6768 31.4507 26.6733 31.4507 22.6663 31.4507H11.333C7.32607 31.4507 5.3226 31.4507 4.0778 30.2059C2.83301 28.9611 2.83301 26.9576 2.83301 22.9507Z" stroke="#003566" stroke-width="2"/>
<circle opacity="0.5" cx="17.0003" cy="22.951" r="2.83333" stroke="#1C274C" stroke-width="2"/>
<path opacity="0.5" d="M8.5 14.451V11.6177C8.5 6.92326 12.3056 3.11768 17 3.11768C21.6944 3.11768 25.5 6.92326 25.5 11.6177V14.451" stroke="#1C274C" stroke-width="2" stroke-linecap="round"/>
</svg>
