<svg width="104" height="104" viewBox="0 0 104 104" fill="none" xmlns="http://www.w3.org/2000/svg">
<g filter="url(#filter0_ddddii_8411_430)">
<path d="M15.8623 47.5444C15.8623 36.3434 15.8623 30.7429 18.0422 26.4646C19.9596 22.7014 23.0193 19.6418 26.7825 17.7243C31.0607 15.5444 36.6613 15.5444 47.8623 15.5444H53.8623C65.0634 15.5444 70.6639 15.5444 74.9421 17.7243C78.7054 19.6418 81.765 22.7014 83.6824 26.4646C85.8623 30.7429 85.8623 36.3434 85.8623 47.5444V53.5444C85.8623 64.7455 85.8623 70.346 83.6824 74.6242C81.765 78.3875 78.7054 81.4471 74.9421 83.3646C70.6639 85.5444 65.0634 85.5444 53.8623 85.5444H47.8623C36.6613 85.5444 31.0607 85.5444 26.7825 83.3646C23.0193 81.4471 19.9596 78.3875 18.0422 74.6242C15.8623 70.346 15.8623 64.7455 15.8623 53.5444V47.5444Z" fill="white"/>
<path d="M56.3523 56.0512C56.7206 56.8339 56.9265 57.7082 56.9265 58.6306C56.9265 61.9799 54.2114 64.6949 50.8622 64.6949C47.513 64.6949 44.7978 61.9798 44.7978 58.6306C44.7978 55.2814 47.5129 52.5662 50.8622 52.5662C52.3063 52.5662 53.6325 53.071 54.674 53.9137M53.5575 43.1327V37.7421H56.2528L50.8622 29.6562L45.4716 37.7421H48.1669V43.1327M62.3171 47.8494V43.1327H64.3386L60.2957 37.0682L56.2528 43.1327H58.2742V45.8279M39.4073 47.8494V43.1327H37.3857L41.4287 37.0682L45.4716 43.1327H43.4502V45.8279M63.6209 57.6575C63.5693 57.0671 63.0941 56.6016 62.5035 56.5524L60.9858 56.4259C60.7199 55.1993 60.2347 54.0567 59.5767 53.0343L60.5633 51.8684C60.9461 51.416 60.953 50.7507 60.572 50.2968C60.3635 50.0477 60.1443 49.8077 59.915 49.5777C59.685 49.3483 59.445 49.1291 59.1959 48.9207C58.742 48.5397 58.0767 48.5465 57.6243 48.9293L56.4584 49.9159C55.436 49.258 54.2933 48.7727 53.0668 48.5069L52.9403 46.9892C52.891 46.3986 52.4256 45.9233 51.8352 45.8718C51.5145 45.8438 51.1904 45.8279 50.8622 45.8279C50.534 45.8279 50.2099 45.8438 49.8892 45.8718C49.2988 45.9233 48.8333 46.3986 48.7841 46.9892L48.6576 48.5069C47.431 48.7728 46.2883 49.258 45.266 49.9159L44.1001 48.9293C43.6477 48.5465 42.9824 48.5396 42.5285 48.9207C42.2794 49.1291 42.0394 49.3483 41.8094 49.5777C41.58 49.8077 41.3608 50.0477 41.1524 50.2968C40.7714 50.7507 40.7782 51.416 41.1611 51.8684L42.1476 53.0343C41.4897 54.0567 41.0044 55.1994 40.7386 56.4259L39.2209 56.5524C38.6303 56.6016 38.155 57.0671 38.1035 57.6575C38.0748 57.9811 38.0601 58.3057 38.0596 58.6306C38.0596 58.9587 38.0755 59.2829 38.1035 59.6036C38.155 60.194 38.6303 60.6595 39.2209 60.7087L40.7386 60.8352C41.0045 62.0617 41.4897 63.2044 42.1476 64.2268L41.1611 65.3926C40.7782 65.845 40.7714 66.5103 41.1524 66.9643C41.3609 67.2134 41.5801 67.4533 41.8094 67.6834C42.0414 67.9154 42.2819 68.1334 42.5285 68.3404C42.9824 68.7214 43.6477 68.7145 44.1001 68.3316L45.266 67.3451C46.2884 68.0031 47.4311 68.4883 48.6576 68.7542L48.7841 70.2718C48.8334 70.8624 49.2988 71.3377 49.8892 71.3892C50.2099 71.4172 50.534 71.4331 50.8622 71.4331C51.1904 71.4331 51.5145 71.4172 51.8352 71.3892C52.4256 71.3376 52.8911 70.8624 52.9403 70.2718L53.0668 68.7542C54.2933 68.4882 55.436 68.0031 56.4584 67.3451L57.6243 68.3316C58.0767 68.7144 58.742 68.7214 59.1959 68.3404C59.445 68.1319 59.6849 67.9127 59.915 67.6834C60.1443 67.4533 60.3635 67.2134 60.572 66.9643C60.953 66.5104 60.9461 65.8451 60.5633 65.3926L59.5767 64.2268C60.2347 63.2044 60.7199 62.0617 60.9858 60.8352L62.5035 60.7087C63.0941 60.6594 63.5693 60.194 63.6209 59.6036C63.6496 59.28 63.6643 58.9554 63.6647 58.6306C63.6647 58.3023 63.6489 57.9783 63.6209 57.6575Z" stroke="#004D94" stroke-width="1.7" stroke-miterlimit="10" stroke-linecap="round" stroke-linejoin="round"/>
</g>
<defs>
<filter id="filter0_ddddii_8411_430" x="0.862305" y="0.544434" width="103" height="103" filterUnits="userSpaceOnUse" color-interpolation-filters="sRGB">
<feFlood flood-opacity="0" result="BackgroundImageFix"/>
<feColorMatrix in="SourceAlpha" type="matrix" values="0 0 0 0 0 0 0 0 0 0 0 0 0 0 0 0 0 0 127 0" result="hardAlpha"/>
<feOffset dx="5" dy="5"/>
<feGaussianBlur stdDeviation="6.5"/>
<feColorMatrix type="matrix" values="0 0 0 0 0.901961 0 0 0 0 0.901961 0 0 0 0 0.901961 0 0 0 0.9 0"/>
<feBlend mode="normal" in2="BackgroundImageFix" result="effect1_dropShadow_8411_430"/>
<feColorMatrix in="SourceAlpha" type="matrix" values="0 0 0 0 0 0 0 0 0 0 0 0 0 0 0 0 0 0 127 0" result="hardAlpha"/>
<feOffset dx="-5" dy="-5"/>
<feGaussianBlur stdDeviation="5"/>
<feColorMatrix type="matrix" values="0 0 0 0 1 0 0 0 0 1 0 0 0 0 1 0 0 0 0.9 0"/>
<feBlend mode="normal" in2="effect1_dropShadow_8411_430" result="effect2_dropShadow_8411_430"/>
<feColorMatrix in="SourceAlpha" type="matrix" values="0 0 0 0 0 0 0 0 0 0 0 0 0 0 0 0 0 0 127 0" result="hardAlpha"/>
<feOffset dx="5" dy="-5"/>
<feGaussianBlur stdDeviation="5"/>
<feColorMatrix type="matrix" values="0 0 0 0 0.901961 0 0 0 0 0.901961 0 0 0 0 0.901961 0 0 0 0.2 0"/>
<feBlend mode="normal" in2="effect2_dropShadow_8411_430" result="effect3_dropShadow_8411_430"/>
<feColorMatrix in="SourceAlpha" type="matrix" values="0 0 0 0 0 0 0 0 0 0 0 0 0 0 0 0 0 0 127 0" result="hardAlpha"/>
<feOffset dx="-5" dy="5"/>
<feGaussianBlur stdDeviation="5"/>
<feColorMatrix type="matrix" values="0 0 0 0 0.901961 0 0 0 0 0.901961 0 0 0 0 0.901961 0 0 0 0.2 0"/>
<feBlend mode="normal" in2="effect3_dropShadow_8411_430" result="effect4_dropShadow_8411_430"/>
<feBlend mode="normal" in="SourceGraphic" in2="effect4_dropShadow_8411_430" result="shape"/>
<feColorMatrix in="SourceAlpha" type="matrix" values="0 0 0 0 0 0 0 0 0 0 0 0 0 0 0 0 0 0 127 0" result="hardAlpha"/>
<feOffset dx="-1" dy="-1"/>
<feGaussianBlur stdDeviation="1"/>
<feComposite in2="hardAlpha" operator="arithmetic" k2="-1" k3="1"/>
<feColorMatrix type="matrix" values="0 0 0 0 0.901961 0 0 0 0 0.901961 0 0 0 0 0.901961 0 0 0 0.5 0"/>
<feBlend mode="normal" in2="shape" result="effect5_innerShadow_8411_430"/>
<feColorMatrix in="SourceAlpha" type="matrix" values="0 0 0 0 0 0 0 0 0 0 0 0 0 0 0 0 0 0 127 0" result="hardAlpha"/>
<feOffset dx="1" dy="1"/>
<feGaussianBlur stdDeviation="1"/>
<feComposite in2="hardAlpha" operator="arithmetic" k2="-1" k3="1"/>
<feColorMatrix type="matrix" values="0 0 0 0 1 0 0 0 0 1 0 0 0 0 1 0 0 0 0.3 0"/>
<feBlend mode="normal" in2="effect5_innerShadow_8411_430" result="effect6_innerShadow_8411_430"/>
</filter>
</defs>
</svg>
