<svg width="75" height="44" viewBox="0 0 75 44" fill="none" xmlns="http://www.w3.org/2000/svg">
<line x1="71.6582" y1="4.30713" x2="4.3418" y2="4.30713" stroke="white" stroke-width="3"/>
<line x1="4.3418" y1="1.5" x2="2.50024" y2="1.5" stroke="white" stroke-width="3"/>
<line x1="73.5" y1="1.5" x2="71.6584" y2="1.5" stroke="white" stroke-width="3"/>
<g filter="url(#filter0_d_7_484)">
<path d="M5.524 13.9591H6.868V12.6151C6.868 12.4071 6.94 12.2311 7.084 12.0871C7.228 11.9431 7.396 11.8711 7.588 11.8711H16.324C16.532 11.8711 16.7 11.9431 16.828 12.0871C16.972 12.2311 17.044 12.4071 17.044 12.6151V14.1031H18.532C18.74 14.1031 18.916 14.1751 19.06 14.3191C19.204 14.4471 19.276 14.6151 19.276 14.8231V16.7671C19.276 16.9751 19.204 17.1511 19.06 17.2951C18.916 17.4231 18.74 17.4871 18.532 17.4871H16.612C16.42 17.4871 16.252 17.4231 16.108 17.2951C15.964 17.1511 15.892 16.9751 15.892 16.7671V15.3991H8.332V18.5431H16.324C16.532 18.5431 16.7 18.6151 16.828 18.7591C16.972 18.9031 17.044 19.0711 17.044 19.2631V20.7511H18.532C18.74 20.7511 18.916 20.8231 19.06 20.9671C19.204 21.1111 19.276 21.2871 19.276 21.4951V27.9991C19.276 28.1911 19.204 28.3591 19.06 28.5031C18.916 28.6471 18.74 28.7191 18.532 28.7191H17.212V30.0871C17.212 30.2791 17.14 30.4471 16.996 30.5911C16.852 30.7351 16.684 30.8071 16.492 30.8071H7.732C7.524 30.8071 7.348 30.7351 7.204 30.5911C7.076 30.4471 7.012 30.2791 7.012 30.0871V28.5991H5.524C5.316 28.5991 5.14 28.5271 4.996 28.3831C4.852 28.2391 4.78 28.0711 4.78 27.8791V25.9111C4.78 25.7191 4.852 25.5511 4.996 25.4071C5.14 25.2631 5.316 25.1911 5.524 25.1911H7.468C7.66 25.1911 7.828 25.2631 7.972 25.4071C8.116 25.5511 8.188 25.7191 8.188 25.9111V27.2791H15.748V21.9271H7.732C7.524 21.9271 7.348 21.8551 7.204 21.7111C7.076 21.5671 7.012 21.3991 7.012 21.2071V19.7191H5.524C5.316 19.7191 5.14 19.6471 4.996 19.5031C4.852 19.3591 4.78 19.1831 4.78 18.9751V14.6791C4.78 14.4871 4.852 14.3191 4.996 14.1751C5.14 14.0311 5.316 13.9591 5.524 13.9591ZM22.4459 11.8711H24.5099C24.7179 11.8711 24.8939 11.9431 25.0379 12.0871C25.1819 12.2311 25.2539 12.4071 25.2539 12.6151V18.2551H32.6699V12.6151C32.6699 12.4071 32.7419 12.2311 32.8859 12.0871C33.0299 11.9431 33.2059 11.8711 33.4139 11.8711H35.4539C35.6619 11.8711 35.8379 11.9431 35.9819 12.0871C36.1259 12.2311 36.1979 12.4071 36.1979 12.6151V30.0871C36.1979 30.2791 36.1259 30.4471 35.9819 30.5911C35.8379 30.7351 35.6619 30.8071 35.4539 30.8071H33.4139C33.2059 30.8071 33.0299 30.7351 32.8859 30.5911C32.7419 30.4471 32.6699 30.2791 32.6699 30.0871V22.2151H25.2539V30.0871C25.2539 30.2791 25.1819 30.4471 25.0379 30.5911C24.8939 30.7351 24.7179 30.8071 24.5099 30.8071H22.4459C22.2379 30.8071 22.0619 30.7351 21.9179 30.5911C21.7739 30.4471 21.7019 30.2791 21.7019 30.0871V12.6151C21.7019 12.4071 21.7739 12.2311 21.9179 12.0871C22.0619 11.9431 22.2379 11.8711 22.4459 11.8711ZM39.5787 11.8711H52.5867C52.7947 11.8711 52.9707 11.9431 53.1147 12.0871C53.2587 12.2311 53.3307 12.4071 53.3307 12.6151V30.0871C53.3307 30.2791 53.2587 30.4471 53.1147 30.5911C52.9707 30.7351 52.7947 30.8071 52.5867 30.8071H39.5787C39.3707 30.8071 39.1947 30.7351 39.0507 30.5911C38.9067 30.4471 38.8347 30.2791 38.8347 30.0871V12.6151C38.8347 12.4071 38.9067 12.2311 39.0507 12.0871C39.1947 11.9431 39.3707 11.8711 39.5787 11.8711ZM42.5067 15.5431V27.1351H49.6587V15.5431H42.5067ZM56.7115 11.8711H67.5115C67.7195 11.8711 67.8875 11.9431 68.0155 12.0871C68.1595 12.2311 68.2315 12.4071 68.2315 12.6151V14.1031H69.7195C69.9275 14.1031 70.1035 14.1751 70.2475 14.3191C70.3915 14.4471 70.4635 14.6151 70.4635 14.8231V21.3511C70.4635 21.5591 70.3915 21.7351 70.2475 21.8791C70.1035 22.0071 69.9275 22.0711 69.7195 22.0711H68.3995V23.5591C68.3995 23.7671 68.3275 23.9431 68.1835 24.0871C68.0395 24.2311 67.8715 24.3031 67.6795 24.3031H59.5195V30.0871C59.5195 30.2791 59.4475 30.4471 59.3035 30.5911C59.1595 30.7351 58.9835 30.8071 58.7755 30.8071H56.7115C56.5035 30.8071 56.3275 30.7351 56.1835 30.5911C56.0395 30.4471 55.9675 30.2791 55.9675 30.0871V12.6151C55.9675 12.4071 56.0395 12.2311 56.1835 12.0871C56.3275 11.9431 56.5035 11.8711 56.7115 11.8711ZM59.6395 20.4871H66.9355V15.3991H59.6395V20.4871Z" fill="white"/>
</g>
<line y1="-1.5" x2="67.3164" y2="-1.5" transform="matrix(-1 0 0 1 71.6582 40.8071)" stroke="white" stroke-width="3"/>
<line y1="-1.5" x2="1.84156" y2="-1.5" transform="matrix(-1 1.79319e-07 4.2621e-08 1 4.3418 43.6143)" stroke="white" stroke-width="3"/>
<line y1="-1.5" x2="1.84156" y2="-1.5" transform="matrix(-1 1.79318e-07 4.26211e-08 1 73.5 43.6143)" stroke="white" stroke-width="3"/>
<defs>
<filter id="filter0_d_7_484" x="0.780273" y="11.8711" width="73.6836" height="26.936" filterUnits="userSpaceOnUse" color-interpolation-filters="sRGB">
<feFlood flood-opacity="0" result="BackgroundImageFix"/>
<feColorMatrix in="SourceAlpha" type="matrix" values="0 0 0 0 0 0 0 0 0 0 0 0 0 0 0 0 0 0 127 0" result="hardAlpha"/>
<feOffset dy="4"/>
<feGaussianBlur stdDeviation="2"/>
<feComposite in2="hardAlpha" operator="out"/>
<feColorMatrix type="matrix" values="0 0 0 0 0.417535 0 0 0 0 0.474062 0 0 0 0 0.770833 0 0 0 0.25 0"/>
<feBlend mode="normal" in2="BackgroundImageFix" result="effect1_dropShadow_7_484"/>
<feBlend mode="normal" in="SourceGraphic" in2="effect1_dropShadow_7_484" result="shape"/>
</filter>
</defs>
</svg>
