<svg width="88" height="44" viewBox="0 0 88 44" fill="none" xmlns="http://www.w3.org/2000/svg">
<line x1="83.3477" y1="4.30713" x2="4.65383" y2="4.30713" stroke="white" stroke-width="3"/>
<line x1="4.65234" y1="1.5" x2="2.49954" y2="1.5" stroke="white" stroke-width="3"/>
<line x1="85.5" y1="1.5" x2="83.3472" y2="1.5" stroke="white" stroke-width="3"/>
<g filter="url(#filter0_d_206_571)">
<path d="M5.524 13.9591H6.868V12.6151C6.868 12.4071 6.94 12.2311 7.084 12.0871C7.228 11.9431 7.396 11.8711 7.588 11.8711H16.324C16.532 11.8711 16.7 11.9431 16.828 12.0871C16.972 12.2311 17.044 12.4071 17.044 12.6151V14.1031H18.532C18.74 14.1031 18.916 14.1751 19.06 14.3191C19.204 14.4471 19.276 14.6151 19.276 14.8231V16.7671C19.276 16.9751 19.204 17.1511 19.06 17.2951C18.916 17.4231 18.74 17.4871 18.532 17.4871H16.612C16.42 17.4871 16.252 17.4231 16.108 17.2951C15.964 17.1511 15.892 16.9751 15.892 16.7671V15.3991H8.332V18.5431H16.324C16.532 18.5431 16.7 18.6151 16.828 18.7591C16.972 18.9031 17.044 19.0711 17.044 19.2631V20.7511H18.532C18.74 20.7511 18.916 20.8231 19.06 20.9671C19.204 21.1111 19.276 21.2871 19.276 21.4951V27.9991C19.276 28.1911 19.204 28.3591 19.06 28.5031C18.916 28.6471 18.74 28.7191 18.532 28.7191H17.212V30.0871C17.212 30.2791 17.14 30.4471 16.996 30.5911C16.852 30.7351 16.684 30.8071 16.492 30.8071H7.732C7.524 30.8071 7.348 30.7351 7.204 30.5911C7.076 30.4471 7.012 30.2791 7.012 30.0871V28.5991H5.524C5.316 28.5991 5.14 28.5271 4.996 28.3831C4.852 28.2391 4.78 28.0711 4.78 27.8791V25.9111C4.78 25.7191 4.852 25.5511 4.996 25.4071C5.14 25.2631 5.316 25.1911 5.524 25.1911H7.468C7.66 25.1911 7.828 25.2631 7.972 25.4071C8.116 25.5511 8.188 25.7191 8.188 25.9111V27.2791H15.748V21.9271H7.732C7.524 21.9271 7.348 21.8551 7.204 21.7111C7.076 21.5671 7.012 21.3991 7.012 21.2071V19.7191H5.524C5.316 19.7191 5.14 19.6471 4.996 19.5031C4.852 19.3591 4.78 19.1831 4.78 18.9751V14.6791C4.78 14.4871 4.852 14.3191 4.996 14.1751C5.14 14.0311 5.316 13.9591 5.524 13.9591ZM22.4459 11.8711H24.5099C24.7179 11.8711 24.8939 11.9431 25.0379 12.0871C25.1819 12.2311 25.2539 12.4071 25.2539 12.6151V18.2551H26.0219V16.9111C26.0219 16.7031 26.0859 16.5271 26.2139 16.3831C26.3579 16.2391 26.5339 16.1671 26.7419 16.1671H28.2299V14.6791C28.2299 14.4871 28.3019 14.3191 28.4459 14.1751C28.5899 14.0311 28.7579 13.9591 28.9499 13.9591H30.4379V12.6151C30.4379 12.4071 30.5099 12.2311 30.6539 12.0871C30.7979 11.9431 30.9659 11.8711 31.1579 11.8711H33.2459C33.4539 11.8711 33.6219 11.9431 33.7499 12.0871C33.8939 12.2311 33.9659 12.4071 33.9659 12.6151V14.6791C33.9659 14.8871 33.8939 15.0631 33.7499 15.2071C33.6219 15.3351 33.4539 15.3991 33.2459 15.3991H31.8779V16.9111C31.8779 17.1031 31.8059 17.2711 31.6619 17.4151C31.5339 17.5591 31.3659 17.6311 31.1579 17.6311H29.6699V19.1191C29.6699 19.3111 29.5979 19.4791 29.4539 19.6231C29.3099 19.7671 29.1419 19.8391 28.9499 19.8391H27.4619V20.7511H28.8299C29.0219 20.7511 29.1899 20.8231 29.3339 20.9671C29.4779 21.1111 29.5499 21.2871 29.5499 21.4951V22.9831H31.0379C31.2299 22.9831 31.3979 23.0551 31.5419 23.1991C31.6859 23.3271 31.7579 23.4951 31.7579 23.7031V25.1911H33.2459C33.4539 25.1911 33.6219 25.2631 33.7499 25.4071C33.8939 25.5511 33.9659 25.7191 33.9659 25.9111V27.3991H35.4539C35.6619 27.3991 35.8379 27.4711 35.9819 27.6151C36.1259 27.7591 36.1979 27.9351 36.1979 28.1431V30.0871C36.1979 30.2791 36.1259 30.4471 35.9819 30.5911C35.8379 30.7351 35.6619 30.8071 35.4539 30.8071H33.5339C33.3419 30.8071 33.1739 30.7351 33.0299 30.5911C32.8859 30.4471 32.8139 30.2791 32.8139 30.0871V28.5991H31.3259C31.1179 28.5991 30.9419 28.5271 30.7979 28.3831C30.6699 28.2391 30.6059 28.0711 30.6059 27.8791V26.3671H29.0699C28.8779 26.3671 28.7099 26.3031 28.5659 26.1751C28.4219 26.0311 28.3499 25.8551 28.3499 25.6471V24.1591H26.8619C26.6699 24.1591 26.5019 24.0871 26.3579 23.9431C26.2139 23.7991 26.1419 23.6311 26.1419 23.4391V22.0711H25.2539V30.0871C25.2539 30.2791 25.1819 30.4471 25.0379 30.5911C24.8939 30.7351 24.7179 30.8071 24.5099 30.8071H22.4459C22.2379 30.8071 22.0619 30.7351 21.9179 30.5911C21.7739 30.4471 21.7019 30.2791 21.7019 30.0871V12.6151C21.7019 12.4071 21.7739 12.2311 21.9179 12.0871C22.0619 11.9431 22.2379 11.8711 22.4459 11.8711ZM38.3337 27.2791H41.7897V15.3991H38.3337C38.1417 15.3991 37.9737 15.3351 37.8297 15.2071C37.6857 15.0631 37.6137 14.8871 37.6137 14.6791V12.6151C37.6137 12.4071 37.6857 12.2311 37.8297 12.0871C37.9737 11.9431 38.1417 11.8711 38.3337 11.8711H49.1577C49.3497 11.8711 49.5177 11.9431 49.6617 12.0871C49.8057 12.2311 49.8777 12.4071 49.8777 12.6151V14.6791C49.8777 14.8871 49.8057 15.0631 49.6617 15.2071C49.5177 15.3351 49.3497 15.3991 49.1577 15.3991H45.7257V27.2791H49.1577C49.3497 27.2791 49.5177 27.3511 49.6617 27.4951C49.8057 27.6391 49.8777 27.8071 49.8777 27.9991V30.0871C49.8777 30.2791 49.8057 30.4471 49.6617 30.5911C49.5177 30.7351 49.3497 30.8071 49.1577 30.8071H38.3337C38.1417 30.8071 37.9737 30.7351 37.8297 30.5911C37.6857 30.4471 37.6137 30.2791 37.6137 30.0871V27.9991C37.6137 27.8071 37.6857 27.6391 37.8297 27.4951C37.9737 27.3511 38.1417 27.2791 38.3337 27.2791ZM62.998 24.3031H61.654C61.446 24.3031 61.27 24.2311 61.126 24.0871C60.998 23.9431 60.934 23.7671 60.934 23.5591V21.9271H59.398C59.206 21.9271 59.038 21.8551 58.894 21.7111C58.75 21.5671 58.678 21.3991 58.678 21.2071V19.7191H57.19C56.998 19.7191 56.83 19.6471 56.686 19.5031C56.542 19.3591 56.47 19.1831 56.47 18.9751V17.6311H55.582V30.0871C55.582 30.2791 55.51 30.4471 55.366 30.5911C55.222 30.7351 55.046 30.8071 54.838 30.8071H52.774C52.566 30.8071 52.39 30.7351 52.246 30.5911C52.102 30.4471 52.03 30.2791 52.03 30.0871V12.6151C52.03 12.4071 52.102 12.2311 52.246 12.0871C52.39 11.9431 52.566 11.8711 52.774 11.8711H54.838C55.046 11.8711 55.222 11.9431 55.366 12.0871C55.51 12.2311 55.582 12.4071 55.582 12.6151V13.9591H56.926C57.134 13.9591 57.302 14.0311 57.43 14.1751C57.574 14.3191 57.646 14.4871 57.646 14.6791V16.3351H59.158C59.35 16.3351 59.518 16.4071 59.662 16.5511C59.806 16.6951 59.878 16.8631 59.878 17.0551V18.5431H61.366C61.558 18.5431 61.726 18.6151 61.87 18.7591C62.014 18.9031 62.086 19.0711 62.086 19.2631V20.6311H62.998V12.6151C62.998 12.4071 63.07 12.2311 63.214 12.0871C63.358 11.9431 63.534 11.8711 63.742 11.8711H65.782C65.99 11.8711 66.166 11.9431 66.31 12.0871C66.454 12.2311 66.526 12.4071 66.526 12.6151V30.0871C66.526 30.2791 66.454 30.4471 66.31 30.5911C66.166 30.7351 65.99 30.8071 65.782 30.8071H63.742C63.534 30.8071 63.358 30.7351 63.214 30.5911C63.07 30.4471 62.998 30.2791 62.998 30.0871V24.3031ZM69.4381 13.9591H70.7821V12.6151C70.7821 12.4071 70.8541 12.2311 70.9981 12.0871C71.1421 11.9431 71.3101 11.8711 71.5021 11.8711H80.2381C80.4461 11.8711 80.6141 11.9431 80.7421 12.0871C80.8861 12.2311 80.9581 12.4071 80.9581 12.6151V14.1031H82.4461C82.6541 14.1031 82.8301 14.1751 82.9741 14.3191C83.1181 14.4471 83.1901 14.6151 83.1901 14.8231V16.7671C83.1901 16.9751 83.1181 17.1511 82.9741 17.2951C82.8301 17.4231 82.6541 17.4871 82.4461 17.4871H80.5261C80.3341 17.4871 80.1661 17.4231 80.0221 17.2951C79.8781 17.1511 79.8061 16.9751 79.8061 16.7671V15.3991H72.2461V18.5431H80.2381C80.4461 18.5431 80.6141 18.6151 80.7421 18.7591C80.8861 18.9031 80.9581 19.0711 80.9581 19.2631V20.7511H82.4461C82.6541 20.7511 82.8301 20.8231 82.9741 20.9671C83.1181 21.1111 83.1901 21.2871 83.1901 21.4951V27.9991C83.1901 28.1911 83.1181 28.3591 82.9741 28.5031C82.8301 28.6471 82.6541 28.7191 82.4461 28.7191H81.1261V30.0871C81.1261 30.2791 81.0541 30.4471 80.9101 30.5911C80.7661 30.7351 80.5981 30.8071 80.4061 30.8071H71.6461C71.4381 30.8071 71.2621 30.7351 71.1181 30.5911C70.9901 30.4471 70.9261 30.2791 70.9261 30.0871V28.5991H69.4381C69.2301 28.5991 69.0541 28.5271 68.9101 28.3831C68.7661 28.2391 68.6941 28.0711 68.6941 27.8791V25.9111C68.6941 25.7191 68.7661 25.5511 68.9101 25.4071C69.0541 25.2631 69.2301 25.1911 69.4381 25.1911H71.3821C71.5741 25.1911 71.7421 25.2631 71.8861 25.4071C72.0301 25.5511 72.1021 25.7191 72.1021 25.9111V27.2791H79.6621V21.9271H71.6461C71.4381 21.9271 71.2621 21.8551 71.1181 21.7111C70.9901 21.5671 70.9261 21.3991 70.9261 21.2071V19.7191H69.4381C69.2301 19.7191 69.0541 19.6471 68.9101 19.5031C68.7661 19.3591 68.6941 19.1831 68.6941 18.9751V14.6791C68.6941 14.4871 68.7661 14.3191 68.9101 14.1751C69.0541 14.0311 69.2301 13.9591 69.4381 13.9591Z" fill="white"/>
</g>
<line y1="-1.5" x2="78.6938" y2="-1.5" transform="matrix(-1 0 0 1 83.3477 40.8071)" stroke="white" stroke-width="3"/>
<line y1="-1.5" x2="2.15281" y2="-1.5" transform="matrix(-1 1.53393e-07 4.98245e-08 1 4.65234 43.6143)" stroke="white" stroke-width="3"/>
<line y1="-1.5" x2="2.15281" y2="-1.5" transform="matrix(-1 1.53393e-07 4.98246e-08 1 85.5 43.6143)" stroke="white" stroke-width="3"/>
<defs>
<filter id="filter0_d_206_571" x="0.780273" y="11.8711" width="86.4102" height="26.936" filterUnits="userSpaceOnUse" color-interpolation-filters="sRGB">
<feFlood flood-opacity="0" result="BackgroundImageFix"/>
<feColorMatrix in="SourceAlpha" type="matrix" values="0 0 0 0 0 0 0 0 0 0 0 0 0 0 0 0 0 0 127 0" result="hardAlpha"/>
<feOffset dy="4"/>
<feGaussianBlur stdDeviation="2"/>
<feComposite in2="hardAlpha" operator="out"/>
<feColorMatrix type="matrix" values="0 0 0 0 0.417535 0 0 0 0 0.474062 0 0 0 0 0.770833 0 0 0 0.25 0"/>
<feBlend mode="normal" in2="BackgroundImageFix" result="effect1_dropShadow_206_571"/>
<feBlend mode="normal" in="SourceGraphic" in2="effect1_dropShadow_206_571" result="shape"/>
</filter>
</defs>
</svg>
