<svg width="103" height="103" viewBox="0 0 103 103" fill="none" xmlns="http://www.w3.org/2000/svg">
<g filter="url(#filter0_ddddii_8411_438)">
<rect x="15" y="15" width="70" height="70" rx="20" fill="white"/>
<mask id="path-2-outside-1_8411_438" maskUnits="userSpaceOnUse" x="26.3867" y="26.7031" width="44" height="46" fill="black">
<rect fill="white" x="26.3867" y="26.7031" width="44" height="46"/>
<path d="M69.4786 34.127H64.7898C64.6236 34.127 64.4641 34.2016 64.3465 34.3345C64.2289 34.4673 64.1628 34.6476 64.1628 34.8355C64.1628 35.0234 64.2289 35.2036 64.3465 35.3365C64.4641 35.4693 64.6236 35.544 64.7898 35.544H68.8516V65.0652C68.8516 68.0083 66.7328 70.4027 64.1283 70.4027C61.5239 70.4027 59.405 68.0083 59.405 65.0652C59.405 64.8773 59.3389 64.6971 59.2214 64.5643C59.1038 64.4314 58.9443 64.3567 58.778 64.3567H43.723C43.5567 64.3567 43.3972 64.4314 43.2796 64.5643C43.162 64.6971 43.096 64.8773 43.096 65.0652C43.096 65.2532 43.162 65.4334 43.2796 65.5662C43.3972 65.6991 43.5567 65.7738 43.723 65.7738H58.1837C58.3576 67.6514 59.2151 69.3024 60.4691 70.4027H33.364C30.9721 70.4027 28.9897 68.3832 28.6822 65.7738H40.7207C40.887 65.7738 41.0465 65.6991 41.1641 65.5662C41.2816 65.4334 41.3477 65.2532 41.3477 65.0652C41.3477 64.8773 41.2816 64.6971 41.1641 64.5643C41.0465 64.4314 40.887 64.3567 40.7207 64.3567H33.991V35.544H41.0959C41.7975 36.2485 42.7201 36.6776 43.7303 36.6776C44.5993 36.6776 45.4033 36.3597 46.0579 35.8226L49.6404 39.8709C49.7628 40.0092 49.9233 40.0784 50.0837 40.0784C50.2442 40.0784 50.4047 40.0093 50.5271 39.8709C50.6446 39.738 50.7107 39.5578 50.7107 39.3699C50.7107 39.182 50.6446 39.0018 50.5271 38.869L47.5847 35.544H61.8457C62.0119 35.544 62.1714 35.4693 62.289 35.3365C62.4066 35.2036 62.4727 35.0234 62.4727 34.8355C62.4727 34.6476 62.4066 34.4673 62.289 34.3345C62.1714 34.2016 62.0119 34.127 61.8457 34.127H47.3119C47.5688 33.5227 47.7018 32.8607 47.7012 32.1904C47.7012 29.7161 45.9198 27.7031 43.7303 27.7031C41.5407 27.7031 39.7593 29.7161 39.7593 32.1904C39.7587 32.8607 39.8917 33.5227 40.1486 34.127H33.364C33.1977 34.127 33.0383 34.2016 32.9207 34.3345C32.8031 34.4673 32.737 34.6476 32.737 34.8355V64.3567H28.0137C27.8474 64.3567 27.6879 64.4314 27.5704 64.5643C27.4528 64.6971 27.3867 64.8773 27.3867 65.0652C27.3867 68.7896 30.0681 71.8197 33.364 71.8197H64.1283C67.4242 71.8197 70.1056 68.7896 70.1056 65.0652V34.8355C70.1056 34.6476 70.0396 34.4673 69.922 34.3345C69.8044 34.2016 69.6449 34.127 69.4786 34.127ZM43.7303 29.1201C45.2283 29.1201 46.4472 30.4975 46.4472 32.1904C46.4472 32.9644 46.1918 33.6719 45.7721 34.2125C45.7643 34.2174 45.757 34.2229 45.7494 34.2281C45.7405 34.2341 45.7316 34.2397 45.723 34.2463C45.7134 34.2535 45.7044 34.2616 45.6951 34.2694C45.688 34.2755 45.6806 34.281 45.6737 34.2875C45.6417 34.3171 45.6123 34.3503 45.5861 34.3865C45.5802 34.3946 45.575 34.4031 45.5695 34.4114C45.5627 34.4215 45.5558 34.4314 45.5495 34.442C45.5435 34.4521 45.5383 34.4627 45.5328 34.4731C45.5285 34.4813 45.5237 34.4891 45.5197 34.4976C45.0413 34.9721 44.4153 35.2606 43.7303 35.2606C42.2322 35.2606 41.0133 33.8832 41.0133 32.1904C41.0133 30.4975 42.2322 29.1201 43.7303 29.1201Z"/>
<path d="M43.5131 46.0376C43.5131 45.843 43.4447 45.6563 43.3229 45.5187C43.2011 45.3811 43.0359 45.3037 42.8637 45.3037H38.7074C38.5351 45.3037 38.37 45.3811 38.2482 45.5187C38.1264 45.6563 38.058 45.843 38.058 46.0376C38.058 46.2322 38.1264 46.4189 38.2482 46.5565C38.37 46.6941 38.5351 46.7715 38.7074 46.7715H40.1383C40.1373 46.7877 40.1361 46.8038 40.1361 46.8204V52.2998C40.1361 52.4945 40.2045 52.6811 40.3263 52.8187C40.4481 52.9564 40.6133 53.0337 40.7855 53.0337C40.9578 53.0337 41.1229 52.9564 41.2447 52.8187C41.3665 52.6811 41.4349 52.4945 41.4349 52.2998V46.8204C41.4349 46.8038 41.4337 46.7877 41.4328 46.7715H42.8637C43.0359 46.7715 43.2011 46.6941 43.3229 46.5565C43.4447 46.4189 43.5131 46.2322 43.5131 46.0376ZM46.3272 53.0337C47.8312 53.0337 49.0548 51.2998 49.0548 49.1687C49.0548 47.0376 47.8312 45.3037 46.3272 45.3037C44.8233 45.3037 43.5997 47.0376 43.5997 49.1687C43.5997 51.2998 44.8233 53.0337 46.3272 53.0337ZM46.3272 46.7715C47.1017 46.7715 47.7559 47.8693 47.7559 49.1687C47.7559 50.4681 47.1017 51.566 46.3272 51.566C45.5528 51.566 44.8985 50.4681 44.8985 49.1687C44.8985 47.8693 45.5528 46.7715 46.3272 46.7715ZM58.8393 49.1687C58.8393 51.2998 60.0629 53.0337 61.5669 53.0337C63.0709 53.0337 64.2945 51.2998 64.2945 49.1687C64.2945 47.0376 63.0709 45.3037 61.5669 45.3037C60.0629 45.3037 58.8393 47.0376 58.8393 49.1687ZM62.9956 49.1687C62.9956 50.4681 62.3414 51.566 61.5669 51.566C60.7924 51.566 60.1382 50.4681 60.1382 49.1687C60.1382 47.8693 60.7924 46.7715 61.5669 46.7715C62.3414 46.7715 62.9956 47.8693 62.9956 49.1687ZM57.3673 49.1687C57.3673 45.4586 52.8603 44.5671 52.6684 44.5309C52.5754 44.5135 52.4801 44.5191 52.3892 44.5474C52.2983 44.5757 52.2139 44.6261 52.1419 44.695C52.07 44.7638 52.0121 44.8496 51.9725 44.9463C51.9328 45.043 51.9122 45.1483 51.9122 45.2548V52.2998C51.9122 52.4945 51.9806 52.6811 52.1024 52.8187C52.2242 52.9564 52.3894 53.0337 52.5616 53.0337C54.2238 53.0337 57.3673 52.226 57.3673 49.1687ZM53.2111 46.1904C54.271 46.5503 56.0685 47.4187 56.0685 49.1687C56.0685 50.8869 54.2248 51.3739 53.2111 51.5117V46.1904ZM59.4455 56.2137C59.4455 56.0191 59.377 55.8324 59.2553 55.6948C59.1335 55.5572 58.9683 55.4799 58.796 55.4799H44.9418C44.7696 55.4799 44.6044 55.5572 44.4826 55.6948C44.3608 55.8324 44.2924 56.0191 44.2924 56.2137C44.2924 56.4084 44.3608 56.595 44.4826 56.7326C44.6044 56.8703 44.7696 56.9476 44.9418 56.9476H58.796C58.9683 56.9476 59.1335 56.8703 59.2553 56.7326C59.377 56.595 59.4455 56.4084 59.4455 56.2137ZM46.3272 59.3938C46.155 59.3938 45.9898 59.4711 45.868 59.6087C45.7462 59.7463 45.6778 59.933 45.6778 60.1276C45.6778 60.3222 45.7462 60.5089 45.868 60.6465C45.9898 60.7842 46.155 60.8615 46.3272 60.8615H55.3325C55.5047 60.8615 55.6699 60.7842 55.7917 60.6465C55.9135 60.5089 55.9819 60.3222 55.9819 60.1276C55.9819 59.933 55.9135 59.7463 55.7917 59.6087C55.6699 59.4711 55.5047 59.3938 55.3325 59.3938H46.3272Z"/>
</mask>
<path d="M69.4786 34.127H64.7898C64.6236 34.127 64.4641 34.2016 64.3465 34.3345C64.2289 34.4673 64.1628 34.6476 64.1628 34.8355C64.1628 35.0234 64.2289 35.2036 64.3465 35.3365C64.4641 35.4693 64.6236 35.544 64.7898 35.544H68.8516V65.0652C68.8516 68.0083 66.7328 70.4027 64.1283 70.4027C61.5239 70.4027 59.405 68.0083 59.405 65.0652C59.405 64.8773 59.3389 64.6971 59.2214 64.5643C59.1038 64.4314 58.9443 64.3567 58.778 64.3567H43.723C43.5567 64.3567 43.3972 64.4314 43.2796 64.5643C43.162 64.6971 43.096 64.8773 43.096 65.0652C43.096 65.2532 43.162 65.4334 43.2796 65.5662C43.3972 65.6991 43.5567 65.7738 43.723 65.7738H58.1837C58.3576 67.6514 59.2151 69.3024 60.4691 70.4027H33.364C30.9721 70.4027 28.9897 68.3832 28.6822 65.7738H40.7207C40.887 65.7738 41.0465 65.6991 41.1641 65.5662C41.2816 65.4334 41.3477 65.2532 41.3477 65.0652C41.3477 64.8773 41.2816 64.6971 41.1641 64.5643C41.0465 64.4314 40.887 64.3567 40.7207 64.3567H33.991V35.544H41.0959C41.7975 36.2485 42.7201 36.6776 43.7303 36.6776C44.5993 36.6776 45.4033 36.3597 46.0579 35.8226L49.6404 39.8709C49.7628 40.0092 49.9233 40.0784 50.0837 40.0784C50.2442 40.0784 50.4047 40.0093 50.5271 39.8709C50.6446 39.738 50.7107 39.5578 50.7107 39.3699C50.7107 39.182 50.6446 39.0018 50.5271 38.869L47.5847 35.544H61.8457C62.0119 35.544 62.1714 35.4693 62.289 35.3365C62.4066 35.2036 62.4727 35.0234 62.4727 34.8355C62.4727 34.6476 62.4066 34.4673 62.289 34.3345C62.1714 34.2016 62.0119 34.127 61.8457 34.127H47.3119C47.5688 33.5227 47.7018 32.8607 47.7012 32.1904C47.7012 29.7161 45.9198 27.7031 43.7303 27.7031C41.5407 27.7031 39.7593 29.7161 39.7593 32.1904C39.7587 32.8607 39.8917 33.5227 40.1486 34.127H33.364C33.1977 34.127 33.0383 34.2016 32.9207 34.3345C32.8031 34.4673 32.737 34.6476 32.737 34.8355V64.3567H28.0137C27.8474 64.3567 27.6879 64.4314 27.5704 64.5643C27.4528 64.6971 27.3867 64.8773 27.3867 65.0652C27.3867 68.7896 30.0681 71.8197 33.364 71.8197H64.1283C67.4242 71.8197 70.1056 68.7896 70.1056 65.0652V34.8355C70.1056 34.6476 70.0396 34.4673 69.922 34.3345C69.8044 34.2016 69.6449 34.127 69.4786 34.127ZM43.7303 29.1201C45.2283 29.1201 46.4472 30.4975 46.4472 32.1904C46.4472 32.9644 46.1918 33.6719 45.7721 34.2125C45.7643 34.2174 45.757 34.2229 45.7494 34.2281C45.7405 34.2341 45.7316 34.2397 45.723 34.2463C45.7134 34.2535 45.7044 34.2616 45.6951 34.2694C45.688 34.2755 45.6806 34.281 45.6737 34.2875C45.6417 34.3171 45.6123 34.3503 45.5861 34.3865C45.5802 34.3946 45.575 34.4031 45.5695 34.4114C45.5627 34.4215 45.5558 34.4314 45.5495 34.442C45.5435 34.4521 45.5383 34.4627 45.5328 34.4731C45.5285 34.4813 45.5237 34.4891 45.5197 34.4976C45.0413 34.9721 44.4153 35.2606 43.7303 35.2606C42.2322 35.2606 41.0133 33.8832 41.0133 32.1904C41.0133 30.4975 42.2322 29.1201 43.7303 29.1201Z" fill="#004D94"/>
<path d="M43.5131 46.0376C43.5131 45.843 43.4447 45.6563 43.3229 45.5187C43.2011 45.3811 43.0359 45.3037 42.8637 45.3037H38.7074C38.5351 45.3037 38.37 45.3811 38.2482 45.5187C38.1264 45.6563 38.058 45.843 38.058 46.0376C38.058 46.2322 38.1264 46.4189 38.2482 46.5565C38.37 46.6941 38.5351 46.7715 38.7074 46.7715H40.1383C40.1373 46.7877 40.1361 46.8038 40.1361 46.8204V52.2998C40.1361 52.4945 40.2045 52.6811 40.3263 52.8187C40.4481 52.9564 40.6133 53.0337 40.7855 53.0337C40.9578 53.0337 41.1229 52.9564 41.2447 52.8187C41.3665 52.6811 41.4349 52.4945 41.4349 52.2998V46.8204C41.4349 46.8038 41.4337 46.7877 41.4328 46.7715H42.8637C43.0359 46.7715 43.2011 46.6941 43.3229 46.5565C43.4447 46.4189 43.5131 46.2322 43.5131 46.0376ZM46.3272 53.0337C47.8312 53.0337 49.0548 51.2998 49.0548 49.1687C49.0548 47.0376 47.8312 45.3037 46.3272 45.3037C44.8233 45.3037 43.5997 47.0376 43.5997 49.1687C43.5997 51.2998 44.8233 53.0337 46.3272 53.0337ZM46.3272 46.7715C47.1017 46.7715 47.7559 47.8693 47.7559 49.1687C47.7559 50.4681 47.1017 51.566 46.3272 51.566C45.5528 51.566 44.8985 50.4681 44.8985 49.1687C44.8985 47.8693 45.5528 46.7715 46.3272 46.7715ZM58.8393 49.1687C58.8393 51.2998 60.0629 53.0337 61.5669 53.0337C63.0709 53.0337 64.2945 51.2998 64.2945 49.1687C64.2945 47.0376 63.0709 45.3037 61.5669 45.3037C60.0629 45.3037 58.8393 47.0376 58.8393 49.1687ZM62.9956 49.1687C62.9956 50.4681 62.3414 51.566 61.5669 51.566C60.7924 51.566 60.1382 50.4681 60.1382 49.1687C60.1382 47.8693 60.7924 46.7715 61.5669 46.7715C62.3414 46.7715 62.9956 47.8693 62.9956 49.1687ZM57.3673 49.1687C57.3673 45.4586 52.8603 44.5671 52.6684 44.5309C52.5754 44.5135 52.4801 44.5191 52.3892 44.5474C52.2983 44.5757 52.2139 44.6261 52.1419 44.695C52.07 44.7638 52.0121 44.8496 51.9725 44.9463C51.9328 45.043 51.9122 45.1483 51.9122 45.2548V52.2998C51.9122 52.4945 51.9806 52.6811 52.1024 52.8187C52.2242 52.9564 52.3894 53.0337 52.5616 53.0337C54.2238 53.0337 57.3673 52.226 57.3673 49.1687ZM53.2111 46.1904C54.271 46.5503 56.0685 47.4187 56.0685 49.1687C56.0685 50.8869 54.2248 51.3739 53.2111 51.5117V46.1904ZM59.4455 56.2137C59.4455 56.0191 59.377 55.8324 59.2553 55.6948C59.1335 55.5572 58.9683 55.4799 58.796 55.4799H44.9418C44.7696 55.4799 44.6044 55.5572 44.4826 55.6948C44.3608 55.8324 44.2924 56.0191 44.2924 56.2137C44.2924 56.4084 44.3608 56.595 44.4826 56.7326C44.6044 56.8703 44.7696 56.9476 44.9418 56.9476H58.796C58.9683 56.9476 59.1335 56.8703 59.2553 56.7326C59.377 56.595 59.4455 56.4084 59.4455 56.2137ZM46.3272 59.3938C46.155 59.3938 45.9898 59.4711 45.868 59.6087C45.7462 59.7463 45.6778 59.933 45.6778 60.1276C45.6778 60.3222 45.7462 60.5089 45.868 60.6465C45.9898 60.7842 46.155 60.8615 46.3272 60.8615H55.3325C55.5047 60.8615 55.6699 60.7842 55.7917 60.6465C55.9135 60.5089 55.9819 60.3222 55.9819 60.1276C55.9819 59.933 55.9135 59.7463 55.7917 59.6087C55.6699 59.4711 55.5047 59.3938 55.3325 59.3938H46.3272Z" fill="#004D94"/>
<path d="M69.4786 34.127H64.7898C64.6236 34.127 64.4641 34.2016 64.3465 34.3345C64.2289 34.4673 64.1628 34.6476 64.1628 34.8355C64.1628 35.0234 64.2289 35.2036 64.3465 35.3365C64.4641 35.4693 64.6236 35.544 64.7898 35.544H68.8516V65.0652C68.8516 68.0083 66.7328 70.4027 64.1283 70.4027C61.5239 70.4027 59.405 68.0083 59.405 65.0652C59.405 64.8773 59.3389 64.6971 59.2214 64.5643C59.1038 64.4314 58.9443 64.3567 58.778 64.3567H43.723C43.5567 64.3567 43.3972 64.4314 43.2796 64.5643C43.162 64.6971 43.096 64.8773 43.096 65.0652C43.096 65.2532 43.162 65.4334 43.2796 65.5662C43.3972 65.6991 43.5567 65.7738 43.723 65.7738H58.1837C58.3576 67.6514 59.2151 69.3024 60.4691 70.4027H33.364C30.9721 70.4027 28.9897 68.3832 28.6822 65.7738H40.7207C40.887 65.7738 41.0465 65.6991 41.1641 65.5662C41.2816 65.4334 41.3477 65.2532 41.3477 65.0652C41.3477 64.8773 41.2816 64.6971 41.1641 64.5643C41.0465 64.4314 40.887 64.3567 40.7207 64.3567H33.991V35.544H41.0959C41.7975 36.2485 42.7201 36.6776 43.7303 36.6776C44.5993 36.6776 45.4033 36.3597 46.0579 35.8226L49.6404 39.8709C49.7628 40.0092 49.9233 40.0784 50.0837 40.0784C50.2442 40.0784 50.4047 40.0093 50.5271 39.8709C50.6446 39.738 50.7107 39.5578 50.7107 39.3699C50.7107 39.182 50.6446 39.0018 50.5271 38.869L47.5847 35.544H61.8457C62.0119 35.544 62.1714 35.4693 62.289 35.3365C62.4066 35.2036 62.4727 35.0234 62.4727 34.8355C62.4727 34.6476 62.4066 34.4673 62.289 34.3345C62.1714 34.2016 62.0119 34.127 61.8457 34.127H47.3119C47.5688 33.5227 47.7018 32.8607 47.7012 32.1904C47.7012 29.7161 45.9198 27.7031 43.7303 27.7031C41.5407 27.7031 39.7593 29.7161 39.7593 32.1904C39.7587 32.8607 39.8917 33.5227 40.1486 34.127H33.364C33.1977 34.127 33.0383 34.2016 32.9207 34.3345C32.8031 34.4673 32.737 34.6476 32.737 34.8355V64.3567H28.0137C27.8474 64.3567 27.6879 64.4314 27.5704 64.5643C27.4528 64.6971 27.3867 64.8773 27.3867 65.0652C27.3867 68.7896 30.0681 71.8197 33.364 71.8197H64.1283C67.4242 71.8197 70.1056 68.7896 70.1056 65.0652V34.8355C70.1056 34.6476 70.0396 34.4673 69.922 34.3345C69.8044 34.2016 69.6449 34.127 69.4786 34.127ZM43.7303 29.1201C45.2283 29.1201 46.4472 30.4975 46.4472 32.1904C46.4472 32.9644 46.1918 33.6719 45.7721 34.2125C45.7643 34.2174 45.757 34.2229 45.7494 34.2281C45.7405 34.2341 45.7316 34.2397 45.723 34.2463C45.7134 34.2535 45.7044 34.2616 45.6951 34.2694C45.688 34.2755 45.6806 34.281 45.6737 34.2875C45.6417 34.3171 45.6123 34.3503 45.5861 34.3865C45.5802 34.3946 45.575 34.4031 45.5695 34.4114C45.5627 34.4215 45.5558 34.4314 45.5495 34.442C45.5435 34.4521 45.5383 34.4627 45.5328 34.4731C45.5285 34.4813 45.5237 34.4891 45.5197 34.4976C45.0413 34.9721 44.4153 35.2606 43.7303 35.2606C42.2322 35.2606 41.0133 33.8832 41.0133 32.1904C41.0133 30.4975 42.2322 29.1201 43.7303 29.1201Z" stroke="#004D94" stroke-width="0.4" mask="url(#path-2-outside-1_8411_438)"/>
<path d="M43.5131 46.0376C43.5131 45.843 43.4447 45.6563 43.3229 45.5187C43.2011 45.3811 43.0359 45.3037 42.8637 45.3037H38.7074C38.5351 45.3037 38.37 45.3811 38.2482 45.5187C38.1264 45.6563 38.058 45.843 38.058 46.0376C38.058 46.2322 38.1264 46.4189 38.2482 46.5565C38.37 46.6941 38.5351 46.7715 38.7074 46.7715H40.1383C40.1373 46.7877 40.1361 46.8038 40.1361 46.8204V52.2998C40.1361 52.4945 40.2045 52.6811 40.3263 52.8187C40.4481 52.9564 40.6133 53.0337 40.7855 53.0337C40.9578 53.0337 41.1229 52.9564 41.2447 52.8187C41.3665 52.6811 41.4349 52.4945 41.4349 52.2998V46.8204C41.4349 46.8038 41.4337 46.7877 41.4328 46.7715H42.8637C43.0359 46.7715 43.2011 46.6941 43.3229 46.5565C43.4447 46.4189 43.5131 46.2322 43.5131 46.0376ZM46.3272 53.0337C47.8312 53.0337 49.0548 51.2998 49.0548 49.1687C49.0548 47.0376 47.8312 45.3037 46.3272 45.3037C44.8233 45.3037 43.5997 47.0376 43.5997 49.1687C43.5997 51.2998 44.8233 53.0337 46.3272 53.0337ZM46.3272 46.7715C47.1017 46.7715 47.7559 47.8693 47.7559 49.1687C47.7559 50.4681 47.1017 51.566 46.3272 51.566C45.5528 51.566 44.8985 50.4681 44.8985 49.1687C44.8985 47.8693 45.5528 46.7715 46.3272 46.7715ZM58.8393 49.1687C58.8393 51.2998 60.0629 53.0337 61.5669 53.0337C63.0709 53.0337 64.2945 51.2998 64.2945 49.1687C64.2945 47.0376 63.0709 45.3037 61.5669 45.3037C60.0629 45.3037 58.8393 47.0376 58.8393 49.1687ZM62.9956 49.1687C62.9956 50.4681 62.3414 51.566 61.5669 51.566C60.7924 51.566 60.1382 50.4681 60.1382 49.1687C60.1382 47.8693 60.7924 46.7715 61.5669 46.7715C62.3414 46.7715 62.9956 47.8693 62.9956 49.1687ZM57.3673 49.1687C57.3673 45.4586 52.8603 44.5671 52.6684 44.5309C52.5754 44.5135 52.4801 44.5191 52.3892 44.5474C52.2983 44.5757 52.2139 44.6261 52.1419 44.695C52.07 44.7638 52.0121 44.8496 51.9725 44.9463C51.9328 45.043 51.9122 45.1483 51.9122 45.2548V52.2998C51.9122 52.4945 51.9806 52.6811 52.1024 52.8187C52.2242 52.9564 52.3894 53.0337 52.5616 53.0337C54.2238 53.0337 57.3673 52.226 57.3673 49.1687ZM53.2111 46.1904C54.271 46.5503 56.0685 47.4187 56.0685 49.1687C56.0685 50.8869 54.2248 51.3739 53.2111 51.5117V46.1904ZM59.4455 56.2137C59.4455 56.0191 59.377 55.8324 59.2553 55.6948C59.1335 55.5572 58.9683 55.4799 58.796 55.4799H44.9418C44.7696 55.4799 44.6044 55.5572 44.4826 55.6948C44.3608 55.8324 44.2924 56.0191 44.2924 56.2137C44.2924 56.4084 44.3608 56.595 44.4826 56.7326C44.6044 56.8703 44.7696 56.9476 44.9418 56.9476H58.796C58.9683 56.9476 59.1335 56.8703 59.2553 56.7326C59.377 56.595 59.4455 56.4084 59.4455 56.2137ZM46.3272 59.3938C46.155 59.3938 45.9898 59.4711 45.868 59.6087C45.7462 59.7463 45.6778 59.933 45.6778 60.1276C45.6778 60.3222 45.7462 60.5089 45.868 60.6465C45.9898 60.7842 46.155 60.8615 46.3272 60.8615H55.3325C55.5047 60.8615 55.6699 60.7842 55.7917 60.6465C55.9135 60.5089 55.9819 60.3222 55.9819 60.1276C55.9819 59.933 55.9135 59.7463 55.7917 59.6087C55.6699 59.4711 55.5047 59.3938 55.3325 59.3938H46.3272Z" stroke="#004D94" stroke-width="0.4" mask="url(#path-2-outside-1_8411_438)"/>
</g>
<defs>
<filter id="filter0_ddddii_8411_438" x="0" y="0" width="103" height="103" filterUnits="userSpaceOnUse" color-interpolation-filters="sRGB">
<feFlood flood-opacity="0" result="BackgroundImageFix"/>
<feColorMatrix in="SourceAlpha" type="matrix" values="0 0 0 0 0 0 0 0 0 0 0 0 0 0 0 0 0 0 127 0" result="hardAlpha"/>
<feOffset dx="5" dy="5"/>
<feGaussianBlur stdDeviation="6.5"/>
<feColorMatrix type="matrix" values="0 0 0 0 0.901961 0 0 0 0 0.901961 0 0 0 0 0.901961 0 0 0 0.9 0"/>
<feBlend mode="normal" in2="BackgroundImageFix" result="effect1_dropShadow_8411_438"/>
<feColorMatrix in="SourceAlpha" type="matrix" values="0 0 0 0 0 0 0 0 0 0 0 0 0 0 0 0 0 0 127 0" result="hardAlpha"/>
<feOffset dx="-5" dy="-5"/>
<feGaussianBlur stdDeviation="5"/>
<feColorMatrix type="matrix" values="0 0 0 0 1 0 0 0 0 1 0 0 0 0 1 0 0 0 0.9 0"/>
<feBlend mode="normal" in2="effect1_dropShadow_8411_438" result="effect2_dropShadow_8411_438"/>
<feColorMatrix in="SourceAlpha" type="matrix" values="0 0 0 0 0 0 0 0 0 0 0 0 0 0 0 0 0 0 127 0" result="hardAlpha"/>
<feOffset dx="5" dy="-5"/>
<feGaussianBlur stdDeviation="5"/>
<feColorMatrix type="matrix" values="0 0 0 0 0.901961 0 0 0 0 0.901961 0 0 0 0 0.901961 0 0 0 0.2 0"/>
<feBlend mode="normal" in2="effect2_dropShadow_8411_438" result="effect3_dropShadow_8411_438"/>
<feColorMatrix in="SourceAlpha" type="matrix" values="0 0 0 0 0 0 0 0 0 0 0 0 0 0 0 0 0 0 127 0" result="hardAlpha"/>
<feOffset dx="-5" dy="5"/>
<feGaussianBlur stdDeviation="5"/>
<feColorMatrix type="matrix" values="0 0 0 0 0.901961 0 0 0 0 0.901961 0 0 0 0 0.901961 0 0 0 0.2 0"/>
<feBlend mode="normal" in2="effect3_dropShadow_8411_438" result="effect4_dropShadow_8411_438"/>
<feBlend mode="normal" in="SourceGraphic" in2="effect4_dropShadow_8411_438" result="shape"/>
<feColorMatrix in="SourceAlpha" type="matrix" values="0 0 0 0 0 0 0 0 0 0 0 0 0 0 0 0 0 0 127 0" result="hardAlpha"/>
<feOffset dx="-1" dy="-1"/>
<feGaussianBlur stdDeviation="1"/>
<feComposite in2="hardAlpha" operator="arithmetic" k2="-1" k3="1"/>
<feColorMatrix type="matrix" values="0 0 0 0 0.901961 0 0 0 0 0.901961 0 0 0 0 0.901961 0 0 0 0.5 0"/>
<feBlend mode="normal" in2="shape" result="effect5_innerShadow_8411_438"/>
<feColorMatrix in="SourceAlpha" type="matrix" values="0 0 0 0 0 0 0 0 0 0 0 0 0 0 0 0 0 0 127 0" result="hardAlpha"/>
<feOffset dx="1" dy="1"/>
<feGaussianBlur stdDeviation="1"/>
<feComposite in2="hardAlpha" operator="arithmetic" k2="-1" k3="1"/>
<feColorMatrix type="matrix" values="0 0 0 0 1 0 0 0 0 1 0 0 0 0 1 0 0 0 0.3 0"/>
<feBlend mode="normal" in2="effect5_innerShadow_8411_438" result="effect6_innerShadow_8411_438"/>
</filter>
</defs>
</svg>
