<svg width="103" height="69" viewBox="0 0 103 69" fill="none" xmlns="http://www.w3.org/2000/svg">
<g filter="url(#filter0_ddddii_7_812)">
<rect x="15" y="15.8071" width="70" height="35" rx="17.5" fill="#00FFA3"/>
<path d="M26.512 28.3391H27.484C27.58 28.3391 27.664 28.3751 27.736 28.4471C27.808 28.5191 27.844 28.6071 27.844 28.7111V36.0431H31.624V28.7111C31.624 28.6071 31.66 28.5191 31.732 28.4471C31.804 28.3751 31.892 28.3391 31.996 28.3391H33.016C33.12 28.3391 33.208 28.3751 33.28 28.4471C33.352 28.5191 33.388 28.6071 33.388 28.7111V36.4031C33.388 36.4991 33.352 36.5831 33.28 36.6551C33.208 36.7271 33.12 36.7631 33.016 36.7631H32.356V37.4471C32.356 37.5431 32.32 37.6271 32.248 37.6991C32.176 37.7711 32.092 37.8071 31.996 37.8071H27.616C27.512 37.8071 27.424 37.7711 27.352 37.6991C27.288 37.6271 27.256 37.5431 27.256 37.4471V36.7031H26.512C26.408 36.7031 26.32 36.6671 26.248 36.5951C26.176 36.5231 26.14 36.4391 26.14 36.3431V28.7111C26.14 28.6071 26.176 28.5191 26.248 28.4471C26.32 28.3751 26.408 28.3391 26.512 28.3391ZM35.0667 28.3391H40.4667C40.5707 28.3391 40.6547 28.3751 40.7187 28.4471C40.7907 28.5191 40.8267 28.6071 40.8267 28.7111V29.4551H41.5707C41.6747 29.4551 41.7627 29.4911 41.8347 29.5631C41.9067 29.6271 41.9427 29.7111 41.9427 29.8151V33.0791C41.9427 33.1831 41.9067 33.2711 41.8347 33.3431C41.7627 33.4071 41.6747 33.4391 41.5707 33.4391H40.9107V34.1831C40.9107 34.2871 40.8747 34.3751 40.8027 34.4471C40.7307 34.5191 40.6467 34.5551 40.5507 34.5551H36.4707V37.4471C36.4707 37.5431 36.4347 37.6271 36.3627 37.6991C36.2907 37.7711 36.2027 37.8071 36.0987 37.8071H35.0667C34.9627 37.8071 34.8747 37.7711 34.8027 37.6991C34.7307 37.6271 34.6947 37.5431 34.6947 37.4471V28.7111C34.6947 28.6071 34.7307 28.5191 34.8027 28.4471C34.8747 28.3751 34.9627 28.3391 35.0667 28.3391ZM36.5307 32.6471H40.1787V30.1031H36.5307V32.6471ZM43.1058 36.0431H43.7178V30.1031H43.1058C43.0018 30.1031 42.9138 30.0711 42.8418 30.0071C42.7698 29.9351 42.7338 29.8471 42.7338 29.7431V28.7111C42.7338 28.6071 42.7698 28.5191 42.8418 28.4471C42.9138 28.3751 43.0018 28.3391 43.1058 28.3391H48.5058C48.6098 28.3391 48.6938 28.3751 48.7578 28.4471C48.8298 28.5191 48.8658 28.6071 48.8658 28.7111V29.4551H49.6098C49.7138 29.4551 49.8018 29.4911 49.8738 29.5631C49.9458 29.6271 49.9818 29.7111 49.9818 29.8151V36.4031C49.9818 36.4991 49.9458 36.5831 49.8738 36.6551C49.8018 36.7271 49.7138 36.7631 49.6098 36.7631H48.9498V37.4471C48.9498 37.5431 48.9138 37.6271 48.8418 37.6991C48.7698 37.7711 48.6858 37.8071 48.5898 37.8071H43.1058C43.0018 37.8071 42.9138 37.7711 42.8418 37.6991C42.7698 37.6271 42.7338 37.5431 42.7338 37.4471V36.4031C42.7338 36.3071 42.7698 36.2231 42.8418 36.1511C42.9138 36.0791 43.0018 36.0431 43.1058 36.0431ZM45.6738 35.9711H48.2178V30.1031H45.6738V35.9711ZM51.6018 29.3831H52.2738V28.7111C52.2738 28.6071 52.3098 28.5191 52.3818 28.4471C52.4538 28.3751 52.5378 28.3391 52.6338 28.3391H57.0018C57.1058 28.3391 57.1898 28.3751 57.2538 28.4471C57.3258 28.5191 57.3618 28.6071 57.3618 28.7111V29.4551H58.1058C58.2098 29.4551 58.2978 29.4911 58.3698 29.5631C58.4418 29.6271 58.4778 29.7111 58.4778 29.8151V37.4471C58.4778 37.5431 58.4418 37.6271 58.3698 37.6991C58.2978 37.7711 58.2098 37.8071 58.1058 37.8071H57.0858C56.9818 37.8071 56.8938 37.7711 56.8218 37.6991C56.7498 37.6271 56.7138 37.5431 56.7138 37.4471V34.6151H53.0058V37.4471C53.0058 37.5431 52.9698 37.6271 52.8978 37.6991C52.8258 37.7711 52.7378 37.8071 52.6338 37.8071H51.6018C51.4978 37.8071 51.4098 37.7711 51.3378 37.6991C51.2658 37.6271 51.2298 37.5431 51.2298 37.4471V29.7431C51.2298 29.6471 51.2658 29.5631 51.3378 29.4911C51.4098 29.4191 51.4978 29.3831 51.6018 29.3831ZM53.0658 32.6471H56.7138V30.1031H53.0658V32.6471ZM61.5681 30.1031H59.7801C59.6841 30.1031 59.6001 30.0711 59.5281 30.0071C59.4561 29.9351 59.4201 29.8471 59.4201 29.7431V28.7111C59.4201 28.6071 59.4561 28.5191 59.5281 28.4471C59.6001 28.3751 59.6841 28.3391 59.7801 28.3391H65.1921C65.2881 28.3391 65.3721 28.3751 65.4441 28.4471C65.5161 28.5191 65.5521 28.6071 65.5521 28.7111V29.7431C65.5521 29.8471 65.5161 29.9351 65.4441 30.0071C65.3721 30.0711 65.2881 30.1031 65.1921 30.1031H63.4041V37.4471C63.4041 37.5431 63.3681 37.6271 63.2961 37.6991C63.2241 37.7711 63.1401 37.8071 63.0441 37.8071H61.9281C61.8321 37.8071 61.7481 37.7711 61.6761 37.6991C61.6041 37.6271 61.5681 37.5431 61.5681 37.4471V30.1031ZM66.9183 28.3391H73.4223C73.5263 28.3391 73.6143 28.3751 73.6863 28.4471C73.7583 28.5191 73.7943 28.6071 73.7943 28.7111V29.7431C73.7943 29.8471 73.7583 29.9351 73.6863 30.0071C73.6143 30.0711 73.5263 30.1031 73.4223 30.1031H68.3823V31.9631H71.2143C71.3103 31.9631 71.3943 31.9991 71.4662 32.0711C71.5382 32.1351 71.5742 32.2191 71.5742 32.3231V33.4391C71.5742 33.5431 71.5382 33.6311 71.4662 33.7031C71.3943 33.7671 71.3103 33.7991 71.2143 33.7991H68.3823V36.0431H73.4223C73.5263 36.0431 73.6143 36.0791 73.6863 36.1511C73.7583 36.2231 73.7943 36.3071 73.7943 36.4031V37.4471C73.7943 37.5431 73.7583 37.6271 73.6863 37.6991C73.6143 37.7711 73.5263 37.8071 73.4223 37.8071H66.9183C66.8143 37.8071 66.7263 37.7711 66.6543 37.6991C66.5823 37.6271 66.5463 37.5431 66.5463 37.4471V28.7111C66.5463 28.6071 66.5823 28.5191 66.6543 28.4471C66.7263 28.3751 66.8143 28.3391 66.9183 28.3391Z" fill="#004D94"/>
</g>
<defs>
<filter id="filter0_ddddii_7_812" x="0" y="0.807129" width="103" height="68" filterUnits="userSpaceOnUse" color-interpolation-filters="sRGB">
<feFlood flood-opacity="0" result="BackgroundImageFix"/>
<feColorMatrix in="SourceAlpha" type="matrix" values="0 0 0 0 0 0 0 0 0 0 0 0 0 0 0 0 0 0 127 0" result="hardAlpha"/>
<feOffset dx="5" dy="5"/>
<feGaussianBlur stdDeviation="6.5"/>
<feColorMatrix type="matrix" values="0 0 0 0 0 0 0 0 0 0.678431 0 0 0 0 0.435294 0 0 0 0.9 0"/>
<feBlend mode="normal" in2="BackgroundImageFix" result="effect1_dropShadow_7_812"/>
<feColorMatrix in="SourceAlpha" type="matrix" values="0 0 0 0 0 0 0 0 0 0 0 0 0 0 0 0 0 0 127 0" result="hardAlpha"/>
<feOffset dx="-5" dy="-5"/>
<feGaussianBlur stdDeviation="5"/>
<feColorMatrix type="matrix" values="0 0 0 0 0 0 0 0 0 1 0 0 0 0 0.843137 0 0 0 0.9 0"/>
<feBlend mode="normal" in2="effect1_dropShadow_7_812" result="effect2_dropShadow_7_812"/>
<feColorMatrix in="SourceAlpha" type="matrix" values="0 0 0 0 0 0 0 0 0 0 0 0 0 0 0 0 0 0 127 0" result="hardAlpha"/>
<feOffset dx="5" dy="-5"/>
<feGaussianBlur stdDeviation="5"/>
<feColorMatrix type="matrix" values="0 0 0 0 0 0 0 0 0 0.678431 0 0 0 0 0.435294 0 0 0 0.2 0"/>
<feBlend mode="normal" in2="effect2_dropShadow_7_812" result="effect3_dropShadow_7_812"/>
<feColorMatrix in="SourceAlpha" type="matrix" values="0 0 0 0 0 0 0 0 0 0 0 0 0 0 0 0 0 0 127 0" result="hardAlpha"/>
<feOffset dx="-5" dy="5"/>
<feGaussianBlur stdDeviation="5"/>
<feColorMatrix type="matrix" values="0 0 0 0 0 0 0 0 0 0.678431 0 0 0 0 0.435294 0 0 0 0.2 0"/>
<feBlend mode="normal" in2="effect3_dropShadow_7_812" result="effect4_dropShadow_7_812"/>
<feBlend mode="normal" in="SourceGraphic" in2="effect4_dropShadow_7_812" result="shape"/>
<feColorMatrix in="SourceAlpha" type="matrix" values="0 0 0 0 0 0 0 0 0 0 0 0 0 0 0 0 0 0 127 0" result="hardAlpha"/>
<feOffset dx="-1" dy="-1"/>
<feGaussianBlur stdDeviation="1"/>
<feComposite in2="hardAlpha" operator="arithmetic" k2="-1" k3="1"/>
<feColorMatrix type="matrix" values="0 0 0 0 0 0 0 0 0 0.678431 0 0 0 0 0.435294 0 0 0 0.5 0"/>
<feBlend mode="normal" in2="shape" result="effect5_innerShadow_7_812"/>
<feColorMatrix in="SourceAlpha" type="matrix" values="0 0 0 0 0 0 0 0 0 0 0 0 0 0 0 0 0 0 127 0" result="hardAlpha"/>
<feOffset dx="1" dy="1"/>
<feGaussianBlur stdDeviation="1"/>
<feComposite in2="hardAlpha" operator="arithmetic" k2="-1" k3="1"/>
<feColorMatrix type="matrix" values="0 0 0 0 0 0 0 0 0 1 0 0 0 0 0.843137 0 0 0 0.3 0"/>
<feBlend mode="normal" in2="effect5_innerShadow_7_812" result="effect6_innerShadow_7_812"/>
</filter>
</defs>
</svg>
