<svg width="104" height="104" viewBox="0 0 104 104" fill="none" xmlns="http://www.w3.org/2000/svg">
<g filter="url(#filter0_ddddii_8411_434)">
<path d="M15.1953 47.5444C15.1953 36.3434 15.1953 30.7429 17.3752 26.4646C19.2926 22.7014 22.3523 19.6418 26.1155 17.7243C30.3937 15.5444 35.9943 15.5444 47.1953 15.5444H53.1953C64.3964 15.5444 69.9969 15.5444 74.2751 17.7243C78.0384 19.6418 81.098 22.7014 83.0154 26.4646C85.1953 30.7429 85.1953 36.3434 85.1953 47.5444V53.5444C85.1953 64.7455 85.1953 70.346 83.0154 74.6242C81.098 78.3875 78.0384 81.4471 74.2751 83.3646C69.9969 85.5444 64.3964 85.5444 53.1953 85.5444H47.1953C35.9943 85.5444 30.3937 85.5444 26.1155 83.3646C22.3523 81.4471 19.2926 78.3875 17.3752 74.6242C15.1953 70.346 15.1953 64.7455 15.1953 53.5444V47.5444Z" fill="white"/>
<path d="M64.0887 46.1305H47.6977C48.4557 45.2593 48.9162 44.1228 48.9162 42.8801C48.9162 40.1453 46.6913 37.9204 43.9566 37.9204C41.2218 37.9204 38.9969 40.1453 38.9969 42.8801C38.9969 44.1228 39.4575 45.2593 40.2153 46.1305H36.3026C33.9382 46.1305 32.0146 48.0541 32.0146 50.4185V55.4782C32.0146 55.9519 32.3986 56.3358 32.8722 56.3358C33.3459 56.3358 33.7298 55.9519 33.7298 55.4782V50.4185C33.7298 48.9998 34.884 47.8457 36.3026 47.8457H60.3153C61.7339 47.8457 62.8881 48.9998 62.8881 50.4185V55.0495H53.9691C51.6047 55.0495 49.6811 56.9731 49.6811 59.3375C49.6811 61.7018 51.6047 63.6254 53.9691 63.6254H62.8881V68.2564C62.8881 69.6751 61.7339 70.8292 60.3153 70.8292H36.3026C34.884 70.8292 33.7298 69.6751 33.7298 68.2564V63.1899C33.7298 62.7163 33.3459 62.3324 32.8722 62.3324C32.3986 62.3324 32.0146 62.7163 32.0146 63.1899V68.2564C32.0146 70.6208 33.9382 72.5444 36.3026 72.5444H64.0887C66.4531 72.5444 68.3767 70.6208 68.3767 68.2564V50.4185C68.3767 48.0541 66.4531 46.1305 64.0887 46.1305ZM43.9566 39.6357C45.7456 39.6357 47.201 41.0911 47.201 42.8801C47.201 44.6692 45.7456 46.1246 43.9566 46.1246C42.1676 46.1246 40.7121 44.6692 40.7121 42.8801C40.7121 41.0911 42.1675 39.6357 43.9566 39.6357ZM63.7433 47.8457H64.0887C65.5073 47.8457 66.6615 48.9998 66.6615 50.4185V55.0495H64.6032V50.4185C64.6032 49.4539 64.2829 48.5629 63.7433 47.8457ZM51.3963 59.3375C51.3963 57.9188 52.5504 56.7647 53.9691 56.7647H66.6615V61.9102H53.9691C52.5504 61.9102 51.3963 60.7561 51.3963 59.3375ZM64.0887 70.8292H63.7433C64.2829 70.112 64.6032 69.2211 64.6032 68.2564V63.6254H66.6615V68.2564C66.6615 69.6751 65.5073 70.8292 64.0887 70.8292Z" fill="#004D94"/>
<path d="M53.7495 58.4798C53.5231 58.4798 53.3019 58.5716 53.1423 58.7311C52.9828 58.8906 52.8919 59.1118 52.8919 59.3374C52.8919 59.5629 52.9828 59.7842 53.1423 59.9437C53.3039 60.104 53.522 60.1942 53.7495 60.195C53.9751 60.195 54.1955 60.1032 54.3558 59.9437C54.5154 59.7842 54.6071 59.5629 54.6071 59.3374C54.6071 59.1118 54.5154 58.8906 54.3558 58.7311C54.1947 58.5708 53.9768 58.4805 53.7495 58.4798ZM56.4347 40.3501C59.1695 40.3501 61.3944 38.1252 61.3944 35.3904C61.3944 32.6557 59.1695 30.4308 56.4347 30.4308C53.7 30.4308 51.4751 32.6557 51.4751 35.3904C51.4751 38.1252 53.7 40.3501 56.4347 40.3501ZM56.4347 32.1461C58.2237 32.1461 59.6792 33.6015 59.6792 35.3905C59.6792 37.1796 58.2238 38.635 56.4347 38.635C54.6457 38.635 53.1903 37.1796 53.1903 35.3905C53.1903 33.6015 54.6457 32.1461 56.4347 32.1461ZM48.0586 36.9987C48.5323 36.9987 48.9162 36.6147 48.9162 36.1411V29.402C48.9162 28.9284 48.5323 28.5444 48.0586 28.5444C47.585 28.5444 47.201 28.9284 47.201 29.402V36.1411C47.201 36.6147 47.585 36.9987 48.0586 36.9987ZM43.9422 34.033C44.4158 34.033 44.7998 33.6491 44.7998 33.1754V29.402C44.7998 28.9284 44.4158 28.5444 43.9422 28.5444C43.4685 28.5444 43.0846 28.9284 43.0846 29.402V33.1754C43.0846 33.6491 43.4685 34.033 43.9422 34.033ZM32.8722 60.195C33.0978 60.195 33.319 60.1032 33.4786 59.9437C33.6381 59.7842 33.7298 59.5629 33.7298 59.3374C33.7298 59.1118 33.6381 58.8906 33.4786 58.7311C33.319 58.5716 33.0986 58.4798 32.8722 58.4798C32.6467 58.4798 32.4254 58.5716 32.2659 58.7311C32.1064 58.8906 32.0146 59.1118 32.0146 59.3374C32.0146 59.5629 32.1064 59.7842 32.2659 59.9437C32.4254 60.1032 32.6466 60.195 32.8722 60.195Z" fill="#004D94"/>
</g>
<defs>
<filter id="filter0_ddddii_8411_434" x="0.195312" y="0.544434" width="103" height="103" filterUnits="userSpaceOnUse" color-interpolation-filters="sRGB">
<feFlood flood-opacity="0" result="BackgroundImageFix"/>
<feColorMatrix in="SourceAlpha" type="matrix" values="0 0 0 0 0 0 0 0 0 0 0 0 0 0 0 0 0 0 127 0" result="hardAlpha"/>
<feOffset dx="5" dy="5"/>
<feGaussianBlur stdDeviation="6.5"/>
<feColorMatrix type="matrix" values="0 0 0 0 0.901961 0 0 0 0 0.901961 0 0 0 0 0.901961 0 0 0 0.9 0"/>
<feBlend mode="normal" in2="BackgroundImageFix" result="effect1_dropShadow_8411_434"/>
<feColorMatrix in="SourceAlpha" type="matrix" values="0 0 0 0 0 0 0 0 0 0 0 0 0 0 0 0 0 0 127 0" result="hardAlpha"/>
<feOffset dx="-5" dy="-5"/>
<feGaussianBlur stdDeviation="5"/>
<feColorMatrix type="matrix" values="0 0 0 0 1 0 0 0 0 1 0 0 0 0 1 0 0 0 0.9 0"/>
<feBlend mode="normal" in2="effect1_dropShadow_8411_434" result="effect2_dropShadow_8411_434"/>
<feColorMatrix in="SourceAlpha" type="matrix" values="0 0 0 0 0 0 0 0 0 0 0 0 0 0 0 0 0 0 127 0" result="hardAlpha"/>
<feOffset dx="5" dy="-5"/>
<feGaussianBlur stdDeviation="5"/>
<feColorMatrix type="matrix" values="0 0 0 0 0.901961 0 0 0 0 0.901961 0 0 0 0 0.901961 0 0 0 0.2 0"/>
<feBlend mode="normal" in2="effect2_dropShadow_8411_434" result="effect3_dropShadow_8411_434"/>
<feColorMatrix in="SourceAlpha" type="matrix" values="0 0 0 0 0 0 0 0 0 0 0 0 0 0 0 0 0 0 127 0" result="hardAlpha"/>
<feOffset dx="-5" dy="5"/>
<feGaussianBlur stdDeviation="5"/>
<feColorMatrix type="matrix" values="0 0 0 0 0.901961 0 0 0 0 0.901961 0 0 0 0 0.901961 0 0 0 0.2 0"/>
<feBlend mode="normal" in2="effect3_dropShadow_8411_434" result="effect4_dropShadow_8411_434"/>
<feBlend mode="normal" in="SourceGraphic" in2="effect4_dropShadow_8411_434" result="shape"/>
<feColorMatrix in="SourceAlpha" type="matrix" values="0 0 0 0 0 0 0 0 0 0 0 0 0 0 0 0 0 0 127 0" result="hardAlpha"/>
<feOffset dx="-1" dy="-1"/>
<feGaussianBlur stdDeviation="1"/>
<feComposite in2="hardAlpha" operator="arithmetic" k2="-1" k3="1"/>
<feColorMatrix type="matrix" values="0 0 0 0 0.901961 0 0 0 0 0.901961 0 0 0 0 0.901961 0 0 0 0.5 0"/>
<feBlend mode="normal" in2="shape" result="effect5_innerShadow_8411_434"/>
<feColorMatrix in="SourceAlpha" type="matrix" values="0 0 0 0 0 0 0 0 0 0 0 0 0 0 0 0 0 0 127 0" result="hardAlpha"/>
<feOffset dx="1" dy="1"/>
<feGaussianBlur stdDeviation="1"/>
<feComposite in2="hardAlpha" operator="arithmetic" k2="-1" k3="1"/>
<feColorMatrix type="matrix" values="0 0 0 0 1 0 0 0 0 1 0 0 0 0 1 0 0 0 0.3 0"/>
<feBlend mode="normal" in2="effect5_innerShadow_8411_434" result="effect6_innerShadow_8411_434"/>
</filter>
</defs>
</svg>
