<svg width="98" height="44" viewBox="0 0 98 44" fill="none" xmlns="http://www.w3.org/2000/svg">
<line x1="93.5615" y1="4.30713" x2="4.4384" y2="4.30713" stroke="white" stroke-width="3"/>
<line x1="4.43848" y1="1.5" x2="2.00036" y2="1.5" stroke="white" stroke-width="3"/>
<line x1="96" y1="1.5" x2="93.5619" y2="1.5" stroke="white" stroke-width="3"/>
<g filter="url(#filter0_d_159_207)">
<path d="M15.248 28.7191H13.904C13.696 28.7191 13.52 28.6471 13.376 28.5031C13.248 28.3591 13.184 28.1911 13.184 27.9991V26.5111H10.04V27.9991C10.04 28.1911 9.968 28.3591 9.824 28.5031C9.68 28.6471 9.512 28.7191 9.32 28.7191H7.832V30.0871C7.832 30.2791 7.76 30.4471 7.616 30.5911C7.472 30.7351 7.296 30.8071 7.088 30.8071H5.024C4.816 30.8071 4.64 30.7351 4.496 30.5911C4.352 30.4471 4.28 30.2791 4.28 30.0871V12.6151C4.28 12.4071 4.352 12.2311 4.496 12.0871C4.64 11.9431 4.816 11.8711 5.024 11.8711H7.088C7.296 11.8711 7.472 11.9431 7.616 12.0871C7.76 12.2311 7.832 12.4071 7.832 12.6151V24.9271H8.6V23.7031C8.6 23.4951 8.664 23.3271 8.792 23.1991C8.936 23.0551 9.112 22.9831 9.32 22.9831H13.616C13.808 22.9831 13.976 23.0551 14.12 23.1991C14.264 23.3271 14.336 23.4951 14.336 23.7031V25.0711H15.248V12.6151C15.248 12.4071 15.32 12.2311 15.464 12.0871C15.608 11.9431 15.784 11.8711 15.992 11.8711H18.032C18.24 11.8711 18.416 11.9431 18.56 12.0871C18.704 12.2311 18.776 12.4071 18.776 12.6151V30.0871C18.776 30.2791 18.704 30.4471 18.56 30.5911C18.416 30.7351 18.24 30.8071 18.032 30.8071H15.992C15.784 30.8071 15.608 30.7351 15.464 30.5911C15.32 30.4471 15.248 30.2791 15.248 30.0871V28.7191ZM22.1099 13.9591H23.4539V12.6151C23.4539 12.4071 23.5259 12.2311 23.6699 12.0871C23.8139 11.9431 23.9819 11.8711 24.1739 11.8711H32.9099C33.1179 11.8711 33.2859 11.9431 33.4139 12.0871C33.5579 12.2311 33.6299 12.4071 33.6299 12.6151V14.1031H35.1179C35.3259 14.1031 35.5019 14.1751 35.6459 14.3191C35.7899 14.4471 35.8619 14.6151 35.8619 14.8231V30.0871C35.8619 30.2791 35.7899 30.4471 35.6459 30.5911C35.5019 30.7351 35.3259 30.8071 35.1179 30.8071H33.0779C32.8699 30.8071 32.6939 30.7351 32.5499 30.5911C32.4059 30.4471 32.3339 30.2791 32.3339 30.0871V24.4231H24.9179V30.0871C24.9179 30.2791 24.8459 30.4471 24.7019 30.5911C24.5579 30.7351 24.3819 30.8071 24.1739 30.8071H22.1099C21.9019 30.8071 21.7259 30.7351 21.5819 30.5911C21.4379 30.4471 21.3659 30.2791 21.3659 30.0871V14.6791C21.3659 14.4871 21.4379 14.3191 21.5819 14.1751C21.7259 14.0311 21.9019 13.9591 22.1099 13.9591ZM25.0379 20.4871H32.3339V15.3991H25.0379V20.4871ZM39.1696 11.8711H41.2576C41.4496 11.8711 41.6176 11.9431 41.7616 12.0871C41.9056 12.2311 41.9776 12.4071 41.9776 12.6151V27.2791H49.9936C50.1856 27.2791 50.3536 27.3511 50.4976 27.4951C50.6416 27.6391 50.7136 27.8071 50.7136 27.9991V30.0871C50.7136 30.2791 50.6416 30.4471 50.4976 30.5911C50.3536 30.7351 50.1856 30.8071 49.9936 30.8071H39.1696C38.9776 30.8071 38.8096 30.7351 38.6656 30.5911C38.5216 30.4471 38.4496 30.2791 38.4496 30.0871V12.6151C38.4496 12.4071 38.5216 12.2311 38.6656 12.0871C38.8096 11.9431 38.9776 11.8711 39.1696 11.8711ZM52.6931 11.8711H54.7811C54.9731 11.8711 55.1411 11.9431 55.2851 12.0871C55.4291 12.2311 55.5011 12.4071 55.5011 12.6151V27.2791H63.5171C63.7091 27.2791 63.8771 27.3511 64.0211 27.4951C64.1651 27.6391 64.2371 27.8071 64.2371 27.9991V30.0871C64.2371 30.2791 64.1651 30.4471 64.0211 30.5911C63.8771 30.7351 63.7091 30.8071 63.5171 30.8071H52.6931C52.5011 30.8071 52.3331 30.7351 52.1891 30.5911C52.0451 30.4471 51.9731 30.2791 51.9731 30.0871V12.6151C51.9731 12.4071 52.0451 12.2311 52.1891 12.0871C52.3331 11.9431 52.5011 11.8711 52.6931 11.8711ZM66.2428 11.8711H79.2508C79.4588 11.8711 79.6348 11.9431 79.7788 12.0871C79.9228 12.2311 79.9948 12.4071 79.9948 12.6151V14.6791C79.9948 14.8871 79.9228 15.0631 79.7788 15.2071C79.6348 15.3351 79.4588 15.3991 79.2508 15.3991H69.1708V19.1191H74.8348C75.0268 19.1191 75.1948 19.1911 75.3387 19.3351C75.4827 19.4631 75.5547 19.6311 75.5547 19.8391V22.0711C75.5547 22.2791 75.4827 22.4551 75.3387 22.5991C75.1948 22.7271 75.0268 22.7911 74.8348 22.7911H69.1708V27.2791H79.2508C79.4588 27.2791 79.6348 27.3511 79.7788 27.4951C79.9228 27.6391 79.9948 27.8071 79.9948 27.9991V30.0871C79.9948 30.2791 79.9228 30.4471 79.7788 30.5911C79.6348 30.7351 79.4588 30.8071 79.2508 30.8071H66.2428C66.0348 30.8071 65.8588 30.7351 65.7148 30.5911C65.5708 30.4471 65.4988 30.2791 65.4988 30.0871V12.6151C65.4988 12.4071 65.5708 12.2311 65.7148 12.0871C65.8588 11.9431 66.0348 11.8711 66.2428 11.8711ZM85.1909 15.3991H81.6149C81.4229 15.3991 81.2549 15.3351 81.1109 15.2071C80.9669 15.0631 80.8949 14.8871 80.8949 14.6791V12.6151C80.8949 12.4071 80.9669 12.2311 81.1109 12.0871C81.2549 11.9431 81.4229 11.8711 81.6149 11.8711H92.4389C92.6309 11.8711 92.7989 11.9431 92.9429 12.0871C93.0869 12.2311 93.1589 12.4071 93.1589 12.6151V14.6791C93.1589 14.8871 93.0869 15.0631 92.9429 15.2071C92.7989 15.3351 92.6309 15.3991 92.4389 15.3991H88.8629V30.0871C88.8629 30.2791 88.7909 30.4471 88.6469 30.5911C88.5029 30.7351 88.3349 30.8071 88.1429 30.8071H85.9109C85.7189 30.8071 85.5509 30.7351 85.4069 30.5911C85.2629 30.4471 85.1909 30.2791 85.1909 30.0871V15.3991Z" fill="white"/>
</g>
<line y1="-1.5" x2="89.1231" y2="-1.5" transform="matrix(-1 0 0 1 93.5615 40.8071)" stroke="white" stroke-width="3"/>
<line y1="-1.5" x2="2.43812" y2="-1.5" transform="matrix(-1 1.35443e-07 5.64278e-08 1 4.43848 43.6143)" stroke="white" stroke-width="3"/>
<line y1="-1.5" x2="2.43812" y2="-1.5" transform="matrix(-1 1.35443e-07 5.64279e-08 1 96 43.6143)" stroke="white" stroke-width="3"/>
<defs>
<filter id="filter0_d_159_207" x="0.280273" y="11.8711" width="96.8789" height="26.936" filterUnits="userSpaceOnUse" color-interpolation-filters="sRGB">
<feFlood flood-opacity="0" result="BackgroundImageFix"/>
<feColorMatrix in="SourceAlpha" type="matrix" values="0 0 0 0 0 0 0 0 0 0 0 0 0 0 0 0 0 0 127 0" result="hardAlpha"/>
<feOffset dy="4"/>
<feGaussianBlur stdDeviation="2"/>
<feComposite in2="hardAlpha" operator="out"/>
<feColorMatrix type="matrix" values="0 0 0 0 0.417535 0 0 0 0 0.474062 0 0 0 0 0.770833 0 0 0 0.25 0"/>
<feBlend mode="normal" in2="BackgroundImageFix" result="effect1_dropShadow_159_207"/>
<feBlend mode="normal" in="SourceGraphic" in2="effect1_dropShadow_159_207" result="shape"/>
</filter>
</defs>
</svg>
