<svg width="155" height="67" viewBox="0 0 155 67" fill="none" xmlns="http://www.w3.org/2000/svg">
<g filter="url(#filter0_d_8411_461)">
<line x1="146.234" y1="4.30713" x2="8.15723" y2="4.30713" stroke="white" stroke-width="3"/>
<line x1="8.15625" y1="1.5" x2="4.37891" y2="1.5" stroke="white" stroke-width="3"/>
<line x1="150.012" y1="1.5" x2="146.234" y2="1.5" stroke="white" stroke-width="3"/>
<path d="M18.5613 12.8071H22.2952C22.6595 12.8071 22.9782 12.9323 23.2514 13.1827C23.5246 13.4331 23.6612 13.7391 23.6612 14.1007V24.4078H26.4843C26.8486 24.4078 27.1674 24.533 27.4406 24.7834C27.7138 25.0338 27.8504 25.3259 27.8504 25.6597V28.0383H29.5352V25.4093C29.5352 25.0477 29.6718 24.7556 29.945 24.533C30.2182 24.2826 30.5521 24.1575 30.9467 24.1575H33.7699V14.1007C33.7699 13.7391 33.8913 13.4331 34.1341 13.1827C34.4074 12.9323 34.7413 12.8071 35.1359 12.8071H39.0974C39.4617 12.8071 39.7804 12.9323 40.0536 13.1827C40.3268 13.4331 40.4634 13.7391 40.4634 14.1007V25.4093C40.4634 25.7432 40.3268 26.0353 40.0536 26.2856C39.7804 26.536 39.4617 26.6612 39.0974 26.6612H36.5019V29.2901C36.5019 29.6518 36.3653 29.9578 36.0921 30.2082C35.8189 30.4307 35.5002 30.542 35.1359 30.542H32.3128V44.4796C32.3128 44.8134 32.1762 45.1055 31.903 45.3559C31.6297 45.6062 31.311 45.7314 30.9467 45.7314H26.9852C26.5906 45.7314 26.2567 45.6062 25.9835 45.3559C25.7406 45.1055 25.6192 44.8134 25.6192 44.4796V30.2916H22.7505C22.3862 30.2916 22.0675 30.1665 21.7943 29.9161C21.5211 29.6657 21.3845 29.3736 21.3845 29.0398V26.4526H18.5613C18.1971 26.4526 17.8783 26.3274 17.6051 26.077C17.3319 25.8266 17.1953 25.5206 17.1953 25.159V14.1007C17.1953 13.7391 17.3319 13.4331 17.6051 13.1827C17.8783 12.9323 18.1971 12.8071 18.5613 12.8071Z" fill="white"/>
<path d="M46.0919 12.8071H70.7716C71.1663 12.8071 71.5002 12.9323 71.7734 13.1827C72.0466 13.4331 72.1832 13.7391 72.1832 14.1007V44.4796C72.1832 44.8134 72.0466 45.1055 71.7734 45.3559C71.5002 45.6062 71.1663 45.7314 70.7716 45.7314H46.0919C45.6973 45.7314 45.3634 45.6062 45.0902 45.3559C44.817 45.1055 44.6804 44.8134 44.6804 44.4796V14.1007C44.6804 13.7391 44.817 13.4331 45.0902 13.1827C45.3634 12.9323 45.6973 12.8071 46.0919 12.8071ZM51.6471 19.1917V39.3469H65.2164V19.1917H51.6471Z" fill="white"/>
<path d="M78.5975 12.8071H82.5135C82.9081 12.8071 83.242 12.9323 83.5152 13.1827C83.7884 13.4331 83.925 13.7391 83.925 14.1007V23.9071H97.9952V14.1007C97.9952 13.7391 98.1318 13.4331 98.405 13.1827C98.6782 12.9323 99.0121 12.8071 99.4068 12.8071H103.277C103.672 12.8071 104.006 12.9323 104.279 13.1827C104.552 13.4331 104.689 13.7391 104.689 14.1007V44.4796C104.689 44.8134 104.552 45.1055 104.279 45.3559C104.006 45.6062 103.672 45.7314 103.277 45.7314H99.4068C99.0121 45.7314 98.6782 45.6062 98.405 45.3559C98.1318 45.1055 97.9952 44.8134 97.9952 44.4796V30.7924H83.925V44.4796C83.925 44.8134 83.7884 45.1055 83.5152 45.3559C83.242 45.6062 82.9081 45.7314 82.5135 45.7314H78.5975C78.2029 45.7314 77.8689 45.6062 77.5957 45.3559C77.3225 45.1055 77.1859 44.8134 77.1859 44.4796V14.1007C77.1859 13.7391 77.3225 13.4331 77.5957 13.1827C77.8689 12.9323 78.2029 12.8071 78.5975 12.8071Z" fill="white"/>
<path d="M111.103 12.8071H135.783C136.177 12.8071 136.511 12.9323 136.785 13.1827C137.058 13.4331 137.194 13.7391 137.194 14.1007V44.4796C137.194 44.8134 137.058 45.1055 136.785 45.3559C136.511 45.6062 136.177 45.7314 135.783 45.7314H111.103C110.708 45.7314 110.375 45.6062 110.101 45.3559C109.828 45.1055 109.692 44.8134 109.692 44.4796V14.1007C109.692 13.7391 109.828 13.4331 110.101 13.1827C110.375 12.9323 110.708 12.8071 111.103 12.8071ZM116.658 19.1917V39.3469H130.228V19.1917H116.658Z" fill="white"/>
<line y1="-1.5" x2="138.077" y2="-1.5" transform="matrix(-1 0 0 1 146.234 55.7314)" stroke="white" stroke-width="3"/>
<line y1="-1.5" x2="3.77734" y2="-1.5" transform="matrix(-1 8.74227e-08 8.74227e-08 1 8.15625 58.5386)" stroke="white" stroke-width="3"/>
<line y1="-1.5" x2="3.77734" y2="-1.5" transform="matrix(-1 8.74227e-08 8.74227e-08 1 150.012 58.5386)" stroke="white" stroke-width="3"/>
</g>
<defs>
<filter id="filter0_d_8411_461" x="0.378906" y="0" width="153.633" height="66.5386" filterUnits="userSpaceOnUse" color-interpolation-filters="sRGB">
<feFlood flood-opacity="0" result="BackgroundImageFix"/>
<feColorMatrix in="SourceAlpha" type="matrix" values="0 0 0 0 0 0 0 0 0 0 0 0 0 0 0 0 0 0 127 0" result="hardAlpha"/>
<feOffset dy="4"/>
<feGaussianBlur stdDeviation="2"/>
<feComposite in2="hardAlpha" operator="out"/>
<feColorMatrix type="matrix" values="0 0 0 0 0.417535 0 0 0 0 0.474062 0 0 0 0 0.770833 0 0 0 0.25 0"/>
<feBlend mode="normal" in2="BackgroundImageFix" result="effect1_dropShadow_8411_461"/>
<feBlend mode="normal" in="SourceGraphic" in2="effect1_dropShadow_8411_461" result="shape"/>
</filter>
</defs>
</svg>
